{"glyphs":{"0":{"ha":556,"x_min":92,"x_max":464,"o":"m 353 722 q 347 667 353 690 l 208 667 q 203 722 203 690 q 208 778 203 756 l 347 778 q 353 722 353 756 m 208 222 q 214 167 214 200 q 208 111 214 135 l 139 111 q 133 167 133 135 q 139 222 133 200 l 97 222 q 92 278 92 246 q 97 333 92 311 q 92 389 92 357 q 97 444 92 422 q 92 500 92 468 q 97 556 92 533 l 139 556 q 133 611 133 579 q 139 667 133 644 l 208 667 q 214 611 214 644 q 208 556 214 579 q 214 500 214 533 q 208 444 214 468 q 214 389 214 422 q 208 333 214 357 q 214 278 214 311 q 208 222 214 246 m 458 444 q 464 389 464 422 q 458 333 464 357 q 464 278 464 311 q 458 222 464 246 l 417 222 q 422 167 422 200 q 417 111 422 135 l 347 111 q 342 167 342 135 q 347 222 342 200 q 342 278 342 246 q 347 333 342 311 q 342 389 342 357 q 347 444 342 422 q 342 500 342 468 q 347 556 342 533 q 342 611 342 579 q 347 667 342 644 l 417 667 q 422 611 422 644 q 417 556 422 579 l 458 556 q 464 500 464 533 q 458 444 464 468 m 203 56 q 208 111 203 89 l 347 111 q 353 56 353 89 q 347 0 353 24 l 208 0 q 203 56 203 24 z "},"1":{"ha":556,"x_min":106,"x_max":450,"o":"m 444 111 q 450 56 450 89 q 444 0 450 24 l 111 0 q 106 56 106 24 q 111 111 106 89 l 222 111 q 217 167 217 135 q 222 222 217 200 q 217 278 217 246 q 222 333 217 311 q 217 389 217 357 q 222 444 217 422 q 217 500 217 468 q 222 556 217 533 l 139 556 q 133 611 133 579 q 139 667 133 644 l 222 667 q 217 722 217 690 q 222 778 217 756 l 333 778 q 339 722 339 756 q 333 667 339 690 q 339 611 339 644 q 333 556 339 579 q 339 500 339 533 q 333 444 339 468 q 339 389 339 422 q 333 333 339 357 q 339 278 339 311 q 333 222 339 246 q 339 167 339 200 q 333 111 339 135 l 444 111 z "},"2":{"ha":556,"x_min":78,"x_max":478,"o":"m 478 500 q 472 444 478 468 l 403 444 q 408 389 408 422 q 403 333 408 357 l 333 333 q 339 278 339 311 q 333 222 339 246 l 264 222 q 269 167 269 200 q 264 111 269 135 l 472 111 q 478 56 478 89 q 472 0 478 24 l 83 0 q 78 56 78 24 q 83 111 78 89 l 153 111 q 147 167 147 135 q 153 222 147 200 l 222 222 q 217 278 217 246 q 222 333 217 311 l 292 333 q 286 389 286 357 q 292 444 286 422 l 361 444 q 356 500 356 468 q 361 556 356 533 q 356 611 356 579 q 361 667 356 644 l 167 667 q 172 611 172 644 q 167 556 172 579 l 83 556 q 78 611 78 579 q 83 667 78 644 l 139 667 q 133 722 133 690 q 139 778 133 756 l 417 778 q 422 722 422 756 q 417 667 422 690 l 472 667 q 478 611 478 644 q 472 556 478 579 q 478 500 478 533 z "},"3":{"ha":556,"x_min":78,"x_max":478,"o":"m 478 500 q 472 444 478 468 l 417 444 q 422 389 422 422 q 417 333 422 357 l 472 333 q 478 278 478 311 q 472 222 478 246 q 478 167 478 200 q 472 111 478 135 l 417 111 q 422 56 422 89 q 417 0 422 24 l 139 0 q 133 56 133 24 q 139 111 133 89 l 83 111 q 78 167 78 135 q 83 222 78 200 l 194 222 q 200 167 200 200 q 194 111 200 135 l 361 111 q 356 167 356 135 q 361 222 356 200 q 356 278 356 246 q 361 333 356 311 l 222 333 q 217 389 217 357 q 222 444 217 422 l 361 444 q 356 500 356 468 q 361 556 356 533 q 356 611 356 579 q 361 667 356 644 l 194 667 q 200 611 200 644 q 194 556 200 579 l 83 556 q 78 611 78 579 q 83 667 78 644 l 139 667 q 133 722 133 690 q 139 778 133 756 l 417 778 q 422 722 422 756 q 417 667 422 690 l 472 667 q 478 611 478 644 q 472 556 478 579 q 478 500 478 533 z "},"4":{"ha":556,"x_min":50,"x_max":506,"o":"m 506 278 q 500 222 506 246 l 444 222 q 450 167 450 200 q 444 111 450 135 q 450 56 450 89 q 444 0 450 24 l 333 0 q 328 56 328 24 q 333 111 328 89 q 328 167 328 135 q 333 222 328 200 l 56 222 q 50 278 50 246 q 56 333 50 311 l 97 333 q 92 389 92 357 q 97 444 92 422 l 139 444 q 133 500 133 468 q 139 556 133 533 l 181 556 q 175 611 175 579 q 181 667 175 644 l 250 667 q 256 611 256 644 q 250 556 256 579 l 208 556 q 214 500 214 533 q 208 444 214 468 l 167 444 q 172 389 172 422 q 167 333 172 357 l 333 333 q 328 389 328 357 q 333 444 328 422 q 328 500 328 468 q 333 556 328 533 q 328 611 328 579 q 333 667 328 644 l 250 667 q 244 722 244 690 q 250 778 244 756 l 444 778 q 450 722 450 756 q 444 667 450 690 q 450 611 450 644 q 444 556 450 579 q 450 500 450 533 q 444 444 450 468 q 450 389 450 422 q 444 333 450 357 l 500 333 q 506 278 506 311 z "},"5":{"ha":556,"x_min":78,"x_max":506,"o":"m 200 500 q 194 444 200 468 l 236 444 q 242 389 242 422 q 236 333 242 357 l 83 333 q 78 389 78 357 q 83 444 78 422 q 78 500 78 468 q 83 556 78 533 q 78 611 78 579 q 83 667 78 644 q 78 722 78 690 q 83 778 78 756 l 458 778 q 464 722 464 756 q 458 667 464 690 l 194 667 q 200 611 200 644 q 194 556 200 579 q 200 500 200 533 m 506 278 q 500 222 506 246 l 458 222 q 464 167 464 200 q 458 111 464 135 l 389 111 q 394 56 394 89 q 389 0 394 24 l 139 0 q 133 56 133 24 q 139 111 133 89 l 83 111 q 78 167 78 135 q 83 222 78 200 l 167 222 q 172 167 172 200 q 167 111 172 135 l 347 111 q 342 167 342 135 q 347 222 342 200 l 389 222 q 383 278 383 246 q 389 333 383 311 l 347 333 q 342 389 342 357 q 347 444 342 422 l 236 444 q 231 500 231 468 q 236 556 231 533 l 389 556 q 394 500 394 533 q 389 444 394 468 l 458 444 q 464 389 464 422 q 458 333 464 357 l 500 333 q 506 278 506 311 z "},"6":{"ha":556,"x_min":71,"x_max":485,"o":"m 429 722 q 424 667 429 690 l 229 667 q 224 722 224 690 q 229 778 224 756 l 424 778 q 429 722 429 756 m 229 222 q 235 167 235 200 q 229 111 235 135 l 118 111 q 113 167 113 135 q 118 222 113 200 l 76 222 q 71 278 71 246 q 76 333 71 311 q 71 389 71 357 q 76 444 71 422 q 71 500 71 468 q 76 556 71 533 l 118 556 q 113 611 113 579 q 118 667 113 644 l 229 667 q 235 611 235 644 q 229 556 235 579 l 188 556 q 193 500 193 533 q 188 444 193 468 q 193 389 193 422 q 188 333 193 357 l 229 333 q 235 278 235 311 q 229 222 235 246 m 485 278 q 479 222 485 246 q 485 167 485 200 q 479 111 485 135 l 396 111 q 401 56 401 89 q 396 0 401 24 l 229 0 q 224 56 224 24 q 229 111 224 89 l 368 111 q 363 167 363 135 q 368 222 363 200 q 363 278 363 246 q 368 333 363 311 l 229 333 q 224 389 224 357 q 229 444 224 422 l 424 444 q 429 389 429 422 q 424 333 429 357 l 479 333 q 485 278 485 311 z "},"7":{"ha":556,"x_min":78,"x_max":478,"o":"m 478 722 q 472 667 478 690 q 478 611 478 644 q 472 556 478 579 l 431 556 q 436 500 436 533 q 431 444 436 468 l 389 444 q 394 389 394 422 q 389 333 394 357 l 347 333 q 353 278 353 311 q 347 222 353 246 l 306 222 q 311 167 311 200 q 306 111 311 135 l 264 111 q 269 56 269 89 q 264 0 269 24 l 153 0 q 147 56 147 24 q 153 111 147 89 l 194 111 q 189 167 189 135 q 194 222 189 200 l 236 222 q 231 278 231 246 q 236 333 231 311 l 278 333 q 272 389 272 357 q 278 444 272 422 l 319 444 q 314 500 314 468 q 319 556 314 533 l 361 556 q 356 611 356 579 q 361 667 356 644 l 83 667 q 78 722 78 690 q 83 778 78 756 l 472 778 q 478 722 478 756 z "},"8":{"ha":556,"x_min":92,"x_max":464,"o":"m 464 500 q 458 444 464 468 l 389 444 q 394 389 394 422 q 389 333 394 357 l 458 333 q 464 278 464 311 q 458 222 464 246 q 464 167 464 200 q 458 111 464 135 l 389 111 q 394 56 394 89 q 389 0 394 24 l 167 0 q 161 56 161 24 q 167 111 161 89 l 97 111 q 92 167 92 135 q 97 222 92 200 q 92 278 92 246 q 97 333 92 311 l 167 333 q 161 389 161 357 q 167 444 161 422 l 97 444 q 92 500 92 468 q 97 556 92 533 q 92 611 92 579 q 97 667 92 644 l 167 667 q 161 722 161 690 q 167 778 161 756 l 389 778 q 394 722 394 756 q 389 667 394 690 l 458 667 q 464 611 464 644 q 458 556 464 579 q 464 500 464 533 m 347 444 q 342 500 342 468 q 347 556 342 533 q 342 611 342 579 q 347 667 342 644 l 208 667 q 214 611 214 644 q 208 556 214 579 q 214 500 214 533 q 208 444 214 468 l 347 444 m 347 222 q 342 278 342 246 q 347 333 342 311 l 208 333 q 214 278 214 311 q 208 222 214 246 q 214 167 214 200 q 208 111 214 135 l 347 111 q 342 167 342 135 q 347 222 342 200 z "},"9":{"ha":556,"x_min":71,"x_max":485,"o":"m 193 500 q 188 444 193 468 l 326 444 q 332 389 332 422 q 326 333 332 357 l 132 333 q 126 389 126 357 q 132 444 126 422 l 76 444 q 71 500 71 468 q 76 556 71 533 q 71 611 71 579 q 76 667 71 644 l 160 667 q 154 722 154 690 q 160 778 154 756 l 326 778 q 332 722 332 756 q 326 667 332 690 l 188 667 q 193 611 193 644 q 188 556 193 579 q 193 500 193 533 m 479 444 q 485 389 485 422 q 479 333 485 357 q 485 278 485 311 q 479 222 485 246 l 438 222 q 443 167 443 200 q 438 111 443 135 l 326 111 q 321 167 321 135 q 326 222 321 200 l 368 222 q 363 278 363 246 q 368 333 363 311 q 363 389 363 357 q 368 444 363 422 l 326 444 q 321 500 321 468 q 326 556 321 533 q 321 611 321 579 q 326 667 321 644 l 438 667 q 443 611 443 644 q 438 556 443 579 l 479 556 q 485 500 485 533 q 479 444 485 468 m 126 56 q 132 111 126 89 l 326 111 q 332 56 332 89 q 326 0 332 24 l 132 0 q 126 56 126 24 z "},"\u0000":{"ha":0,"x_min":0,"x_max":0,"o":""},"\r":{"ha":556,"x_min":0,"x_max":0,"o":""}," ":{"ha":556,"x_min":0,"x_max":0,"o":""},"A":{"ha":556,"x_min":50,"x_max":506,"o":"m 506 167 q 500 111 506 135 q 506 56 506 89 q 500 0 506 24 l 389 0 q 383 56 383 24 q 389 111 383 89 q 383 167 383 135 q 389 222 383 200 l 167 222 q 172 167 172 200 q 167 111 172 135 q 172 56 172 89 q 167 0 172 24 l 56 0 q 50 56 50 24 q 56 111 50 89 q 50 167 50 135 q 56 222 50 200 l 97 222 q 92 278 92 246 q 97 333 92 311 q 92 389 92 357 q 97 444 92 422 l 125 444 q 119 500 119 468 q 125 556 119 533 l 167 556 q 161 611 161 579 q 167 667 161 644 l 194 667 q 189 722 189 690 q 194 778 189 756 l 361 778 q 367 722 367 756 q 361 667 367 690 l 389 667 q 394 611 394 644 q 389 556 394 579 l 431 556 q 436 500 436 533 q 431 444 436 468 l 458 444 q 464 389 464 422 q 458 333 464 357 q 464 278 464 311 q 458 222 464 246 l 500 222 q 506 167 506 200 m 347 333 q 342 389 342 357 q 347 444 342 422 l 319 444 q 314 500 314 468 q 319 556 314 533 l 236 556 q 242 500 242 533 q 236 444 242 468 l 208 444 q 214 389 214 422 q 208 333 214 357 l 347 333 z "},"Á":{"ha":556,"x_min":50,"x_max":506,"o":"m 222 889 q 217 944 217 913 q 222 1000 217 978 l 278 1000 q 272 1056 272 1024 q 278 1111 272 1089 l 389 1111 q 394 1056 394 1089 q 389 1000 394 1024 l 333 1000 q 339 944 339 978 q 333 889 339 913 l 222 889 m 506 167 q 500 111 506 135 q 506 56 506 89 q 500 0 506 24 l 389 0 q 383 56 383 24 q 389 111 383 89 q 383 167 383 135 q 389 222 383 200 l 167 222 q 172 167 172 200 q 167 111 172 135 q 172 56 172 89 q 167 0 172 24 l 56 0 q 50 56 50 24 q 56 111 50 89 q 50 167 50 135 q 56 222 50 200 l 97 222 q 92 278 92 246 q 97 333 92 311 q 92 389 92 357 q 97 444 92 422 l 125 444 q 119 500 119 468 q 125 556 119 533 l 167 556 q 161 611 161 579 q 167 667 161 644 l 194 667 q 189 722 189 690 q 194 778 189 756 l 361 778 q 367 722 367 756 q 361 667 367 690 l 389 667 q 394 611 394 644 q 389 556 394 579 l 431 556 q 436 500 436 533 q 431 444 436 468 l 458 444 q 464 389 464 422 q 458 333 464 357 q 464 278 464 311 q 458 222 464 246 l 500 222 q 506 167 506 200 m 347 333 q 342 389 342 357 q 347 444 342 422 l 319 444 q 314 500 314 468 q 319 556 314 533 l 236 556 q 242 500 242 533 q 236 444 242 468 l 208 444 q 214 389 214 422 q 208 333 214 357 l 347 333 z "},"Ă":{"ha":556,"x_min":50,"x_max":506,"o":"m 506 167 q 500 111 506 135 q 506 56 506 89 q 500 0 506 24 l 389 0 q 383 56 383 24 q 389 111 383 89 q 383 167 383 135 q 389 222 383 200 l 167 222 q 172 167 172 200 q 167 111 172 135 q 172 56 172 89 q 167 0 172 24 l 56 0 q 50 56 50 24 q 56 111 50 89 q 50 167 50 135 q 56 222 50 200 l 97 222 q 92 278 92 246 q 97 333 92 311 q 92 389 92 357 q 97 444 92 422 l 125 444 q 119 500 119 468 q 125 556 119 533 l 167 556 q 161 611 161 579 q 167 667 161 644 l 194 667 q 189 722 189 690 q 194 778 189 756 l 361 778 q 367 722 367 756 q 361 667 367 690 l 389 667 q 394 611 394 644 q 389 556 394 579 l 431 556 q 436 500 436 533 q 431 444 436 468 l 458 444 q 464 389 464 422 q 458 333 464 357 q 464 278 464 311 q 458 222 464 246 l 500 222 q 506 167 506 200 m 347 333 q 342 389 342 357 q 347 444 342 422 l 319 444 q 314 500 314 468 q 319 556 314 533 l 236 556 q 242 500 242 533 q 236 444 242 468 l 208 444 q 214 389 214 422 q 208 333 214 357 l 347 333 m 167 1111 q 172 1056 172 1089 q 167 1000 172 1024 l 56 1000 q 50 1056 50 1024 q 56 1111 50 1089 l 167 1111 m 500 1111 q 506 1056 506 1089 q 500 1000 506 1024 l 389 1000 q 383 1056 383 1024 q 389 1111 383 1089 l 500 1111 m 389 1000 q 394 944 394 978 q 389 889 394 913 l 167 889 q 161 944 161 913 q 167 1000 161 978 l 389 1000 z "},"Ắ":{"ha":556,"x_min":50,"x_max":506,"o":"m 222 1111 q 217 1167 217 1135 q 222 1222 217 1200 l 278 1222 q 272 1278 272 1246 q 278 1333 272 1311 l 389 1333 q 394 1278 394 1311 q 389 1222 394 1246 l 333 1222 q 339 1167 339 1200 q 333 1111 339 1135 l 222 1111 m 56 1000 q 50 1056 50 1024 q 56 1111 50 1089 l 167 1111 q 172 1056 172 1089 q 167 1000 172 1024 l 56 1000 m 506 1056 q 500 1000 506 1024 l 389 1000 q 383 1056 383 1024 q 389 1111 383 1089 l 500 1111 q 506 1056 506 1089 m 167 889 q 161 944 161 913 q 167 1000 161 978 l 389 1000 q 394 944 394 978 q 389 889 394 913 l 167 889 m 500 222 q 506 167 506 200 q 500 111 506 135 q 506 56 506 89 q 500 0 506 24 l 389 0 q 383 56 383 24 q 389 111 383 89 q 383 167 383 135 q 389 222 383 200 l 167 222 q 172 167 172 200 q 167 111 172 135 q 172 56 172 89 q 167 0 172 24 l 56 0 q 50 56 50 24 q 56 111 50 89 q 50 167 50 135 q 56 222 50 200 l 97 222 q 92 278 92 246 q 97 333 92 311 q 92 389 92 357 q 97 444 92 422 l 125 444 q 119 500 119 468 q 125 556 119 533 l 167 556 q 161 611 161 579 q 167 667 161 644 l 194 667 q 189 722 189 690 q 194 778 189 756 l 361 778 q 367 722 367 756 q 361 667 367 690 l 389 667 q 394 611 394 644 q 389 556 394 579 l 431 556 q 436 500 436 533 q 431 444 436 468 l 458 444 q 464 389 464 422 q 458 333 464 357 q 464 278 464 311 q 458 222 464 246 l 500 222 m 347 333 q 342 389 342 357 q 347 444 342 422 l 319 444 q 314 500 314 468 q 319 556 314 533 l 236 556 q 242 500 242 533 q 236 444 242 468 l 208 444 q 214 389 214 422 q 208 333 214 357 l 347 333 z "},"Ặ":{"ha":556,"x_min":50,"x_max":506,"o":"m 506 167 q 500 111 506 135 q 506 56 506 89 q 500 0 506 24 l 389 0 q 383 56 383 24 q 389 111 383 89 q 383 167 383 135 q 389 222 383 200 l 167 222 q 172 167 172 200 q 167 111 172 135 q 172 56 172 89 q 167 0 172 24 l 56 0 q 50 56 50 24 q 56 111 50 89 q 50 167 50 135 q 56 222 50 200 l 97 222 q 92 278 92 246 q 97 333 92 311 q 92 389 92 357 q 97 444 92 422 l 125 444 q 119 500 119 468 q 125 556 119 533 l 167 556 q 161 611 161 579 q 167 667 161 644 l 194 667 q 189 722 189 690 q 194 778 189 756 l 361 778 q 367 722 367 756 q 361 667 367 690 l 389 667 q 394 611 394 644 q 389 556 394 579 l 431 556 q 436 500 436 533 q 431 444 436 468 l 458 444 q 464 389 464 422 q 458 333 464 357 q 464 278 464 311 q 458 222 464 246 l 500 222 q 506 167 506 200 m 347 333 q 342 389 342 357 q 347 444 342 422 l 319 444 q 314 500 314 468 q 319 556 314 533 l 236 556 q 242 500 242 533 q 236 444 242 468 l 208 444 q 214 389 214 422 q 208 333 214 357 l 347 333 m 333 -111 q 339 -167 339 -133 q 333 -222 339 -199 l 222 -222 q 217 -167 217 -199 q 222 -111 217 -133 l 333 -111 m 167 1111 q 172 1056 172 1089 q 167 1000 172 1024 l 56 1000 q 50 1056 50 1024 q 56 1111 50 1089 l 167 1111 m 500 1111 q 506 1056 506 1089 q 500 1000 506 1024 l 389 1000 q 383 1056 383 1024 q 389 1111 383 1089 l 500 1111 m 389 1000 q 394 944 394 978 q 389 889 394 913 l 167 889 q 161 944 161 913 q 167 1000 161 978 l 389 1000 z "},"Ằ":{"ha":556,"x_min":50,"x_max":506,"o":"m 167 1222 q 161 1278 161 1246 q 167 1333 161 1311 l 278 1333 q 283 1278 283 1311 q 278 1222 283 1246 l 333 1222 q 339 1167 339 1200 q 333 1111 339 1135 l 222 1111 q 217 1167 217 1135 q 222 1222 217 1200 l 167 1222 m 56 1000 q 50 1056 50 1024 q 56 1111 50 1089 l 167 1111 q 172 1056 172 1089 q 167 1000 172 1024 l 56 1000 m 506 1056 q 500 1000 506 1024 l 389 1000 q 383 1056 383 1024 q 389 1111 383 1089 l 500 1111 q 506 1056 506 1089 m 167 889 q 161 944 161 913 q 167 1000 161 978 l 389 1000 q 394 944 394 978 q 389 889 394 913 l 167 889 m 500 222 q 506 167 506 200 q 500 111 506 135 q 506 56 506 89 q 500 0 506 24 l 389 0 q 383 56 383 24 q 389 111 383 89 q 383 167 383 135 q 389 222 383 200 l 167 222 q 172 167 172 200 q 167 111 172 135 q 172 56 172 89 q 167 0 172 24 l 56 0 q 50 56 50 24 q 56 111 50 89 q 50 167 50 135 q 56 222 50 200 l 97 222 q 92 278 92 246 q 97 333 92 311 q 92 389 92 357 q 97 444 92 422 l 125 444 q 119 500 119 468 q 125 556 119 533 l 167 556 q 161 611 161 579 q 167 667 161 644 l 194 667 q 189 722 189 690 q 194 778 189 756 l 361 778 q 367 722 367 756 q 361 667 367 690 l 389 667 q 394 611 394 644 q 389 556 394 579 l 431 556 q 436 500 436 533 q 431 444 436 468 l 458 444 q 464 389 464 422 q 458 333 464 357 q 464 278 464 311 q 458 222 464 246 l 500 222 m 347 333 q 342 389 342 357 q 347 444 342 422 l 319 444 q 314 500 314 468 q 319 556 314 533 l 236 556 q 242 500 242 533 q 236 444 242 468 l 208 444 q 214 389 214 422 q 208 333 214 357 l 347 333 z "},"Ẳ":{"ha":556,"x_min":50,"x_max":506,"o":"m 506 167 q 500 111 506 135 q 506 56 506 89 q 500 0 506 24 l 389 0 q 383 56 383 24 q 389 111 383 89 q 383 167 383 135 q 389 222 383 200 l 167 222 q 172 167 172 200 q 167 111 172 135 q 172 56 172 89 q 167 0 172 24 l 56 0 q 50 56 50 24 q 56 111 50 89 q 50 167 50 135 q 56 222 50 200 l 97 222 q 92 278 92 246 q 97 333 92 311 q 92 389 92 357 q 97 444 92 422 l 125 444 q 119 500 119 468 q 125 556 119 533 l 167 556 q 161 611 161 579 q 167 667 161 644 l 194 667 q 189 722 189 690 q 194 778 189 756 l 361 778 q 367 722 367 756 q 361 667 367 690 l 389 667 q 394 611 394 644 q 389 556 394 579 l 431 556 q 436 500 436 533 q 431 444 436 468 l 458 444 q 464 389 464 422 q 458 333 464 357 q 464 278 464 311 q 458 222 464 246 l 500 222 q 506 167 506 200 m 347 333 q 342 389 342 357 q 347 444 342 422 l 319 444 q 314 500 314 468 q 319 556 314 533 l 236 556 q 242 500 242 533 q 236 444 242 468 l 208 444 q 214 389 214 422 q 208 333 214 357 l 347 333 m 222 1222 q 217 1278 217 1246 q 222 1333 217 1311 l 333 1333 q 339 1278 339 1311 q 333 1222 339 1246 q 339 1167 339 1200 q 333 1111 339 1135 l 278 1111 q 272 1167 272 1135 q 278 1222 272 1200 l 222 1222 m 167 1111 q 172 1056 172 1089 q 167 1000 172 1024 l 56 1000 q 50 1056 50 1024 q 56 1111 50 1089 l 167 1111 m 506 1056 q 500 1000 506 1024 l 389 1000 q 383 1056 383 1024 q 389 1111 383 1089 l 500 1111 q 506 1056 506 1089 m 161 944 q 167 1000 161 978 l 389 1000 q 394 944 394 978 q 389 889 394 913 l 167 889 q 161 944 161 913 z "},"Ẵ":{"ha":556,"x_min":50,"x_max":506,"o":"m 506 167 q 500 111 506 135 q 506 56 506 89 q 500 0 506 24 l 389 0 q 383 56 383 24 q 389 111 383 89 q 383 167 383 135 q 389 222 383 200 l 167 222 q 172 167 172 200 q 167 111 172 135 q 172 56 172 89 q 167 0 172 24 l 56 0 q 50 56 50 24 q 56 111 50 89 q 50 167 50 135 q 56 222 50 200 l 97 222 q 92 278 92 246 q 97 333 92 311 q 92 389 92 357 q 97 444 92 422 l 125 444 q 119 500 119 468 q 125 556 119 533 l 167 556 q 161 611 161 579 q 167 667 161 644 l 194 667 q 189 722 189 690 q 194 778 189 756 l 361 778 q 367 722 367 756 q 361 667 367 690 l 389 667 q 394 611 394 644 q 389 556 394 579 l 431 556 q 436 500 436 533 q 431 444 436 468 l 458 444 q 464 389 464 422 q 458 333 464 357 q 464 278 464 311 q 458 222 464 246 l 500 222 q 506 167 506 200 m 347 333 q 342 389 342 357 q 347 444 342 422 l 319 444 q 314 500 314 468 q 319 556 314 533 l 236 556 q 242 500 242 533 q 236 444 242 468 l 208 444 q 214 389 214 422 q 208 333 214 357 l 347 333 m 167 1111 q 172 1056 172 1089 q 167 1000 172 1024 l 56 1000 q 50 1056 50 1024 q 56 1111 50 1089 l 167 1111 m 500 1111 q 506 1056 506 1089 q 500 1000 506 1024 l 389 1000 q 383 1056 383 1024 q 389 1111 383 1089 l 500 1111 m 389 1000 q 394 944 394 978 q 389 889 394 913 l 167 889 q 161 944 161 913 q 167 1000 161 978 l 389 1000 m 311 1389 q 306 1333 311 1357 l 417 1333 q 422 1278 422 1311 q 417 1222 422 1246 l 250 1222 q 244 1278 244 1246 q 250 1333 244 1311 l 139 1333 q 133 1389 133 1357 q 139 1444 133 1422 l 306 1444 q 311 1389 311 1422 m 506 1389 q 500 1333 506 1357 l 417 1333 q 411 1389 411 1357 q 417 1444 411 1422 l 500 1444 q 506 1389 506 1422 m 50 1278 q 56 1333 50 1311 l 139 1333 q 144 1278 144 1311 q 139 1222 144 1246 l 56 1222 q 50 1278 50 1246 z "},"Â":{"ha":556,"x_min":50,"x_max":506,"o":"m 506 167 q 500 111 506 135 q 506 56 506 89 q 500 0 506 24 l 389 0 q 383 56 383 24 q 389 111 383 89 q 383 167 383 135 q 389 222 383 200 l 167 222 q 172 167 172 200 q 167 111 172 135 q 172 56 172 89 q 167 0 172 24 l 56 0 q 50 56 50 24 q 56 111 50 89 q 50 167 50 135 q 56 222 50 200 l 97 222 q 92 278 92 246 q 97 333 92 311 q 92 389 92 357 q 97 444 92 422 l 125 444 q 119 500 119 468 q 125 556 119 533 l 167 556 q 161 611 161 579 q 167 667 161 644 l 194 667 q 189 722 189 690 q 194 778 189 756 l 361 778 q 367 722 367 756 q 361 667 367 690 l 389 667 q 394 611 394 644 q 389 556 394 579 l 431 556 q 436 500 436 533 q 431 444 436 468 l 458 444 q 464 389 464 422 q 458 333 464 357 q 464 278 464 311 q 458 222 464 246 l 500 222 q 506 167 506 200 m 347 333 q 342 389 342 357 q 347 444 342 422 l 319 444 q 314 500 314 468 q 319 556 314 533 l 236 556 q 242 500 242 533 q 236 444 242 468 l 208 444 q 214 389 214 422 q 208 333 214 357 l 347 333 m 431 1000 q 436 944 436 978 q 431 889 436 913 l 319 889 q 314 944 314 913 q 319 1000 314 978 l 236 1000 q 242 944 242 978 q 236 889 242 913 l 125 889 q 119 944 119 913 q 125 1000 119 978 l 194 1000 q 189 1056 189 1024 q 194 1111 189 1089 l 361 1111 q 367 1056 367 1089 q 361 1000 367 1024 l 431 1000 z "},"Ấ":{"ha":556,"x_min":50,"x_max":561,"o":"m 561 1278 q 556 1222 561 1246 l 500 1222 q 506 1167 506 1200 q 500 1111 506 1135 l 389 1111 q 383 1167 383 1135 q 389 1222 383 1200 l 444 1222 q 439 1278 439 1246 q 444 1333 439 1311 l 556 1333 q 561 1278 561 1311 m 125 889 q 119 944 119 913 q 125 1000 119 978 l 194 1000 q 189 1056 189 1024 q 194 1111 189 1089 l 361 1111 q 367 1056 367 1089 q 361 1000 367 1024 l 431 1000 q 436 944 436 978 q 431 889 436 913 l 319 889 q 314 944 314 913 q 319 1000 314 978 l 236 1000 q 242 944 242 978 q 236 889 242 913 l 125 889 m 500 222 q 506 167 506 200 q 500 111 506 135 q 506 56 506 89 q 500 0 506 24 l 389 0 q 383 56 383 24 q 389 111 383 89 q 383 167 383 135 q 389 222 383 200 l 167 222 q 172 167 172 200 q 167 111 172 135 q 172 56 172 89 q 167 0 172 24 l 56 0 q 50 56 50 24 q 56 111 50 89 q 50 167 50 135 q 56 222 50 200 l 97 222 q 92 278 92 246 q 97 333 92 311 q 92 389 92 357 q 97 444 92 422 l 125 444 q 119 500 119 468 q 125 556 119 533 l 167 556 q 161 611 161 579 q 167 667 161 644 l 194 667 q 189 722 189 690 q 194 778 189 756 l 361 778 q 367 722 367 756 q 361 667 367 690 l 389 667 q 394 611 394 644 q 389 556 394 579 l 431 556 q 436 500 436 533 q 431 444 436 468 l 458 444 q 464 389 464 422 q 458 333 464 357 q 464 278 464 311 q 458 222 464 246 l 500 222 m 347 333 q 342 389 342 357 q 347 444 342 422 l 319 444 q 314 500 314 468 q 319 556 314 533 l 236 556 q 242 500 242 533 q 236 444 242 468 l 208 444 q 214 389 214 422 q 208 333 214 357 l 347 333 z "},"Ậ":{"ha":556,"x_min":50,"x_max":506,"o":"m 506 167 q 500 111 506 135 q 506 56 506 89 q 500 0 506 24 l 389 0 q 383 56 383 24 q 389 111 383 89 q 383 167 383 135 q 389 222 383 200 l 167 222 q 172 167 172 200 q 167 111 172 135 q 172 56 172 89 q 167 0 172 24 l 56 0 q 50 56 50 24 q 56 111 50 89 q 50 167 50 135 q 56 222 50 200 l 97 222 q 92 278 92 246 q 97 333 92 311 q 92 389 92 357 q 97 444 92 422 l 125 444 q 119 500 119 468 q 125 556 119 533 l 167 556 q 161 611 161 579 q 167 667 161 644 l 194 667 q 189 722 189 690 q 194 778 189 756 l 361 778 q 367 722 367 756 q 361 667 367 690 l 389 667 q 394 611 394 644 q 389 556 394 579 l 431 556 q 436 500 436 533 q 431 444 436 468 l 458 444 q 464 389 464 422 q 458 333 464 357 q 464 278 464 311 q 458 222 464 246 l 500 222 q 506 167 506 200 m 347 333 q 342 389 342 357 q 347 444 342 422 l 319 444 q 314 500 314 468 q 319 556 314 533 l 236 556 q 242 500 242 533 q 236 444 242 468 l 208 444 q 214 389 214 422 q 208 333 214 357 l 347 333 m 333 -111 q 339 -167 339 -133 q 333 -222 339 -199 l 222 -222 q 217 -167 217 -199 q 222 -111 217 -133 l 333 -111 m 431 1000 q 436 944 436 978 q 431 889 436 913 l 319 889 q 314 944 314 913 q 319 1000 314 978 l 236 1000 q 242 944 242 978 q 236 889 242 913 l 125 889 q 119 944 119 913 q 125 1000 119 978 l 194 1000 q 189 1056 189 1024 q 194 1111 189 1089 l 361 1111 q 367 1056 367 1089 q 361 1000 367 1024 l 431 1000 z "},"Ầ":{"ha":556,"x_min":-6,"x_max":506,"o":"m 50 1167 q 56 1222 50 1200 l 0 1222 q -6 1278 -6 1246 q 0 1333 -6 1311 l 111 1333 q 117 1278 117 1311 q 111 1222 117 1246 l 167 1222 q 172 1167 172 1200 q 167 1111 172 1135 l 56 1111 q 50 1167 50 1135 m 194 1000 q 189 1056 189 1024 q 194 1111 189 1089 l 361 1111 q 367 1056 367 1089 q 361 1000 367 1024 l 431 1000 q 436 944 436 978 q 431 889 436 913 l 319 889 q 314 944 314 913 q 319 1000 314 978 l 236 1000 q 242 944 242 978 q 236 889 242 913 l 125 889 q 119 944 119 913 q 125 1000 119 978 l 194 1000 m 506 167 q 500 111 506 135 q 506 56 506 89 q 500 0 506 24 l 389 0 q 383 56 383 24 q 389 111 383 89 q 383 167 383 135 q 389 222 383 200 l 167 222 q 172 167 172 200 q 167 111 172 135 q 172 56 172 89 q 167 0 172 24 l 56 0 q 50 56 50 24 q 56 111 50 89 q 50 167 50 135 q 56 222 50 200 l 97 222 q 92 278 92 246 q 97 333 92 311 q 92 389 92 357 q 97 444 92 422 l 125 444 q 119 500 119 468 q 125 556 119 533 l 167 556 q 161 611 161 579 q 167 667 161 644 l 194 667 q 189 722 189 690 q 194 778 189 756 l 361 778 q 367 722 367 756 q 361 667 367 690 l 389 667 q 394 611 394 644 q 389 556 394 579 l 431 556 q 436 500 436 533 q 431 444 436 468 l 458 444 q 464 389 464 422 q 458 333 464 357 q 464 278 464 311 q 458 222 464 246 l 500 222 q 506 167 506 200 m 347 333 q 342 389 342 357 q 347 444 342 422 l 319 444 q 314 500 314 468 q 319 556 314 533 l 236 556 q 242 500 242 533 q 236 444 242 468 l 208 444 q 214 389 214 422 q 208 333 214 357 l 347 333 z "},"Ẩ":{"ha":556,"x_min":50,"x_max":506,"o":"m 506 167 q 500 111 506 135 q 506 56 506 89 q 500 0 506 24 l 389 0 q 383 56 383 24 q 389 111 383 89 q 383 167 383 135 q 389 222 383 200 l 167 222 q 172 167 172 200 q 167 111 172 135 q 172 56 172 89 q 167 0 172 24 l 56 0 q 50 56 50 24 q 56 111 50 89 q 50 167 50 135 q 56 222 50 200 l 97 222 q 92 278 92 246 q 97 333 92 311 q 92 389 92 357 q 97 444 92 422 l 125 444 q 119 500 119 468 q 125 556 119 533 l 167 556 q 161 611 161 579 q 167 667 161 644 l 194 667 q 189 722 189 690 q 194 778 189 756 l 361 778 q 367 722 367 756 q 361 667 367 690 l 389 667 q 394 611 394 644 q 389 556 394 579 l 431 556 q 436 500 436 533 q 431 444 436 468 l 458 444 q 464 389 464 422 q 458 333 464 357 q 464 278 464 311 q 458 222 464 246 l 500 222 q 506 167 506 200 m 347 333 q 342 389 342 357 q 347 444 342 422 l 319 444 q 314 500 314 468 q 319 556 314 533 l 236 556 q 242 500 242 533 q 236 444 242 468 l 208 444 q 214 389 214 422 q 208 333 214 357 l 347 333 m 506 1278 q 500 1222 506 1246 q 506 1167 506 1200 q 500 1111 506 1135 l 444 1111 q 439 1167 439 1135 q 444 1222 439 1200 l 389 1222 q 383 1278 383 1246 q 389 1333 383 1311 l 500 1333 q 506 1278 506 1311 m 431 1000 q 436 944 436 978 q 431 889 436 913 l 319 889 q 314 944 314 913 q 319 1000 314 978 l 236 1000 q 242 944 242 978 q 236 889 242 913 l 125 889 q 119 944 119 913 q 125 1000 119 978 l 194 1000 q 189 1056 189 1024 q 194 1111 189 1089 l 361 1111 q 367 1056 367 1089 q 361 1000 367 1024 l 431 1000 z "},"Ẫ":{"ha":556,"x_min":50,"x_max":506,"o":"m 506 167 q 500 111 506 135 q 506 56 506 89 q 500 0 506 24 l 389 0 q 383 56 383 24 q 389 111 383 89 q 383 167 383 135 q 389 222 383 200 l 167 222 q 172 167 172 200 q 167 111 172 135 q 172 56 172 89 q 167 0 172 24 l 56 0 q 50 56 50 24 q 56 111 50 89 q 50 167 50 135 q 56 222 50 200 l 97 222 q 92 278 92 246 q 97 333 92 311 q 92 389 92 357 q 97 444 92 422 l 125 444 q 119 500 119 468 q 125 556 119 533 l 167 556 q 161 611 161 579 q 167 667 161 644 l 194 667 q 189 722 189 690 q 194 778 189 756 l 361 778 q 367 722 367 756 q 361 667 367 690 l 389 667 q 394 611 394 644 q 389 556 394 579 l 431 556 q 436 500 436 533 q 431 444 436 468 l 458 444 q 464 389 464 422 q 458 333 464 357 q 464 278 464 311 q 458 222 464 246 l 500 222 q 506 167 506 200 m 347 333 q 342 389 342 357 q 347 444 342 422 l 319 444 q 314 500 314 468 q 319 556 314 533 l 236 556 q 242 500 242 533 q 236 444 242 468 l 208 444 q 214 389 214 422 q 208 333 214 357 l 347 333 m 431 1000 q 436 944 436 978 q 431 889 436 913 l 319 889 q 314 944 314 913 q 319 1000 314 978 l 236 1000 q 242 944 242 978 q 236 889 242 913 l 125 889 q 119 944 119 913 q 125 1000 119 978 l 194 1000 q 189 1056 189 1024 q 194 1111 189 1089 l 361 1111 q 367 1056 367 1089 q 361 1000 367 1024 l 431 1000 m 311 1389 q 306 1333 311 1357 l 417 1333 q 422 1278 422 1311 q 417 1222 422 1246 l 250 1222 q 244 1278 244 1246 q 250 1333 244 1311 l 139 1333 q 133 1389 133 1357 q 139 1444 133 1422 l 306 1444 q 311 1389 311 1422 m 506 1389 q 500 1333 506 1357 l 417 1333 q 411 1389 411 1357 q 417 1444 411 1422 l 500 1444 q 506 1389 506 1422 m 50 1278 q 56 1333 50 1311 l 139 1333 q 144 1278 144 1311 q 139 1222 144 1246 l 56 1222 q 50 1278 50 1246 z "},"Ȁ":{"ha":556,"x_min":50,"x_max":506,"o":"m 506 167 q 500 111 506 135 q 506 56 506 89 q 500 0 506 24 l 389 0 q 383 56 383 24 q 389 111 383 89 q 383 167 383 135 q 389 222 383 200 l 167 222 q 172 167 172 200 q 167 111 172 135 q 172 56 172 89 q 167 0 172 24 l 56 0 q 50 56 50 24 q 56 111 50 89 q 50 167 50 135 q 56 222 50 200 l 97 222 q 92 278 92 246 q 97 333 92 311 q 92 389 92 357 q 97 444 92 422 l 125 444 q 119 500 119 468 q 125 556 119 533 l 167 556 q 161 611 161 579 q 167 667 161 644 l 194 667 q 189 722 189 690 q 194 778 189 756 l 361 778 q 367 722 367 756 q 361 667 367 690 l 389 667 q 394 611 394 644 q 389 556 394 579 l 431 556 q 436 500 436 533 q 431 444 436 468 l 458 444 q 464 389 464 422 q 458 333 464 357 q 464 278 464 311 q 458 222 464 246 l 500 222 q 506 167 506 200 m 347 333 q 342 389 342 357 q 347 444 342 422 l 319 444 q 314 500 314 468 q 319 556 314 533 l 236 556 q 242 500 242 533 q 236 444 242 468 l 208 444 q 214 389 214 422 q 208 333 214 357 l 347 333 m 236 1000 q 242 944 242 978 q 236 889 242 913 l 153 889 q 147 944 147 913 q 153 1000 147 978 l 111 1000 q 106 1056 106 1024 q 111 1111 106 1089 l 194 1111 q 200 1056 200 1089 q 194 1000 200 1024 l 236 1000 m 403 1000 q 408 944 408 978 q 403 889 408 913 l 319 889 q 314 944 314 913 q 319 1000 314 978 l 278 1000 q 272 1056 272 1024 q 278 1111 272 1089 l 361 1111 q 367 1056 367 1089 q 361 1000 367 1024 l 403 1000 z "},"Ä":{"ha":556,"x_min":50,"x_max":506,"o":"m 111 889 q 106 944 106 913 q 111 1000 106 978 l 222 1000 q 228 944 228 978 q 222 889 228 913 l 111 889 m 333 889 q 328 944 328 913 q 333 1000 328 978 l 444 1000 q 450 944 450 978 q 444 889 450 913 l 333 889 m 506 167 q 500 111 506 135 q 506 56 506 89 q 500 0 506 24 l 389 0 q 383 56 383 24 q 389 111 383 89 q 383 167 383 135 q 389 222 383 200 l 167 222 q 172 167 172 200 q 167 111 172 135 q 172 56 172 89 q 167 0 172 24 l 56 0 q 50 56 50 24 q 56 111 50 89 q 50 167 50 135 q 56 222 50 200 l 97 222 q 92 278 92 246 q 97 333 92 311 q 92 389 92 357 q 97 444 92 422 l 125 444 q 119 500 119 468 q 125 556 119 533 l 167 556 q 161 611 161 579 q 167 667 161 644 l 194 667 q 189 722 189 690 q 194 778 189 756 l 361 778 q 367 722 367 756 q 361 667 367 690 l 389 667 q 394 611 394 644 q 389 556 394 579 l 431 556 q 436 500 436 533 q 431 444 436 468 l 458 444 q 464 389 464 422 q 458 333 464 357 q 464 278 464 311 q 458 222 464 246 l 500 222 q 506 167 506 200 m 347 333 q 342 389 342 357 q 347 444 342 422 l 319 444 q 314 500 314 468 q 319 556 314 533 l 236 556 q 242 500 242 533 q 236 444 242 468 l 208 444 q 214 389 214 422 q 208 333 214 357 l 347 333 z "},"Ạ":{"ha":556,"x_min":50,"x_max":506,"o":"m 506 167 q 500 111 506 135 q 506 56 506 89 q 500 0 506 24 l 389 0 q 383 56 383 24 q 389 111 383 89 q 383 167 383 135 q 389 222 383 200 l 167 222 q 172 167 172 200 q 167 111 172 135 q 172 56 172 89 q 167 0 172 24 l 56 0 q 50 56 50 24 q 56 111 50 89 q 50 167 50 135 q 56 222 50 200 l 97 222 q 92 278 92 246 q 97 333 92 311 q 92 389 92 357 q 97 444 92 422 l 125 444 q 119 500 119 468 q 125 556 119 533 l 167 556 q 161 611 161 579 q 167 667 161 644 l 194 667 q 189 722 189 690 q 194 778 189 756 l 361 778 q 367 722 367 756 q 361 667 367 690 l 389 667 q 394 611 394 644 q 389 556 394 579 l 431 556 q 436 500 436 533 q 431 444 436 468 l 458 444 q 464 389 464 422 q 458 333 464 357 q 464 278 464 311 q 458 222 464 246 l 500 222 q 506 167 506 200 m 347 333 q 342 389 342 357 q 347 444 342 422 l 319 444 q 314 500 314 468 q 319 556 314 533 l 236 556 q 242 500 242 533 q 236 444 242 468 l 208 444 q 214 389 214 422 q 208 333 214 357 l 347 333 m 333 -111 q 339 -167 339 -133 q 333 -222 339 -199 l 222 -222 q 217 -167 217 -199 q 222 -111 217 -133 l 333 -111 z "},"À":{"ha":556,"x_min":50,"x_max":506,"o":"m 167 1000 q 161 1056 161 1024 q 167 1111 161 1089 l 278 1111 q 283 1056 283 1089 q 278 1000 283 1024 l 333 1000 q 339 944 339 978 q 333 889 339 913 l 222 889 q 217 944 217 913 q 222 1000 217 978 l 167 1000 m 506 167 q 500 111 506 135 q 506 56 506 89 q 500 0 506 24 l 389 0 q 383 56 383 24 q 389 111 383 89 q 383 167 383 135 q 389 222 383 200 l 167 222 q 172 167 172 200 q 167 111 172 135 q 172 56 172 89 q 167 0 172 24 l 56 0 q 50 56 50 24 q 56 111 50 89 q 50 167 50 135 q 56 222 50 200 l 97 222 q 92 278 92 246 q 97 333 92 311 q 92 389 92 357 q 97 444 92 422 l 125 444 q 119 500 119 468 q 125 556 119 533 l 167 556 q 161 611 161 579 q 167 667 161 644 l 194 667 q 189 722 189 690 q 194 778 189 756 l 361 778 q 367 722 367 756 q 361 667 367 690 l 389 667 q 394 611 394 644 q 389 556 394 579 l 431 556 q 436 500 436 533 q 431 444 436 468 l 458 444 q 464 389 464 422 q 458 333 464 357 q 464 278 464 311 q 458 222 464 246 l 500 222 q 506 167 506 200 m 347 333 q 342 389 342 357 q 347 444 342 422 l 319 444 q 314 500 314 468 q 319 556 314 533 l 236 556 q 242 500 242 533 q 236 444 242 468 l 208 444 q 214 389 214 422 q 208 333 214 357 l 347 333 z "},"Ả":{"ha":556,"x_min":50,"x_max":506,"o":"m 506 167 q 500 111 506 135 q 506 56 506 89 q 500 0 506 24 l 389 0 q 383 56 383 24 q 389 111 383 89 q 383 167 383 135 q 389 222 383 200 l 167 222 q 172 167 172 200 q 167 111 172 135 q 172 56 172 89 q 167 0 172 24 l 56 0 q 50 56 50 24 q 56 111 50 89 q 50 167 50 135 q 56 222 50 200 l 97 222 q 92 278 92 246 q 97 333 92 311 q 92 389 92 357 q 97 444 92 422 l 125 444 q 119 500 119 468 q 125 556 119 533 l 167 556 q 161 611 161 579 q 167 667 161 644 l 194 667 q 189 722 189 690 q 194 778 189 756 l 361 778 q 367 722 367 756 q 361 667 367 690 l 389 667 q 394 611 394 644 q 389 556 394 579 l 431 556 q 436 500 436 533 q 431 444 436 468 l 458 444 q 464 389 464 422 q 458 333 464 357 q 464 278 464 311 q 458 222 464 246 l 500 222 q 506 167 506 200 m 347 333 q 342 389 342 357 q 347 444 342 422 l 319 444 q 314 500 314 468 q 319 556 314 533 l 236 556 q 242 500 242 533 q 236 444 242 468 l 208 444 q 214 389 214 422 q 208 333 214 357 l 347 333 m 339 1056 q 333 1000 339 1024 q 339 944 339 978 q 333 889 339 913 l 278 889 q 272 944 272 913 q 278 1000 272 978 l 222 1000 q 217 1056 217 1024 q 222 1111 217 1089 l 333 1111 q 339 1056 339 1089 z "},"Ȃ":{"ha":556,"x_min":50,"x_max":506,"o":"m 506 167 q 500 111 506 135 q 506 56 506 89 q 500 0 506 24 l 389 0 q 383 56 383 24 q 389 111 383 89 q 383 167 383 135 q 389 222 383 200 l 167 222 q 172 167 172 200 q 167 111 172 135 q 172 56 172 89 q 167 0 172 24 l 56 0 q 50 56 50 24 q 56 111 50 89 q 50 167 50 135 q 56 222 50 200 l 97 222 q 92 278 92 246 q 97 333 92 311 q 92 389 92 357 q 97 444 92 422 l 125 444 q 119 500 119 468 q 125 556 119 533 l 167 556 q 161 611 161 579 q 167 667 161 644 l 194 667 q 189 722 189 690 q 194 778 189 756 l 361 778 q 367 722 367 756 q 361 667 367 690 l 389 667 q 394 611 394 644 q 389 556 394 579 l 431 556 q 436 500 436 533 q 431 444 436 468 l 458 444 q 464 389 464 422 q 458 333 464 357 q 464 278 464 311 q 458 222 464 246 l 500 222 q 506 167 506 200 m 347 333 q 342 389 342 357 q 347 444 342 422 l 319 444 q 314 500 314 468 q 319 556 314 533 l 236 556 q 242 500 242 533 q 236 444 242 468 l 208 444 q 214 389 214 422 q 208 333 214 357 l 347 333 m 389 1111 q 394 1056 394 1089 q 389 1000 394 1024 l 167 1000 q 161 1056 161 1024 q 167 1111 161 1089 l 389 1111 m 167 1000 q 172 944 172 978 q 167 889 172 913 l 56 889 q 50 944 50 913 q 56 1000 50 978 l 167 1000 m 500 1000 q 506 944 506 978 q 500 889 506 913 l 389 889 q 383 944 383 913 q 389 1000 383 978 l 500 1000 z "},"Ā":{"ha":556,"x_min":50,"x_max":506,"o":"m 506 167 q 500 111 506 135 q 506 56 506 89 q 500 0 506 24 l 389 0 q 383 56 383 24 q 389 111 383 89 q 383 167 383 135 q 389 222 383 200 l 167 222 q 172 167 172 200 q 167 111 172 135 q 172 56 172 89 q 167 0 172 24 l 56 0 q 50 56 50 24 q 56 111 50 89 q 50 167 50 135 q 56 222 50 200 l 97 222 q 92 278 92 246 q 97 333 92 311 q 92 389 92 357 q 97 444 92 422 l 125 444 q 119 500 119 468 q 125 556 119 533 l 167 556 q 161 611 161 579 q 167 667 161 644 l 194 667 q 189 722 189 690 q 194 778 189 756 l 361 778 q 367 722 367 756 q 361 667 367 690 l 389 667 q 394 611 394 644 q 389 556 394 579 l 431 556 q 436 500 436 533 q 431 444 436 468 l 458 444 q 464 389 464 422 q 458 333 464 357 q 464 278 464 311 q 458 222 464 246 l 500 222 q 506 167 506 200 m 347 333 q 342 389 342 357 q 347 444 342 422 l 319 444 q 314 500 314 468 q 319 556 314 533 l 236 556 q 242 500 242 533 q 236 444 242 468 l 208 444 q 214 389 214 422 q 208 333 214 357 l 347 333 m 444 1000 q 450 944 450 978 q 444 889 450 913 l 111 889 q 106 944 106 913 q 111 1000 106 978 l 444 1000 z "},"Ą":{"ha":556,"x_min":50,"x_max":547,"o":"m 506 167 q 500 111 506 135 q 506 56 506 89 q 500 0 506 24 l 389 0 q 383 56 383 24 q 389 111 383 89 q 383 167 383 135 q 389 222 383 200 l 167 222 q 172 167 172 200 q 167 111 172 135 q 172 56 172 89 q 167 0 172 24 l 56 0 q 50 56 50 24 q 56 111 50 89 q 50 167 50 135 q 56 222 50 200 l 97 222 q 92 278 92 246 q 97 333 92 311 q 92 389 92 357 q 97 444 92 422 l 125 444 q 119 500 119 468 q 125 556 119 533 l 167 556 q 161 611 161 579 q 167 667 161 644 l 194 667 q 189 722 189 690 q 194 778 189 756 l 361 778 q 367 722 367 756 q 361 667 367 690 l 389 667 q 394 611 394 644 q 389 556 394 579 l 431 556 q 436 500 436 533 q 431 444 436 468 l 458 444 q 464 389 464 422 q 458 333 464 357 q 464 278 464 311 q 458 222 464 246 l 500 222 q 506 167 506 200 m 347 333 q 342 389 342 357 q 347 444 342 422 l 319 444 q 314 500 314 468 q 319 556 314 533 l 236 556 q 242 500 242 533 q 236 444 242 468 l 208 444 q 214 389 214 422 q 208 333 214 357 l 347 333 m 542 -111 q 547 -167 547 -133 q 542 -222 547 -199 l 431 -222 q 425 -167 425 -199 q 431 -111 425 -133 l 389 -111 q 383 -56 383 -87 q 389 0 383 -22 l 472 0 q 478 -56 478 -22 q 472 -111 478 -87 l 542 -111 z "},"Å":{"ha":556,"x_min":50,"x_max":506,"o":"m 506 167 q 500 111 506 135 q 506 56 506 89 q 500 0 506 24 l 389 0 q 383 56 383 24 q 389 111 383 89 q 383 167 383 135 q 389 222 383 200 l 167 222 q 172 167 172 200 q 167 111 172 135 q 172 56 172 89 q 167 0 172 24 l 56 0 q 50 56 50 24 q 56 111 50 89 q 50 167 50 135 q 56 222 50 200 l 97 222 q 92 278 92 246 q 97 333 92 311 q 92 389 92 357 q 97 444 92 422 l 125 444 q 119 500 119 468 q 125 556 119 533 l 167 556 q 161 611 161 579 q 167 667 161 644 l 194 667 q 189 722 189 690 q 194 778 189 756 l 361 778 q 367 722 367 756 q 361 667 367 690 l 389 667 q 394 611 394 644 q 389 556 394 579 l 431 556 q 436 500 436 533 q 431 444 436 468 l 458 444 q 464 389 464 422 q 458 333 464 357 q 464 278 464 311 q 458 222 464 246 l 500 222 q 506 167 506 200 m 347 333 q 342 389 342 357 q 347 444 342 422 l 319 444 q 314 500 314 468 q 319 556 314 533 l 236 556 q 242 500 242 533 q 236 444 242 468 l 208 444 q 214 389 214 422 q 208 333 214 357 l 347 333 m 436 1056 q 431 1000 436 1024 l 389 1000 q 394 944 394 978 q 389 889 394 913 l 167 889 q 161 944 161 913 q 167 1000 161 978 l 125 1000 q 119 1056 119 1024 q 125 1111 119 1089 l 167 1111 q 161 1167 161 1135 q 167 1222 161 1200 l 389 1222 q 394 1167 394 1200 q 389 1111 394 1135 l 431 1111 q 436 1056 436 1089 m 347 1000 q 342 1056 342 1024 q 347 1111 342 1089 l 208 1111 q 214 1056 214 1089 q 208 1000 214 1024 l 347 1000 z "},"Ǻ":{"ha":556,"x_min":50,"x_max":561,"o":"m 561 1389 q 556 1333 561 1357 l 500 1333 q 506 1278 506 1311 q 500 1222 506 1246 l 389 1222 q 383 1278 383 1246 q 389 1333 383 1311 l 444 1333 q 439 1389 439 1357 q 444 1444 439 1422 l 556 1444 q 561 1389 561 1422 m 161 1167 q 167 1222 161 1200 l 389 1222 q 394 1167 394 1200 q 389 1111 394 1135 l 431 1111 q 436 1056 436 1089 q 431 1000 436 1024 l 389 1000 q 394 944 394 978 q 389 889 394 913 l 167 889 q 161 944 161 913 q 167 1000 161 978 l 125 1000 q 119 1056 119 1024 q 125 1111 119 1089 l 167 1111 q 161 1167 161 1135 m 208 1111 q 214 1056 214 1089 q 208 1000 214 1024 l 347 1000 q 342 1056 342 1024 q 347 1111 342 1089 l 208 1111 m 500 222 q 506 167 506 200 q 500 111 506 135 q 506 56 506 89 q 500 0 506 24 l 389 0 q 383 56 383 24 q 389 111 383 89 q 383 167 383 135 q 389 222 383 200 l 167 222 q 172 167 172 200 q 167 111 172 135 q 172 56 172 89 q 167 0 172 24 l 56 0 q 50 56 50 24 q 56 111 50 89 q 50 167 50 135 q 56 222 50 200 l 97 222 q 92 278 92 246 q 97 333 92 311 q 92 389 92 357 q 97 444 92 422 l 125 444 q 119 500 119 468 q 125 556 119 533 l 167 556 q 161 611 161 579 q 167 667 161 644 l 194 667 q 189 722 189 690 q 194 778 189 756 l 361 778 q 367 722 367 756 q 361 667 367 690 l 389 667 q 394 611 394 644 q 389 556 394 579 l 431 556 q 436 500 436 533 q 431 444 436 468 l 458 444 q 464 389 464 422 q 458 333 464 357 q 464 278 464 311 q 458 222 464 246 l 500 222 m 347 333 q 342 389 342 357 q 347 444 342 422 l 319 444 q 314 500 314 468 q 319 556 314 533 l 236 556 q 242 500 242 533 q 236 444 242 468 l 208 444 q 214 389 214 422 q 208 333 214 357 l 347 333 z "},"Ã":{"ha":556,"x_min":50,"x_max":506,"o":"m 506 167 q 500 111 506 135 q 506 56 506 89 q 500 0 506 24 l 389 0 q 383 56 383 24 q 389 111 383 89 q 383 167 383 135 q 389 222 383 200 l 167 222 q 172 167 172 200 q 167 111 172 135 q 172 56 172 89 q 167 0 172 24 l 56 0 q 50 56 50 24 q 56 111 50 89 q 50 167 50 135 q 56 222 50 200 l 97 222 q 92 278 92 246 q 97 333 92 311 q 92 389 92 357 q 97 444 92 422 l 125 444 q 119 500 119 468 q 125 556 119 533 l 167 556 q 161 611 161 579 q 167 667 161 644 l 194 667 q 189 722 189 690 q 194 778 189 756 l 361 778 q 367 722 367 756 q 361 667 367 690 l 389 667 q 394 611 394 644 q 389 556 394 579 l 431 556 q 436 500 436 533 q 431 444 436 468 l 458 444 q 464 389 464 422 q 458 333 464 357 q 464 278 464 311 q 458 222 464 246 l 500 222 q 506 167 506 200 m 347 333 q 342 389 342 357 q 347 444 342 422 l 319 444 q 314 500 314 468 q 319 556 314 533 l 236 556 q 242 500 242 533 q 236 444 242 468 l 208 444 q 214 389 214 422 q 208 333 214 357 l 347 333 m 311 1056 q 306 1000 311 1024 l 417 1000 q 422 944 422 978 q 417 889 422 913 l 250 889 q 244 944 244 913 q 250 1000 244 978 l 139 1000 q 133 1056 133 1024 q 139 1111 133 1089 l 306 1111 q 311 1056 311 1089 m 506 1056 q 500 1000 506 1024 l 417 1000 q 411 1056 411 1024 q 417 1111 411 1089 l 500 1111 q 506 1056 506 1089 m 50 944 q 56 1000 50 978 l 139 1000 q 144 944 144 978 q 139 889 144 913 l 56 889 q 50 944 50 913 z "},"Æ":{"ha":556,"x_min":50,"x_max":506,"o":"m 506 389 q 500 333 506 357 l 389 333 q 394 278 394 311 q 389 222 394 246 q 394 167 394 200 q 389 111 394 135 l 500 111 q 506 56 506 89 q 500 0 506 24 l 278 0 q 272 56 272 24 q 278 111 272 89 q 272 167 272 135 q 278 222 272 200 l 167 222 q 172 167 172 200 q 167 111 172 135 q 172 56 172 89 q 167 0 172 24 l 56 0 q 50 56 50 24 q 56 111 50 89 q 50 167 50 135 q 56 222 50 200 q 50 278 50 246 q 56 333 50 311 l 83 333 q 78 389 78 357 q 83 444 78 422 q 78 500 78 468 q 83 556 78 533 l 111 556 q 106 611 106 579 q 111 667 106 644 l 139 667 q 133 722 133 690 q 139 778 133 756 l 500 778 q 506 722 506 756 q 500 667 506 690 l 389 667 q 394 611 394 644 q 389 556 394 579 q 394 500 394 533 q 389 444 394 468 l 500 444 q 506 389 506 422 m 278 333 q 272 389 272 357 q 278 444 272 422 q 272 500 272 468 q 278 556 272 533 q 272 611 272 579 q 278 667 272 644 l 194 667 q 200 611 200 644 q 194 556 200 579 q 200 500 200 533 q 194 444 200 468 q 200 389 200 422 q 194 333 200 357 l 278 333 z "},"Ǽ":{"ha":556,"x_min":50,"x_max":506,"o":"m 222 889 q 217 944 217 913 q 222 1000 217 978 l 278 1000 q 272 1056 272 1024 q 278 1111 272 1089 l 389 1111 q 394 1056 394 1089 q 389 1000 394 1024 l 333 1000 q 339 944 339 978 q 333 889 339 913 l 222 889 m 506 389 q 500 333 506 357 l 389 333 q 394 278 394 311 q 389 222 394 246 q 394 167 394 200 q 389 111 394 135 l 500 111 q 506 56 506 89 q 500 0 506 24 l 278 0 q 272 56 272 24 q 278 111 272 89 q 272 167 272 135 q 278 222 272 200 l 167 222 q 172 167 172 200 q 167 111 172 135 q 172 56 172 89 q 167 0 172 24 l 56 0 q 50 56 50 24 q 56 111 50 89 q 50 167 50 135 q 56 222 50 200 q 50 278 50 246 q 56 333 50 311 l 83 333 q 78 389 78 357 q 83 444 78 422 q 78 500 78 468 q 83 556 78 533 l 111 556 q 106 611 106 579 q 111 667 106 644 l 139 667 q 133 722 133 690 q 139 778 133 756 l 500 778 q 506 722 506 756 q 500 667 506 690 l 389 667 q 394 611 394 644 q 389 556 394 579 q 394 500 394 533 q 389 444 394 468 l 500 444 q 506 389 506 422 m 278 333 q 272 389 272 357 q 278 444 272 422 q 272 500 272 468 q 278 556 272 533 q 272 611 272 579 q 278 667 272 644 l 194 667 q 200 611 200 644 q 194 556 200 579 q 200 500 200 533 q 194 444 200 468 q 200 389 200 422 q 194 333 200 357 l 278 333 z "},"B":{"ha":556,"x_min":50,"x_max":506,"o":"m 506 500 q 500 444 506 468 l 444 444 q 450 389 450 422 q 444 333 450 357 l 500 333 q 506 278 506 311 q 500 222 506 246 q 506 167 506 200 q 500 111 506 135 l 444 111 q 450 56 450 89 q 444 0 450 24 l 56 0 q 50 56 50 24 q 56 111 50 89 q 50 167 50 135 q 56 222 50 200 q 50 278 50 246 q 56 333 50 311 q 50 389 50 357 q 56 444 50 422 q 50 500 50 468 q 56 556 50 533 q 50 611 50 579 q 56 667 50 644 q 50 722 50 690 q 56 778 50 756 l 444 778 q 450 722 450 756 q 444 667 450 690 l 500 667 q 506 611 506 644 q 500 556 506 579 q 506 500 506 533 m 389 444 q 383 500 383 468 q 389 556 383 533 q 383 611 383 579 q 389 667 383 644 l 167 667 q 172 611 172 644 q 167 556 172 579 q 172 500 172 533 q 167 444 172 468 l 389 444 m 389 222 q 383 278 383 246 q 389 333 383 311 l 167 333 q 172 278 172 311 q 167 222 172 246 q 172 167 172 200 q 167 111 172 135 l 389 111 q 383 167 383 135 q 389 222 383 200 z "},"C":{"ha":556,"x_min":50,"x_max":506,"o":"m 500 222 q 506 167 506 200 q 500 111 506 135 l 444 111 q 450 56 450 89 q 444 0 450 24 l 167 0 q 161 56 161 24 q 167 111 161 89 l 111 111 q 106 167 106 135 q 111 222 106 200 l 56 222 q 50 278 50 246 q 56 333 50 311 q 50 389 50 357 q 56 444 50 422 q 50 500 50 468 q 56 556 50 533 l 111 556 q 106 611 106 579 q 111 667 106 644 l 167 667 q 161 722 161 690 q 167 778 161 756 l 444 778 q 450 722 450 756 q 444 667 450 690 l 500 667 q 506 611 506 644 q 500 556 506 579 l 389 556 q 383 611 383 579 q 389 667 383 644 l 222 667 q 228 611 228 644 q 222 556 228 579 l 167 556 q 172 500 172 533 q 167 444 172 468 q 172 389 172 422 q 167 333 172 357 q 172 278 172 311 q 167 222 172 246 l 222 222 q 228 167 228 200 q 222 111 228 135 l 389 111 q 383 167 383 135 q 389 222 383 200 l 500 222 z "},"Ć":{"ha":556,"x_min":50,"x_max":506,"o":"m 250 889 q 244 944 244 913 q 250 1000 244 978 l 306 1000 q 300 1056 300 1024 q 306 1111 300 1089 l 417 1111 q 422 1056 422 1089 q 417 1000 422 1024 l 361 1000 q 367 944 367 978 q 361 889 367 913 l 250 889 m 500 222 q 506 167 506 200 q 500 111 506 135 l 444 111 q 450 56 450 89 q 444 0 450 24 l 167 0 q 161 56 161 24 q 167 111 161 89 l 111 111 q 106 167 106 135 q 111 222 106 200 l 56 222 q 50 278 50 246 q 56 333 50 311 q 50 389 50 357 q 56 444 50 422 q 50 500 50 468 q 56 556 50 533 l 111 556 q 106 611 106 579 q 111 667 106 644 l 167 667 q 161 722 161 690 q 167 778 161 756 l 444 778 q 450 722 450 756 q 444 667 450 690 l 500 667 q 506 611 506 644 q 500 556 506 579 l 389 556 q 383 611 383 579 q 389 667 383 644 l 222 667 q 228 611 228 644 q 222 556 228 579 l 167 556 q 172 500 172 533 q 167 444 172 468 q 172 389 172 422 q 167 333 172 357 q 172 278 172 311 q 167 222 172 246 l 222 222 q 228 167 228 200 q 222 111 228 135 l 389 111 q 383 167 383 135 q 389 222 383 200 l 500 222 z "},"Č":{"ha":556,"x_min":50,"x_max":506,"o":"m 500 222 q 506 167 506 200 q 500 111 506 135 l 444 111 q 450 56 450 89 q 444 0 450 24 l 167 0 q 161 56 161 24 q 167 111 161 89 l 111 111 q 106 167 106 135 q 111 222 106 200 l 56 222 q 50 278 50 246 q 56 333 50 311 q 50 389 50 357 q 56 444 50 422 q 50 500 50 468 q 56 556 50 533 l 111 556 q 106 611 106 579 q 111 667 106 644 l 167 667 q 161 722 161 690 q 167 778 161 756 l 444 778 q 450 722 450 756 q 444 667 450 690 l 500 667 q 506 611 506 644 q 500 556 506 579 l 389 556 q 383 611 383 579 q 389 667 383 644 l 222 667 q 228 611 228 644 q 222 556 228 579 l 167 556 q 172 500 172 533 q 167 444 172 468 q 172 389 172 422 q 167 333 172 357 q 172 278 172 311 q 167 222 172 246 l 222 222 q 228 167 228 200 q 222 111 228 135 l 389 111 q 383 167 383 135 q 389 222 383 200 l 500 222 m 464 1056 q 458 1000 464 1024 l 389 1000 q 394 944 394 978 q 389 889 394 913 l 222 889 q 217 944 217 913 q 222 1000 217 978 l 153 1000 q 147 1056 147 1024 q 153 1111 147 1089 l 264 1111 q 269 1056 269 1089 q 264 1000 269 1024 l 347 1000 q 342 1056 342 1024 q 347 1111 342 1089 l 458 1111 q 464 1056 464 1089 z "},"Ç":{"ha":556,"x_min":50,"x_max":506,"o":"m 500 222 q 506 167 506 200 q 500 111 506 135 l 444 111 q 450 56 450 89 q 444 0 450 24 l 167 0 q 161 56 161 24 q 167 111 161 89 l 111 111 q 106 167 106 135 q 111 222 106 200 l 56 222 q 50 278 50 246 q 56 333 50 311 q 50 389 50 357 q 56 444 50 422 q 50 500 50 468 q 56 556 50 533 l 111 556 q 106 611 106 579 q 111 667 106 644 l 167 667 q 161 722 161 690 q 167 778 161 756 l 444 778 q 450 722 450 756 q 444 667 450 690 l 500 667 q 506 611 506 644 q 500 556 506 579 l 389 556 q 383 611 383 579 q 389 667 383 644 l 222 667 q 228 611 228 644 q 222 556 228 579 l 167 556 q 172 500 172 533 q 167 444 172 468 q 172 389 172 422 q 167 333 172 357 q 172 278 172 311 q 167 222 172 246 l 222 222 q 228 167 228 200 q 222 111 228 135 l 389 111 q 383 167 383 135 q 389 222 383 200 l 500 222 m 367 -56 q 361 -111 367 -87 l 319 -111 q 325 -167 325 -133 q 319 -222 325 -199 l 208 -222 q 203 -167 203 -199 q 208 -111 203 -133 l 278 -111 q 272 -56 272 -87 q 278 0 272 -22 l 361 0 q 367 -56 367 -22 z "},"Ĉ":{"ha":556,"x_min":50,"x_max":506,"o":"m 500 222 q 506 167 506 200 q 500 111 506 135 l 444 111 q 450 56 450 89 q 444 0 450 24 l 167 0 q 161 56 161 24 q 167 111 161 89 l 111 111 q 106 167 106 135 q 111 222 106 200 l 56 222 q 50 278 50 246 q 56 333 50 311 q 50 389 50 357 q 56 444 50 422 q 50 500 50 468 q 56 556 50 533 l 111 556 q 106 611 106 579 q 111 667 106 644 l 167 667 q 161 722 161 690 q 167 778 161 756 l 444 778 q 450 722 450 756 q 444 667 450 690 l 500 667 q 506 611 506 644 q 500 556 506 579 l 389 556 q 383 611 383 579 q 389 667 383 644 l 222 667 q 228 611 228 644 q 222 556 228 579 l 167 556 q 172 500 172 533 q 167 444 172 468 q 172 389 172 422 q 167 333 172 357 q 172 278 172 311 q 167 222 172 246 l 222 222 q 228 167 228 200 q 222 111 228 135 l 389 111 q 383 167 383 135 q 389 222 383 200 l 500 222 m 458 1000 q 464 944 464 978 q 458 889 464 913 l 347 889 q 342 944 342 913 q 347 1000 342 978 l 264 1000 q 269 944 269 978 q 264 889 269 913 l 153 889 q 147 944 147 913 q 153 1000 147 978 l 222 1000 q 217 1056 217 1024 q 222 1111 217 1089 l 389 1111 q 394 1056 394 1089 q 389 1000 394 1024 l 458 1000 z "},"Ċ":{"ha":556,"x_min":50,"x_max":506,"o":"m 500 222 q 506 167 506 200 q 500 111 506 135 l 444 111 q 450 56 450 89 q 444 0 450 24 l 167 0 q 161 56 161 24 q 167 111 161 89 l 111 111 q 106 167 106 135 q 111 222 106 200 l 56 222 q 50 278 50 246 q 56 333 50 311 q 50 389 50 357 q 56 444 50 422 q 50 500 50 468 q 56 556 50 533 l 111 556 q 106 611 106 579 q 111 667 106 644 l 167 667 q 161 722 161 690 q 167 778 161 756 l 444 778 q 450 722 450 756 q 444 667 450 690 l 500 667 q 506 611 506 644 q 500 556 506 579 l 389 556 q 383 611 383 579 q 389 667 383 644 l 222 667 q 228 611 228 644 q 222 556 228 579 l 167 556 q 172 500 172 533 q 167 444 172 468 q 172 389 172 422 q 167 333 172 357 q 172 278 172 311 q 167 222 172 246 l 222 222 q 228 167 228 200 q 222 111 228 135 l 389 111 q 383 167 383 135 q 389 222 383 200 l 500 222 m 361 1000 q 367 944 367 978 q 361 889 367 913 l 250 889 q 244 944 244 913 q 250 1000 244 978 l 361 1000 z "},"D":{"ha":556,"x_min":50,"x_max":506,"o":"m 500 444 q 506 389 506 422 q 500 333 506 357 q 506 278 506 311 q 500 222 506 246 l 444 222 q 450 167 450 200 q 444 111 450 135 l 389 111 q 394 56 394 89 q 389 0 394 24 l 56 0 q 50 56 50 24 q 56 111 50 89 q 50 167 50 135 q 56 222 50 200 q 50 278 50 246 q 56 333 50 311 q 50 389 50 357 q 56 444 50 422 q 50 500 50 468 q 56 556 50 533 q 50 611 50 579 q 56 667 50 644 q 50 722 50 690 q 56 778 50 756 l 389 778 q 394 722 394 756 q 389 667 394 690 l 444 667 q 450 611 450 644 q 444 556 450 579 l 500 556 q 506 500 506 533 q 500 444 506 468 m 389 222 q 383 278 383 246 q 389 333 383 311 q 383 389 383 357 q 389 444 383 422 q 383 500 383 468 q 389 556 383 533 l 333 556 q 328 611 328 579 q 333 667 328 644 l 167 667 q 172 611 172 644 q 167 556 172 579 q 172 500 172 533 q 167 444 172 468 q 172 389 172 422 q 167 333 172 357 q 172 278 172 311 q 167 222 172 246 q 172 167 172 200 q 167 111 172 135 l 333 111 q 328 167 328 135 q 333 222 328 200 l 389 222 z "},"Ǆ":{"ha":556,"x_min":50,"x_max":506,"o":"m 125 1000 q 119 1056 119 1024 q 125 1111 119 1089 l 236 1111 q 242 1056 242 1089 q 236 1000 242 1024 l 319 1000 q 314 1056 314 1024 q 319 1111 314 1089 l 431 1111 q 436 1056 436 1089 q 431 1000 436 1024 l 361 1000 q 367 944 367 978 q 361 889 367 913 l 194 889 q 189 944 189 913 q 194 1000 189 978 l 125 1000 m 278 222 q 283 167 283 200 q 278 111 283 135 l 236 111 q 242 56 242 89 q 236 0 242 24 l 56 0 q 50 56 50 24 q 56 111 50 89 q 50 167 50 135 q 56 222 50 200 q 50 278 50 246 q 56 333 50 311 q 50 389 50 357 q 56 444 50 422 q 50 500 50 468 q 56 556 50 533 q 50 611 50 579 q 56 667 50 644 q 50 722 50 690 q 56 778 50 756 l 236 778 q 242 722 242 756 q 236 667 242 690 l 278 667 q 283 611 283 644 q 278 556 283 579 l 319 556 q 325 500 325 533 q 319 444 325 468 q 325 389 325 422 q 319 333 325 357 q 325 278 325 311 q 319 222 325 246 l 278 222 m 500 667 q 506 611 506 644 q 500 556 506 579 q 506 500 506 533 q 500 444 506 468 l 472 444 q 478 389 478 422 q 472 333 478 357 q 478 278 478 311 q 472 222 478 246 l 431 222 q 436 167 436 200 q 431 111 436 135 l 500 111 q 506 56 506 89 q 500 0 506 24 l 319 0 q 314 56 314 24 q 319 111 314 89 l 347 111 q 342 167 342 135 q 347 222 342 200 l 389 222 q 383 278 383 246 q 389 333 383 311 q 383 389 383 357 q 389 444 383 422 l 417 444 q 411 500 411 468 q 417 556 411 533 q 411 611 411 579 q 417 667 411 644 l 319 667 q 314 722 314 690 q 319 778 314 756 l 500 778 q 506 722 506 756 q 500 667 506 690 m 236 222 q 231 278 231 246 q 236 333 231 311 q 231 389 231 357 q 236 444 231 422 q 231 500 231 468 q 236 556 231 533 l 194 556 q 189 611 189 579 q 194 667 189 644 l 139 667 q 144 611 144 644 q 139 556 144 579 q 144 500 144 533 q 139 444 144 468 q 144 389 144 422 q 139 333 144 357 q 144 278 144 311 q 139 222 144 246 q 144 167 144 200 q 139 111 144 135 l 194 111 q 189 167 189 135 q 194 222 189 200 l 236 222 z "},"Ð":{"ha":556,"x_min":50,"x_max":506,"o":"m 500 444 q 506 389 506 422 q 500 333 506 357 q 506 278 506 311 q 500 222 506 246 l 444 222 q 450 167 450 200 q 444 111 450 135 l 389 111 q 394 56 394 89 q 389 0 394 24 l 56 0 q 50 56 50 24 q 56 111 50 89 l 111 111 q 106 167 106 135 q 111 222 106 200 q 106 278 106 246 q 111 333 106 311 l 56 333 q 50 389 50 357 q 56 444 50 422 l 111 444 q 106 500 106 468 q 111 556 106 533 q 106 611 106 579 q 111 667 106 644 l 56 667 q 50 722 50 690 q 56 778 50 756 l 389 778 q 394 722 394 756 q 389 667 394 690 l 444 667 q 450 611 450 644 q 444 556 450 579 l 500 556 q 506 500 506 533 q 500 444 506 468 m 389 222 q 383 278 383 246 q 389 333 383 311 q 383 389 383 357 q 389 444 383 422 q 383 500 383 468 q 389 556 383 533 l 333 556 q 328 611 328 579 q 333 667 328 644 l 222 667 q 228 611 228 644 q 222 556 228 579 q 228 500 228 533 q 222 444 228 468 l 278 444 q 283 389 283 422 q 278 333 283 357 l 222 333 q 228 278 228 311 q 222 222 228 246 q 228 167 228 200 q 222 111 228 135 l 333 111 q 328 167 328 135 q 333 222 328 200 l 389 222 z "},"Ď":{"ha":556,"x_min":50,"x_max":506,"o":"m 500 444 q 506 389 506 422 q 500 333 506 357 q 506 278 506 311 q 500 222 506 246 l 444 222 q 450 167 450 200 q 444 111 450 135 l 389 111 q 394 56 394 89 q 389 0 394 24 l 56 0 q 50 56 50 24 q 56 111 50 89 q 50 167 50 135 q 56 222 50 200 q 50 278 50 246 q 56 333 50 311 q 50 389 50 357 q 56 444 50 422 q 50 500 50 468 q 56 556 50 533 q 50 611 50 579 q 56 667 50 644 q 50 722 50 690 q 56 778 50 756 l 389 778 q 394 722 394 756 q 389 667 394 690 l 444 667 q 450 611 450 644 q 444 556 450 579 l 500 556 q 506 500 506 533 q 500 444 506 468 m 389 222 q 383 278 383 246 q 389 333 383 311 q 383 389 383 357 q 389 444 383 422 q 383 500 383 468 q 389 556 383 533 l 333 556 q 328 611 328 579 q 333 667 328 644 l 167 667 q 172 611 172 644 q 167 556 172 579 q 172 500 172 533 q 167 444 172 468 q 172 389 172 422 q 167 333 172 357 q 172 278 172 311 q 167 222 172 246 q 172 167 172 200 q 167 111 172 135 l 333 111 q 328 167 328 135 q 333 222 328 200 l 389 222 m 436 1056 q 431 1000 436 1024 l 361 1000 q 367 944 367 978 q 361 889 367 913 l 194 889 q 189 944 189 913 q 194 1000 189 978 l 125 1000 q 119 1056 119 1024 q 125 1111 119 1089 l 236 1111 q 242 1056 242 1089 q 236 1000 242 1024 l 319 1000 q 314 1056 314 1024 q 319 1111 314 1089 l 431 1111 q 436 1056 436 1089 z "},"Đ":{"ha":556,"x_min":50,"x_max":506,"o":"m 500 444 q 506 389 506 422 q 500 333 506 357 q 506 278 506 311 q 500 222 506 246 l 444 222 q 450 167 450 200 q 444 111 450 135 l 389 111 q 394 56 394 89 q 389 0 394 24 l 56 0 q 50 56 50 24 q 56 111 50 89 l 111 111 q 106 167 106 135 q 111 222 106 200 q 106 278 106 246 q 111 333 106 311 l 56 333 q 50 389 50 357 q 56 444 50 422 l 111 444 q 106 500 106 468 q 111 556 106 533 q 106 611 106 579 q 111 667 106 644 l 56 667 q 50 722 50 690 q 56 778 50 756 l 389 778 q 394 722 394 756 q 389 667 394 690 l 444 667 q 450 611 450 644 q 444 556 450 579 l 500 556 q 506 500 506 533 q 500 444 506 468 m 389 222 q 383 278 383 246 q 389 333 383 311 q 383 389 383 357 q 389 444 383 422 q 383 500 383 468 q 389 556 383 533 l 333 556 q 328 611 328 579 q 333 667 328 644 l 222 667 q 228 611 228 644 q 222 556 228 579 q 228 500 228 533 q 222 444 228 468 l 278 444 q 283 389 283 422 q 278 333 283 357 l 222 333 q 228 278 228 311 q 222 222 228 246 q 228 167 228 200 q 222 111 228 135 l 333 111 q 328 167 328 135 q 333 222 328 200 l 389 222 z "},"ǅ":{"ha":556,"x_min":50,"x_max":506,"o":"m 125 1000 q 119 1056 119 1024 q 125 1111 119 1089 l 236 1111 q 242 1056 242 1089 q 236 1000 242 1024 l 319 1000 q 314 1056 314 1024 q 319 1111 314 1089 l 431 1111 q 436 1056 436 1089 q 431 1000 436 1024 l 361 1000 q 367 944 367 978 q 361 889 367 913 l 194 889 q 189 944 189 913 q 194 1000 189 978 l 125 1000 m 506 389 q 500 333 506 357 l 472 333 q 478 278 478 311 q 472 222 478 246 l 431 222 q 436 167 436 200 q 431 111 436 135 l 500 111 q 506 56 506 89 q 500 0 506 24 l 319 0 q 314 56 314 24 q 319 111 314 89 l 347 111 q 342 167 342 135 q 347 222 342 200 l 389 222 q 383 278 383 246 q 389 333 383 311 l 417 333 q 411 389 411 357 q 417 444 411 422 l 319 444 q 325 389 325 422 q 319 333 325 357 q 325 278 325 311 q 319 222 325 246 l 278 222 q 283 167 283 200 q 278 111 283 135 l 236 111 q 242 56 242 89 q 236 0 242 24 l 56 0 q 50 56 50 24 q 56 111 50 89 q 50 167 50 135 q 56 222 50 200 q 50 278 50 246 q 56 333 50 311 q 50 389 50 357 q 56 444 50 422 q 50 500 50 468 q 56 556 50 533 q 50 611 50 579 q 56 667 50 644 q 50 722 50 690 q 56 778 50 756 l 236 778 q 242 722 242 756 q 236 667 242 690 l 278 667 q 283 611 283 644 q 278 556 283 579 l 500 556 q 506 500 506 533 q 500 444 506 468 q 506 389 506 422 m 236 333 q 231 389 231 357 q 236 444 231 422 q 231 500 231 468 q 236 556 231 533 l 194 556 q 189 611 189 579 q 194 667 189 644 l 139 667 q 144 611 144 644 q 139 556 144 579 q 144 500 144 533 q 139 444 144 468 q 144 389 144 422 q 139 333 144 357 q 144 278 144 311 q 139 222 144 246 q 144 167 144 200 q 139 111 144 135 l 194 111 q 189 167 189 135 q 194 222 189 200 l 236 222 q 231 278 231 246 q 236 333 231 311 z "},"E":{"ha":556,"x_min":106,"x_max":450,"o":"m 222 333 q 228 278 228 311 q 222 222 228 246 q 228 167 228 200 q 222 111 228 135 l 444 111 q 450 56 450 89 q 444 0 450 24 l 111 0 q 106 56 106 24 q 111 111 106 89 q 106 167 106 135 q 111 222 106 200 q 106 278 106 246 q 111 333 106 311 q 106 389 106 357 q 111 444 106 422 q 106 500 106 468 q 111 556 106 533 q 106 611 106 579 q 111 667 106 644 q 106 722 106 690 q 111 778 106 756 l 444 778 q 450 722 450 756 q 444 667 450 690 l 222 667 q 228 611 228 644 q 222 556 228 579 q 228 500 228 533 q 222 444 228 468 l 444 444 q 450 389 450 422 q 444 333 450 357 l 222 333 z "},"É":{"ha":556,"x_min":106,"x_max":450,"o":"m 222 889 q 217 944 217 913 q 222 1000 217 978 l 278 1000 q 272 1056 272 1024 q 278 1111 272 1089 l 389 1111 q 394 1056 394 1089 q 389 1000 394 1024 l 333 1000 q 339 944 339 978 q 333 889 339 913 l 222 889 m 222 333 q 228 278 228 311 q 222 222 228 246 q 228 167 228 200 q 222 111 228 135 l 444 111 q 450 56 450 89 q 444 0 450 24 l 111 0 q 106 56 106 24 q 111 111 106 89 q 106 167 106 135 q 111 222 106 200 q 106 278 106 246 q 111 333 106 311 q 106 389 106 357 q 111 444 106 422 q 106 500 106 468 q 111 556 106 533 q 106 611 106 579 q 111 667 106 644 q 106 722 106 690 q 111 778 106 756 l 444 778 q 450 722 450 756 q 444 667 450 690 l 222 667 q 228 611 228 644 q 222 556 228 579 q 228 500 228 533 q 222 444 228 468 l 444 444 q 450 389 450 422 q 444 333 450 357 l 222 333 z "},"Ĕ":{"ha":556,"x_min":50,"x_max":506,"o":"m 222 333 q 228 278 228 311 q 222 222 228 246 q 228 167 228 200 q 222 111 228 135 l 444 111 q 450 56 450 89 q 444 0 450 24 l 111 0 q 106 56 106 24 q 111 111 106 89 q 106 167 106 135 q 111 222 106 200 q 106 278 106 246 q 111 333 106 311 q 106 389 106 357 q 111 444 106 422 q 106 500 106 468 q 111 556 106 533 q 106 611 106 579 q 111 667 106 644 q 106 722 106 690 q 111 778 106 756 l 444 778 q 450 722 450 756 q 444 667 450 690 l 222 667 q 228 611 228 644 q 222 556 228 579 q 228 500 228 533 q 222 444 228 468 l 444 444 q 450 389 450 422 q 444 333 450 357 l 222 333 m 167 1111 q 172 1056 172 1089 q 167 1000 172 1024 l 56 1000 q 50 1056 50 1024 q 56 1111 50 1089 l 167 1111 m 500 1111 q 506 1056 506 1089 q 500 1000 506 1024 l 389 1000 q 383 1056 383 1024 q 389 1111 383 1089 l 500 1111 m 389 1000 q 394 944 394 978 q 389 889 394 913 l 167 889 q 161 944 161 913 q 167 1000 161 978 l 389 1000 z "},"Ě":{"ha":556,"x_min":106,"x_max":450,"o":"m 222 333 q 228 278 228 311 q 222 222 228 246 q 228 167 228 200 q 222 111 228 135 l 444 111 q 450 56 450 89 q 444 0 450 24 l 111 0 q 106 56 106 24 q 111 111 106 89 q 106 167 106 135 q 111 222 106 200 q 106 278 106 246 q 111 333 106 311 q 106 389 106 357 q 111 444 106 422 q 106 500 106 468 q 111 556 106 533 q 106 611 106 579 q 111 667 106 644 q 106 722 106 690 q 111 778 106 756 l 444 778 q 450 722 450 756 q 444 667 450 690 l 222 667 q 228 611 228 644 q 222 556 228 579 q 228 500 228 533 q 222 444 228 468 l 444 444 q 450 389 450 422 q 444 333 450 357 l 222 333 m 436 1056 q 431 1000 436 1024 l 361 1000 q 367 944 367 978 q 361 889 367 913 l 194 889 q 189 944 189 913 q 194 1000 189 978 l 125 1000 q 119 1056 119 1024 q 125 1111 119 1089 l 236 1111 q 242 1056 242 1089 q 236 1000 242 1024 l 319 1000 q 314 1056 314 1024 q 319 1111 314 1089 l 431 1111 q 436 1056 436 1089 z "},"Ê":{"ha":556,"x_min":106,"x_max":450,"o":"m 222 333 q 228 278 228 311 q 222 222 228 246 q 228 167 228 200 q 222 111 228 135 l 444 111 q 450 56 450 89 q 444 0 450 24 l 111 0 q 106 56 106 24 q 111 111 106 89 q 106 167 106 135 q 111 222 106 200 q 106 278 106 246 q 111 333 106 311 q 106 389 106 357 q 111 444 106 422 q 106 500 106 468 q 111 556 106 533 q 106 611 106 579 q 111 667 106 644 q 106 722 106 690 q 111 778 106 756 l 444 778 q 450 722 450 756 q 444 667 450 690 l 222 667 q 228 611 228 644 q 222 556 228 579 q 228 500 228 533 q 222 444 228 468 l 444 444 q 450 389 450 422 q 444 333 450 357 l 222 333 m 431 1000 q 436 944 436 978 q 431 889 436 913 l 319 889 q 314 944 314 913 q 319 1000 314 978 l 236 1000 q 242 944 242 978 q 236 889 242 913 l 125 889 q 119 944 119 913 q 125 1000 119 978 l 194 1000 q 189 1056 189 1024 q 194 1111 189 1089 l 361 1111 q 367 1056 367 1089 q 361 1000 367 1024 l 431 1000 z "},"Ế":{"ha":556,"x_min":106,"x_max":561,"o":"m 561 1278 q 556 1222 561 1246 l 500 1222 q 506 1167 506 1200 q 500 1111 506 1135 l 389 1111 q 383 1167 383 1135 q 389 1222 383 1200 l 444 1222 q 439 1278 439 1246 q 444 1333 439 1311 l 556 1333 q 561 1278 561 1311 m 125 889 q 119 944 119 913 q 125 1000 119 978 l 194 1000 q 189 1056 189 1024 q 194 1111 189 1089 l 361 1111 q 367 1056 367 1089 q 361 1000 367 1024 l 431 1000 q 436 944 436 978 q 431 889 436 913 l 319 889 q 314 944 314 913 q 319 1000 314 978 l 236 1000 q 242 944 242 978 q 236 889 242 913 l 125 889 m 222 667 q 228 611 228 644 q 222 556 228 579 q 228 500 228 533 q 222 444 228 468 l 444 444 q 450 389 450 422 q 444 333 450 357 l 222 333 q 228 278 228 311 q 222 222 228 246 q 228 167 228 200 q 222 111 228 135 l 444 111 q 450 56 450 89 q 444 0 450 24 l 111 0 q 106 56 106 24 q 111 111 106 89 q 106 167 106 135 q 111 222 106 200 q 106 278 106 246 q 111 333 106 311 q 106 389 106 357 q 111 444 106 422 q 106 500 106 468 q 111 556 106 533 q 106 611 106 579 q 111 667 106 644 q 106 722 106 690 q 111 778 106 756 l 444 778 q 450 722 450 756 q 444 667 450 690 l 222 667 z "},"Ệ":{"ha":556,"x_min":106,"x_max":450,"o":"m 222 333 q 228 278 228 311 q 222 222 228 246 q 228 167 228 200 q 222 111 228 135 l 444 111 q 450 56 450 89 q 444 0 450 24 l 111 0 q 106 56 106 24 q 111 111 106 89 q 106 167 106 135 q 111 222 106 200 q 106 278 106 246 q 111 333 106 311 q 106 389 106 357 q 111 444 106 422 q 106 500 106 468 q 111 556 106 533 q 106 611 106 579 q 111 667 106 644 q 106 722 106 690 q 111 778 106 756 l 444 778 q 450 722 450 756 q 444 667 450 690 l 222 667 q 228 611 228 644 q 222 556 228 579 q 228 500 228 533 q 222 444 228 468 l 444 444 q 450 389 450 422 q 444 333 450 357 l 222 333 m 333 -111 q 339 -167 339 -133 q 333 -222 339 -199 l 222 -222 q 217 -167 217 -199 q 222 -111 217 -133 l 333 -111 m 431 1000 q 436 944 436 978 q 431 889 436 913 l 319 889 q 314 944 314 913 q 319 1000 314 978 l 236 1000 q 242 944 242 978 q 236 889 242 913 l 125 889 q 119 944 119 913 q 125 1000 119 978 l 194 1000 q 189 1056 189 1024 q 194 1111 189 1089 l 361 1111 q 367 1056 367 1089 q 361 1000 367 1024 l 431 1000 z "},"Ề":{"ha":556,"x_min":-6,"x_max":450,"o":"m 172 1167 q 167 1111 172 1135 l 56 1111 q 50 1167 50 1135 q 56 1222 50 1200 l 0 1222 q -6 1278 -6 1246 q 0 1333 -6 1311 l 111 1333 q 117 1278 117 1311 q 111 1222 117 1246 l 167 1222 q 172 1167 172 1200 m 194 1000 q 189 1056 189 1024 q 194 1111 189 1089 l 361 1111 q 367 1056 367 1089 q 361 1000 367 1024 l 431 1000 q 436 944 436 978 q 431 889 436 913 l 319 889 q 314 944 314 913 q 319 1000 314 978 l 236 1000 q 242 944 242 978 q 236 889 242 913 l 125 889 q 119 944 119 913 q 125 1000 119 978 l 194 1000 m 222 333 q 228 278 228 311 q 222 222 228 246 q 228 167 228 200 q 222 111 228 135 l 444 111 q 450 56 450 89 q 444 0 450 24 l 111 0 q 106 56 106 24 q 111 111 106 89 q 106 167 106 135 q 111 222 106 200 q 106 278 106 246 q 111 333 106 311 q 106 389 106 357 q 111 444 106 422 q 106 500 106 468 q 111 556 106 533 q 106 611 106 579 q 111 667 106 644 q 106 722 106 690 q 111 778 106 756 l 444 778 q 450 722 450 756 q 444 667 450 690 l 222 667 q 228 611 228 644 q 222 556 228 579 q 228 500 228 533 q 222 444 228 468 l 444 444 q 450 389 450 422 q 444 333 450 357 l 222 333 z "},"Ể":{"ha":556,"x_min":106,"x_max":506,"o":"m 222 333 q 228 278 228 311 q 222 222 228 246 q 228 167 228 200 q 222 111 228 135 l 444 111 q 450 56 450 89 q 444 0 450 24 l 111 0 q 106 56 106 24 q 111 111 106 89 q 106 167 106 135 q 111 222 106 200 q 106 278 106 246 q 111 333 106 311 q 106 389 106 357 q 111 444 106 422 q 106 500 106 468 q 111 556 106 533 q 106 611 106 579 q 111 667 106 644 q 106 722 106 690 q 111 778 106 756 l 444 778 q 450 722 450 756 q 444 667 450 690 l 222 667 q 228 611 228 644 q 222 556 228 579 q 228 500 228 533 q 222 444 228 468 l 444 444 q 450 389 450 422 q 444 333 450 357 l 222 333 m 506 1278 q 500 1222 506 1246 q 506 1167 506 1200 q 500 1111 506 1135 l 444 1111 q 439 1167 439 1135 q 444 1222 439 1200 l 389 1222 q 383 1278 383 1246 q 389 1333 383 1311 l 500 1333 q 506 1278 506 1311 m 431 1000 q 436 944 436 978 q 431 889 436 913 l 319 889 q 314 944 314 913 q 319 1000 314 978 l 236 1000 q 242 944 242 978 q 236 889 242 913 l 125 889 q 119 944 119 913 q 125 1000 119 978 l 194 1000 q 189 1056 189 1024 q 194 1111 189 1089 l 361 1111 q 367 1056 367 1089 q 361 1000 367 1024 l 431 1000 z "},"Ễ":{"ha":556,"x_min":50,"x_max":506,"o":"m 222 333 q 228 278 228 311 q 222 222 228 246 q 228 167 228 200 q 222 111 228 135 l 444 111 q 450 56 450 89 q 444 0 450 24 l 111 0 q 106 56 106 24 q 111 111 106 89 q 106 167 106 135 q 111 222 106 200 q 106 278 106 246 q 111 333 106 311 q 106 389 106 357 q 111 444 106 422 q 106 500 106 468 q 111 556 106 533 q 106 611 106 579 q 111 667 106 644 q 106 722 106 690 q 111 778 106 756 l 444 778 q 450 722 450 756 q 444 667 450 690 l 222 667 q 228 611 228 644 q 222 556 228 579 q 228 500 228 533 q 222 444 228 468 l 444 444 q 450 389 450 422 q 444 333 450 357 l 222 333 m 431 1000 q 436 944 436 978 q 431 889 436 913 l 319 889 q 314 944 314 913 q 319 1000 314 978 l 236 1000 q 242 944 242 978 q 236 889 242 913 l 125 889 q 119 944 119 913 q 125 1000 119 978 l 194 1000 q 189 1056 189 1024 q 194 1111 189 1089 l 361 1111 q 367 1056 367 1089 q 361 1000 367 1024 l 431 1000 m 311 1389 q 306 1333 311 1357 l 417 1333 q 422 1278 422 1311 q 417 1222 422 1246 l 250 1222 q 244 1278 244 1246 q 250 1333 244 1311 l 139 1333 q 133 1389 133 1357 q 139 1444 133 1422 l 306 1444 q 311 1389 311 1422 m 506 1389 q 500 1333 506 1357 l 417 1333 q 411 1389 411 1357 q 417 1444 411 1422 l 500 1444 q 506 1389 506 1422 m 50 1278 q 56 1333 50 1311 l 139 1333 q 144 1278 144 1311 q 139 1222 144 1246 l 56 1222 q 50 1278 50 1246 z "},"Ȅ":{"ha":556,"x_min":106,"x_max":450,"o":"m 222 333 q 228 278 228 311 q 222 222 228 246 q 228 167 228 200 q 222 111 228 135 l 444 111 q 450 56 450 89 q 444 0 450 24 l 111 0 q 106 56 106 24 q 111 111 106 89 q 106 167 106 135 q 111 222 106 200 q 106 278 106 246 q 111 333 106 311 q 106 389 106 357 q 111 444 106 422 q 106 500 106 468 q 111 556 106 533 q 106 611 106 579 q 111 667 106 644 q 106 722 106 690 q 111 778 106 756 l 444 778 q 450 722 450 756 q 444 667 450 690 l 222 667 q 228 611 228 644 q 222 556 228 579 q 228 500 228 533 q 222 444 228 468 l 444 444 q 450 389 450 422 q 444 333 450 357 l 222 333 m 236 1000 q 242 944 242 978 q 236 889 242 913 l 153 889 q 147 944 147 913 q 153 1000 147 978 l 111 1000 q 106 1056 106 1024 q 111 1111 106 1089 l 194 1111 q 200 1056 200 1089 q 194 1000 200 1024 l 236 1000 m 403 1000 q 408 944 408 978 q 403 889 408 913 l 319 889 q 314 944 314 913 q 319 1000 314 978 l 278 1000 q 272 1056 272 1024 q 278 1111 272 1089 l 361 1111 q 367 1056 367 1089 q 361 1000 367 1024 l 403 1000 z "},"Ë":{"ha":556,"x_min":106,"x_max":450,"o":"m 111 889 q 106 944 106 913 q 111 1000 106 978 l 222 1000 q 228 944 228 978 q 222 889 228 913 l 111 889 m 333 889 q 328 944 328 913 q 333 1000 328 978 l 444 1000 q 450 944 450 978 q 444 889 450 913 l 333 889 m 222 667 q 228 611 228 644 q 222 556 228 579 q 228 500 228 533 q 222 444 228 468 l 444 444 q 450 389 450 422 q 444 333 450 357 l 222 333 q 228 278 228 311 q 222 222 228 246 q 228 167 228 200 q 222 111 228 135 l 444 111 q 450 56 450 89 q 444 0 450 24 l 111 0 q 106 56 106 24 q 111 111 106 89 q 106 167 106 135 q 111 222 106 200 q 106 278 106 246 q 111 333 106 311 q 106 389 106 357 q 111 444 106 422 q 106 500 106 468 q 111 556 106 533 q 106 611 106 579 q 111 667 106 644 q 106 722 106 690 q 111 778 106 756 l 444 778 q 450 722 450 756 q 444 667 450 690 l 222 667 z "},"Ė":{"ha":556,"x_min":106,"x_max":450,"o":"m 222 333 q 228 278 228 311 q 222 222 228 246 q 228 167 228 200 q 222 111 228 135 l 444 111 q 450 56 450 89 q 444 0 450 24 l 111 0 q 106 56 106 24 q 111 111 106 89 q 106 167 106 135 q 111 222 106 200 q 106 278 106 246 q 111 333 106 311 q 106 389 106 357 q 111 444 106 422 q 106 500 106 468 q 111 556 106 533 q 106 611 106 579 q 111 667 106 644 q 106 722 106 690 q 111 778 106 756 l 444 778 q 450 722 450 756 q 444 667 450 690 l 222 667 q 228 611 228 644 q 222 556 228 579 q 228 500 228 533 q 222 444 228 468 l 444 444 q 450 389 450 422 q 444 333 450 357 l 222 333 m 333 1000 q 339 944 339 978 q 333 889 339 913 l 222 889 q 217 944 217 913 q 222 1000 217 978 l 333 1000 z "},"Ẹ":{"ha":556,"x_min":106,"x_max":450,"o":"m 222 333 q 228 278 228 311 q 222 222 228 246 q 228 167 228 200 q 222 111 228 135 l 444 111 q 450 56 450 89 q 444 0 450 24 l 111 0 q 106 56 106 24 q 111 111 106 89 q 106 167 106 135 q 111 222 106 200 q 106 278 106 246 q 111 333 106 311 q 106 389 106 357 q 111 444 106 422 q 106 500 106 468 q 111 556 106 533 q 106 611 106 579 q 111 667 106 644 q 106 722 106 690 q 111 778 106 756 l 444 778 q 450 722 450 756 q 444 667 450 690 l 222 667 q 228 611 228 644 q 222 556 228 579 q 228 500 228 533 q 222 444 228 468 l 444 444 q 450 389 450 422 q 444 333 450 357 l 222 333 m 333 -111 q 339 -167 339 -133 q 333 -222 339 -199 l 222 -222 q 217 -167 217 -199 q 222 -111 217 -133 l 333 -111 z "},"È":{"ha":556,"x_min":106,"x_max":450,"o":"m 167 1000 q 161 1056 161 1024 q 167 1111 161 1089 l 278 1111 q 283 1056 283 1089 q 278 1000 283 1024 l 333 1000 q 339 944 339 978 q 333 889 339 913 l 222 889 q 217 944 217 913 q 222 1000 217 978 l 167 1000 m 222 333 q 228 278 228 311 q 222 222 228 246 q 228 167 228 200 q 222 111 228 135 l 444 111 q 450 56 450 89 q 444 0 450 24 l 111 0 q 106 56 106 24 q 111 111 106 89 q 106 167 106 135 q 111 222 106 200 q 106 278 106 246 q 111 333 106 311 q 106 389 106 357 q 111 444 106 422 q 106 500 106 468 q 111 556 106 533 q 106 611 106 579 q 111 667 106 644 q 106 722 106 690 q 111 778 106 756 l 444 778 q 450 722 450 756 q 444 667 450 690 l 222 667 q 228 611 228 644 q 222 556 228 579 q 228 500 228 533 q 222 444 228 468 l 444 444 q 450 389 450 422 q 444 333 450 357 l 222 333 z "},"Ẻ":{"ha":556,"x_min":106,"x_max":450,"o":"m 222 333 q 228 278 228 311 q 222 222 228 246 q 228 167 228 200 q 222 111 228 135 l 444 111 q 450 56 450 89 q 444 0 450 24 l 111 0 q 106 56 106 24 q 111 111 106 89 q 106 167 106 135 q 111 222 106 200 q 106 278 106 246 q 111 333 106 311 q 106 389 106 357 q 111 444 106 422 q 106 500 106 468 q 111 556 106 533 q 106 611 106 579 q 111 667 106 644 q 106 722 106 690 q 111 778 106 756 l 444 778 q 450 722 450 756 q 444 667 450 690 l 222 667 q 228 611 228 644 q 222 556 228 579 q 228 500 228 533 q 222 444 228 468 l 444 444 q 450 389 450 422 q 444 333 450 357 l 222 333 m 339 1056 q 333 1000 339 1024 q 339 944 339 978 q 333 889 339 913 l 278 889 q 272 944 272 913 q 278 1000 272 978 l 222 1000 q 217 1056 217 1024 q 222 1111 217 1089 l 333 1111 q 339 1056 339 1089 z "},"Ȇ":{"ha":556,"x_min":50,"x_max":506,"o":"m 222 333 q 228 278 228 311 q 222 222 228 246 q 228 167 228 200 q 222 111 228 135 l 444 111 q 450 56 450 89 q 444 0 450 24 l 111 0 q 106 56 106 24 q 111 111 106 89 q 106 167 106 135 q 111 222 106 200 q 106 278 106 246 q 111 333 106 311 q 106 389 106 357 q 111 444 106 422 q 106 500 106 468 q 111 556 106 533 q 106 611 106 579 q 111 667 106 644 q 106 722 106 690 q 111 778 106 756 l 444 778 q 450 722 450 756 q 444 667 450 690 l 222 667 q 228 611 228 644 q 222 556 228 579 q 228 500 228 533 q 222 444 228 468 l 444 444 q 450 389 450 422 q 444 333 450 357 l 222 333 m 389 1111 q 394 1056 394 1089 q 389 1000 394 1024 l 167 1000 q 161 1056 161 1024 q 167 1111 161 1089 l 389 1111 m 167 1000 q 172 944 172 978 q 167 889 172 913 l 56 889 q 50 944 50 913 q 56 1000 50 978 l 167 1000 m 500 1000 q 506 944 506 978 q 500 889 506 913 l 389 889 q 383 944 383 913 q 389 1000 383 978 l 500 1000 z "},"Ē":{"ha":556,"x_min":106,"x_max":450,"o":"m 222 333 q 228 278 228 311 q 222 222 228 246 q 228 167 228 200 q 222 111 228 135 l 444 111 q 450 56 450 89 q 444 0 450 24 l 111 0 q 106 56 106 24 q 111 111 106 89 q 106 167 106 135 q 111 222 106 200 q 106 278 106 246 q 111 333 106 311 q 106 389 106 357 q 111 444 106 422 q 106 500 106 468 q 111 556 106 533 q 106 611 106 579 q 111 667 106 644 q 106 722 106 690 q 111 778 106 756 l 444 778 q 450 722 450 756 q 444 667 450 690 l 222 667 q 228 611 228 644 q 222 556 228 579 q 228 500 228 533 q 222 444 228 468 l 444 444 q 450 389 450 422 q 444 333 450 357 l 222 333 m 444 1000 q 450 944 450 978 q 444 889 450 913 l 111 889 q 106 944 106 913 q 111 1000 106 978 l 444 1000 z "},"Ę":{"ha":556,"x_min":106,"x_max":492,"o":"m 222 333 q 228 278 228 311 q 222 222 228 246 q 228 167 228 200 q 222 111 228 135 l 444 111 q 450 56 450 89 q 444 0 450 24 l 111 0 q 106 56 106 24 q 111 111 106 89 q 106 167 106 135 q 111 222 106 200 q 106 278 106 246 q 111 333 106 311 q 106 389 106 357 q 111 444 106 422 q 106 500 106 468 q 111 556 106 533 q 106 611 106 579 q 111 667 106 644 q 106 722 106 690 q 111 778 106 756 l 444 778 q 450 722 450 756 q 444 667 450 690 l 222 667 q 228 611 228 644 q 222 556 228 579 q 228 500 228 533 q 222 444 228 468 l 444 444 q 450 389 450 422 q 444 333 450 357 l 222 333 m 486 -111 q 492 -167 492 -133 q 486 -222 492 -199 l 375 -222 q 369 -167 369 -199 q 375 -111 369 -133 l 333 -111 q 328 -56 328 -87 q 333 0 328 -22 l 417 0 q 422 -56 422 -22 q 417 -111 422 -87 l 486 -111 z "},"Ẽ":{"ha":556,"x_min":50,"x_max":506,"o":"m 222 333 q 228 278 228 311 q 222 222 228 246 q 228 167 228 200 q 222 111 228 135 l 444 111 q 450 56 450 89 q 444 0 450 24 l 111 0 q 106 56 106 24 q 111 111 106 89 q 106 167 106 135 q 111 222 106 200 q 106 278 106 246 q 111 333 106 311 q 106 389 106 357 q 111 444 106 422 q 106 500 106 468 q 111 556 106 533 q 106 611 106 579 q 111 667 106 644 q 106 722 106 690 q 111 778 106 756 l 444 778 q 450 722 450 756 q 444 667 450 690 l 222 667 q 228 611 228 644 q 222 556 228 579 q 228 500 228 533 q 222 444 228 468 l 444 444 q 450 389 450 422 q 444 333 450 357 l 222 333 m 311 1056 q 306 1000 311 1024 l 417 1000 q 422 944 422 978 q 417 889 422 913 l 250 889 q 244 944 244 913 q 250 1000 244 978 l 139 1000 q 133 1056 133 1024 q 139 1111 133 1089 l 306 1111 q 311 1056 311 1089 m 506 1056 q 500 1000 506 1024 l 417 1000 q 411 1056 411 1024 q 417 1111 411 1089 l 500 1111 q 506 1056 506 1089 m 50 944 q 56 1000 50 978 l 139 1000 q 144 944 144 978 q 139 889 144 913 l 56 889 q 50 944 50 913 z "},"F":{"ha":556,"x_min":106,"x_max":450,"o":"m 444 444 q 450 389 450 422 q 444 333 450 357 l 222 333 q 228 278 228 311 q 222 222 228 246 q 228 167 228 200 q 222 111 228 135 q 228 56 228 89 q 222 0 228 24 l 111 0 q 106 56 106 24 q 111 111 106 89 q 106 167 106 135 q 111 222 106 200 q 106 278 106 246 q 111 333 106 311 q 106 389 106 357 q 111 444 106 422 q 106 500 106 468 q 111 556 106 533 q 106 611 106 579 q 111 667 106 644 q 106 722 106 690 q 111 778 106 756 l 444 778 q 450 722 450 756 q 444 667 450 690 l 222 667 q 228 611 228 644 q 222 556 228 579 q 228 500 228 533 q 222 444 228 468 l 444 444 z "},"G":{"ha":556,"x_min":50,"x_max":506,"o":"m 500 444 q 506 389 506 422 q 500 333 506 357 q 506 278 506 311 q 500 222 506 246 q 506 167 506 200 q 500 111 506 135 l 444 111 q 450 56 450 89 q 444 0 450 24 l 167 0 q 161 56 161 24 q 167 111 161 89 l 111 111 q 106 167 106 135 q 111 222 106 200 l 56 222 q 50 278 50 246 q 56 333 50 311 q 50 389 50 357 q 56 444 50 422 q 50 500 50 468 q 56 556 50 533 l 111 556 q 106 611 106 579 q 111 667 106 644 l 167 667 q 161 722 161 690 q 167 778 161 756 l 444 778 q 450 722 450 756 q 444 667 450 690 l 500 667 q 506 611 506 644 q 500 556 506 579 l 389 556 q 383 611 383 579 q 389 667 383 644 l 222 667 q 228 611 228 644 q 222 556 228 579 l 167 556 q 172 500 172 533 q 167 444 172 468 q 172 389 172 422 q 167 333 172 357 q 172 278 172 311 q 167 222 172 246 l 222 222 q 228 167 228 200 q 222 111 228 135 l 389 111 q 383 167 383 135 q 389 222 383 200 q 383 278 383 246 q 389 333 383 311 l 306 333 q 300 389 300 357 q 306 444 300 422 l 500 444 z "},"Ğ":{"ha":556,"x_min":50,"x_max":533,"o":"m 500 444 q 506 389 506 422 q 500 333 506 357 q 506 278 506 311 q 500 222 506 246 q 506 167 506 200 q 500 111 506 135 l 444 111 q 450 56 450 89 q 444 0 450 24 l 167 0 q 161 56 161 24 q 167 111 161 89 l 111 111 q 106 167 106 135 q 111 222 106 200 l 56 222 q 50 278 50 246 q 56 333 50 311 q 50 389 50 357 q 56 444 50 422 q 50 500 50 468 q 56 556 50 533 l 111 556 q 106 611 106 579 q 111 667 106 644 l 167 667 q 161 722 161 690 q 167 778 161 756 l 444 778 q 450 722 450 756 q 444 667 450 690 l 500 667 q 506 611 506 644 q 500 556 506 579 l 389 556 q 383 611 383 579 q 389 667 383 644 l 222 667 q 228 611 228 644 q 222 556 228 579 l 167 556 q 172 500 172 533 q 167 444 172 468 q 172 389 172 422 q 167 333 172 357 q 172 278 172 311 q 167 222 172 246 l 222 222 q 228 167 228 200 q 222 111 228 135 l 389 111 q 383 167 383 135 q 389 222 383 200 q 383 278 383 246 q 389 333 383 311 l 306 333 q 300 389 300 357 q 306 444 300 422 l 500 444 m 194 1111 q 200 1056 200 1089 q 194 1000 200 1024 l 83 1000 q 78 1056 78 1024 q 83 1111 78 1089 l 194 1111 m 528 1111 q 533 1056 533 1089 q 528 1000 533 1024 l 417 1000 q 411 1056 411 1024 q 417 1111 411 1089 l 528 1111 m 417 1000 q 422 944 422 978 q 417 889 422 913 l 194 889 q 189 944 189 913 q 194 1000 189 978 l 417 1000 z "},"Ǧ":{"ha":556,"x_min":50,"x_max":506,"o":"m 500 444 q 506 389 506 422 q 500 333 506 357 q 506 278 506 311 q 500 222 506 246 q 506 167 506 200 q 500 111 506 135 l 444 111 q 450 56 450 89 q 444 0 450 24 l 167 0 q 161 56 161 24 q 167 111 161 89 l 111 111 q 106 167 106 135 q 111 222 106 200 l 56 222 q 50 278 50 246 q 56 333 50 311 q 50 389 50 357 q 56 444 50 422 q 50 500 50 468 q 56 556 50 533 l 111 556 q 106 611 106 579 q 111 667 106 644 l 167 667 q 161 722 161 690 q 167 778 161 756 l 444 778 q 450 722 450 756 q 444 667 450 690 l 500 667 q 506 611 506 644 q 500 556 506 579 l 389 556 q 383 611 383 579 q 389 667 383 644 l 222 667 q 228 611 228 644 q 222 556 228 579 l 167 556 q 172 500 172 533 q 167 444 172 468 q 172 389 172 422 q 167 333 172 357 q 172 278 172 311 q 167 222 172 246 l 222 222 q 228 167 228 200 q 222 111 228 135 l 389 111 q 383 167 383 135 q 389 222 383 200 q 383 278 383 246 q 389 333 383 311 l 306 333 q 300 389 300 357 q 306 444 300 422 l 500 444 m 464 1056 q 458 1000 464 1024 l 389 1000 q 394 944 394 978 q 389 889 394 913 l 222 889 q 217 944 217 913 q 222 1000 217 978 l 153 1000 q 147 1056 147 1024 q 153 1111 147 1089 l 264 1111 q 269 1056 269 1089 q 264 1000 269 1024 l 347 1000 q 342 1056 342 1024 q 347 1111 342 1089 l 458 1111 q 464 1056 464 1089 z "},"Ĝ":{"ha":556,"x_min":50,"x_max":506,"o":"m 500 444 q 506 389 506 422 q 500 333 506 357 q 506 278 506 311 q 500 222 506 246 q 506 167 506 200 q 500 111 506 135 l 444 111 q 450 56 450 89 q 444 0 450 24 l 167 0 q 161 56 161 24 q 167 111 161 89 l 111 111 q 106 167 106 135 q 111 222 106 200 l 56 222 q 50 278 50 246 q 56 333 50 311 q 50 389 50 357 q 56 444 50 422 q 50 500 50 468 q 56 556 50 533 l 111 556 q 106 611 106 579 q 111 667 106 644 l 167 667 q 161 722 161 690 q 167 778 161 756 l 444 778 q 450 722 450 756 q 444 667 450 690 l 500 667 q 506 611 506 644 q 500 556 506 579 l 389 556 q 383 611 383 579 q 389 667 383 644 l 222 667 q 228 611 228 644 q 222 556 228 579 l 167 556 q 172 500 172 533 q 167 444 172 468 q 172 389 172 422 q 167 333 172 357 q 172 278 172 311 q 167 222 172 246 l 222 222 q 228 167 228 200 q 222 111 228 135 l 389 111 q 383 167 383 135 q 389 222 383 200 q 383 278 383 246 q 389 333 383 311 l 306 333 q 300 389 300 357 q 306 444 300 422 l 500 444 m 458 1000 q 464 944 464 978 q 458 889 464 913 l 347 889 q 342 944 342 913 q 347 1000 342 978 l 264 1000 q 269 944 269 978 q 264 889 269 913 l 153 889 q 147 944 147 913 q 153 1000 147 978 l 222 1000 q 217 1056 217 1024 q 222 1111 217 1089 l 389 1111 q 394 1056 394 1089 q 389 1000 394 1024 l 458 1000 z "},"Ģ":{"ha":556,"x_min":50,"x_max":506,"o":"m 500 444 q 506 389 506 422 q 500 333 506 357 q 506 278 506 311 q 500 222 506 246 q 506 167 506 200 q 500 111 506 135 l 444 111 q 450 56 450 89 q 444 0 450 24 l 167 0 q 161 56 161 24 q 167 111 161 89 l 111 111 q 106 167 106 135 q 111 222 106 200 l 56 222 q 50 278 50 246 q 56 333 50 311 q 50 389 50 357 q 56 444 50 422 q 50 500 50 468 q 56 556 50 533 l 111 556 q 106 611 106 579 q 111 667 106 644 l 167 667 q 161 722 161 690 q 167 778 161 756 l 444 778 q 450 722 450 756 q 444 667 450 690 l 500 667 q 506 611 506 644 q 500 556 506 579 l 389 556 q 383 611 383 579 q 389 667 383 644 l 222 667 q 228 611 228 644 q 222 556 228 579 l 167 556 q 172 500 172 533 q 167 444 172 468 q 172 389 172 422 q 167 333 172 357 q 172 278 172 311 q 167 222 172 246 l 222 222 q 228 167 228 200 q 222 111 228 135 l 389 111 q 383 167 383 135 q 389 222 383 200 q 383 278 383 246 q 389 333 383 311 l 306 333 q 300 389 300 357 q 306 444 300 422 l 500 444 m 367 -167 q 361 -222 367 -199 q 367 -278 367 -244 q 361 -333 367 -310 l 306 -333 q 300 -278 300 -310 q 306 -222 300 -244 l 250 -222 q 244 -167 244 -199 q 250 -111 244 -133 l 361 -111 q 367 -167 367 -133 z "},"Ġ":{"ha":556,"x_min":50,"x_max":506,"o":"m 500 444 q 506 389 506 422 q 500 333 506 357 q 506 278 506 311 q 500 222 506 246 q 506 167 506 200 q 500 111 506 135 l 444 111 q 450 56 450 89 q 444 0 450 24 l 167 0 q 161 56 161 24 q 167 111 161 89 l 111 111 q 106 167 106 135 q 111 222 106 200 l 56 222 q 50 278 50 246 q 56 333 50 311 q 50 389 50 357 q 56 444 50 422 q 50 500 50 468 q 56 556 50 533 l 111 556 q 106 611 106 579 q 111 667 106 644 l 167 667 q 161 722 161 690 q 167 778 161 756 l 444 778 q 450 722 450 756 q 444 667 450 690 l 500 667 q 506 611 506 644 q 500 556 506 579 l 389 556 q 383 611 383 579 q 389 667 383 644 l 222 667 q 228 611 228 644 q 222 556 228 579 l 167 556 q 172 500 172 533 q 167 444 172 468 q 172 389 172 422 q 167 333 172 357 q 172 278 172 311 q 167 222 172 246 l 222 222 q 228 167 228 200 q 222 111 228 135 l 389 111 q 383 167 383 135 q 389 222 383 200 q 383 278 383 246 q 389 333 383 311 l 306 333 q 300 389 300 357 q 306 444 300 422 l 500 444 m 361 1000 q 367 944 367 978 q 361 889 367 913 l 250 889 q 244 944 244 913 q 250 1000 244 978 l 361 1000 z "},"H":{"ha":556,"x_min":50,"x_max":506,"o":"m 500 667 q 506 611 506 644 q 500 556 506 579 q 506 500 506 533 q 500 444 506 468 q 506 389 506 422 q 500 333 506 357 q 506 278 506 311 q 500 222 506 246 q 506 167 506 200 q 500 111 506 135 q 506 56 506 89 q 500 0 506 24 l 389 0 q 383 56 383 24 q 389 111 383 89 q 383 167 383 135 q 389 222 383 200 q 383 278 383 246 q 389 333 383 311 l 167 333 q 172 278 172 311 q 167 222 172 246 q 172 167 172 200 q 167 111 172 135 q 172 56 172 89 q 167 0 172 24 l 56 0 q 50 56 50 24 q 56 111 50 89 q 50 167 50 135 q 56 222 50 200 q 50 278 50 246 q 56 333 50 311 q 50 389 50 357 q 56 444 50 422 q 50 500 50 468 q 56 556 50 533 q 50 611 50 579 q 56 667 50 644 q 50 722 50 690 q 56 778 50 756 l 167 778 q 172 722 172 756 q 167 667 172 690 q 172 611 172 644 q 167 556 172 579 q 172 500 172 533 q 167 444 172 468 l 389 444 q 383 500 383 468 q 389 556 383 533 q 383 611 383 579 q 389 667 383 644 q 383 722 383 690 q 389 778 383 756 l 500 778 q 506 722 506 756 q 500 667 506 690 z "},"Ħ":{"ha":556,"x_min":50,"x_max":506,"o":"m 506 611 q 500 556 506 579 l 444 556 q 450 500 450 533 q 444 444 450 468 q 450 389 450 422 q 444 333 450 357 q 450 278 450 311 q 444 222 450 246 q 450 167 450 200 q 444 111 450 135 q 450 56 450 89 q 444 0 450 24 l 333 0 q 328 56 328 24 q 333 111 328 89 q 328 167 328 135 q 333 222 328 200 q 328 278 328 246 q 333 333 328 311 l 222 333 q 228 278 228 311 q 222 222 228 246 q 228 167 228 200 q 222 111 228 135 q 228 56 228 89 q 222 0 228 24 l 111 0 q 106 56 106 24 q 111 111 106 89 q 106 167 106 135 q 111 222 106 200 q 106 278 106 246 q 111 333 106 311 q 106 389 106 357 q 111 444 106 422 q 106 500 106 468 q 111 556 106 533 l 56 556 q 50 611 50 579 q 56 667 50 644 l 111 667 q 106 722 106 690 q 111 778 106 756 l 222 778 q 228 722 228 756 q 222 667 228 690 l 333 667 q 328 722 328 690 q 333 778 328 756 l 444 778 q 450 722 450 756 q 444 667 450 690 l 500 667 q 506 611 506 644 m 333 444 q 328 500 328 468 q 333 556 328 533 l 222 556 q 228 500 228 533 q 222 444 228 468 l 333 444 z "},"Ĥ":{"ha":556,"x_min":50,"x_max":506,"o":"m 500 667 q 506 611 506 644 q 500 556 506 579 q 506 500 506 533 q 500 444 506 468 q 506 389 506 422 q 500 333 506 357 q 506 278 506 311 q 500 222 506 246 q 506 167 506 200 q 500 111 506 135 q 506 56 506 89 q 500 0 506 24 l 389 0 q 383 56 383 24 q 389 111 383 89 q 383 167 383 135 q 389 222 383 200 q 383 278 383 246 q 389 333 383 311 l 167 333 q 172 278 172 311 q 167 222 172 246 q 172 167 172 200 q 167 111 172 135 q 172 56 172 89 q 167 0 172 24 l 56 0 q 50 56 50 24 q 56 111 50 89 q 50 167 50 135 q 56 222 50 200 q 50 278 50 246 q 56 333 50 311 q 50 389 50 357 q 56 444 50 422 q 50 500 50 468 q 56 556 50 533 q 50 611 50 579 q 56 667 50 644 q 50 722 50 690 q 56 778 50 756 l 167 778 q 172 722 172 756 q 167 667 172 690 q 172 611 172 644 q 167 556 172 579 q 172 500 172 533 q 167 444 172 468 l 389 444 q 383 500 383 468 q 389 556 383 533 q 383 611 383 579 q 389 667 383 644 q 383 722 383 690 q 389 778 383 756 l 500 778 q 506 722 506 756 q 500 667 506 690 m 431 1000 q 436 944 436 978 q 431 889 436 913 l 319 889 q 314 944 314 913 q 319 1000 314 978 l 236 1000 q 242 944 242 978 q 236 889 242 913 l 125 889 q 119 944 119 913 q 125 1000 119 978 l 194 1000 q 189 1056 189 1024 q 194 1111 189 1089 l 361 1111 q 367 1056 367 1089 q 361 1000 367 1024 l 431 1000 z "},"I":{"ha":556,"x_min":133,"x_max":422,"o":"m 417 111 q 422 56 422 89 q 417 0 422 24 l 139 0 q 133 56 133 24 q 139 111 133 89 l 222 111 q 217 167 217 135 q 222 222 217 200 q 217 278 217 246 q 222 333 217 311 q 217 389 217 357 q 222 444 217 422 q 217 500 217 468 q 222 556 217 533 q 217 611 217 579 q 222 667 217 644 l 139 667 q 133 722 133 690 q 139 778 133 756 l 417 778 q 422 722 422 756 q 417 667 422 690 l 333 667 q 339 611 339 644 q 333 556 339 579 q 339 500 339 533 q 333 444 339 468 q 339 389 339 422 q 333 333 339 357 q 339 278 339 311 q 333 222 339 246 q 339 167 339 200 q 333 111 339 135 l 417 111 z "},"Ĳ":{"ha":556,"x_min":50,"x_max":506,"o":"m 167 778 q 172 722 172 756 q 167 667 172 690 q 172 611 172 644 q 167 556 172 579 q 172 500 172 533 q 167 444 172 468 q 172 389 172 422 q 167 333 172 357 q 172 278 172 311 q 167 222 172 246 q 172 167 172 200 q 167 111 172 135 q 172 56 172 89 q 167 0 172 24 l 56 0 q 50 56 50 24 q 56 111 50 89 q 50 167 50 135 q 56 222 50 200 q 50 278 50 246 q 56 333 50 311 q 50 389 50 357 q 56 444 50 422 q 50 500 50 468 q 56 556 50 533 q 50 611 50 579 q 56 667 50 644 q 50 722 50 690 q 56 778 50 756 l 167 778 m 500 667 q 506 611 506 644 q 500 556 506 579 q 506 500 506 533 q 500 444 506 468 q 506 389 506 422 q 500 333 506 357 q 506 278 506 311 q 500 222 506 246 q 506 167 506 200 q 500 111 506 135 l 444 111 q 450 56 450 89 q 444 0 450 24 l 250 0 q 244 56 244 24 q 250 111 244 89 l 389 111 q 383 167 383 135 q 389 222 383 200 q 383 278 383 246 q 389 333 383 311 q 383 389 383 357 q 389 444 383 422 q 383 500 383 468 q 389 556 383 533 q 383 611 383 579 q 389 667 383 644 q 383 722 383 690 q 389 778 383 756 l 500 778 q 506 722 506 756 q 500 667 506 690 z "},"Í":{"ha":556,"x_min":133,"x_max":422,"o":"m 222 889 q 217 944 217 913 q 222 1000 217 978 l 278 1000 q 272 1056 272 1024 q 278 1111 272 1089 l 389 1111 q 394 1056 394 1089 q 389 1000 394 1024 l 333 1000 q 339 944 339 978 q 333 889 339 913 l 222 889 m 417 111 q 422 56 422 89 q 417 0 422 24 l 139 0 q 133 56 133 24 q 139 111 133 89 l 222 111 q 217 167 217 135 q 222 222 217 200 q 217 278 217 246 q 222 333 217 311 q 217 389 217 357 q 222 444 217 422 q 217 500 217 468 q 222 556 217 533 q 217 611 217 579 q 222 667 217 644 l 139 667 q 133 722 133 690 q 139 778 133 756 l 417 778 q 422 722 422 756 q 417 667 422 690 l 333 667 q 339 611 339 644 q 333 556 339 579 q 339 500 339 533 q 333 444 339 468 q 339 389 339 422 q 333 333 339 357 q 339 278 339 311 q 333 222 339 246 q 339 167 339 200 q 333 111 339 135 l 417 111 z "},"Ĭ":{"ha":556,"x_min":50,"x_max":506,"o":"m 417 111 q 422 56 422 89 q 417 0 422 24 l 139 0 q 133 56 133 24 q 139 111 133 89 l 222 111 q 217 167 217 135 q 222 222 217 200 q 217 278 217 246 q 222 333 217 311 q 217 389 217 357 q 222 444 217 422 q 217 500 217 468 q 222 556 217 533 q 217 611 217 579 q 222 667 217 644 l 139 667 q 133 722 133 690 q 139 778 133 756 l 417 778 q 422 722 422 756 q 417 667 422 690 l 333 667 q 339 611 339 644 q 333 556 339 579 q 339 500 339 533 q 333 444 339 468 q 339 389 339 422 q 333 333 339 357 q 339 278 339 311 q 333 222 339 246 q 339 167 339 200 q 333 111 339 135 l 417 111 m 167 1111 q 172 1056 172 1089 q 167 1000 172 1024 l 56 1000 q 50 1056 50 1024 q 56 1111 50 1089 l 167 1111 m 500 1111 q 506 1056 506 1089 q 500 1000 506 1024 l 389 1000 q 383 1056 383 1024 q 389 1111 383 1089 l 500 1111 m 389 1000 q 394 944 394 978 q 389 889 394 913 l 167 889 q 161 944 161 913 q 167 1000 161 978 l 389 1000 z "},"Î":{"ha":556,"x_min":119,"x_max":436,"o":"m 417 111 q 422 56 422 89 q 417 0 422 24 l 139 0 q 133 56 133 24 q 139 111 133 89 l 222 111 q 217 167 217 135 q 222 222 217 200 q 217 278 217 246 q 222 333 217 311 q 217 389 217 357 q 222 444 217 422 q 217 500 217 468 q 222 556 217 533 q 217 611 217 579 q 222 667 217 644 l 139 667 q 133 722 133 690 q 139 778 133 756 l 417 778 q 422 722 422 756 q 417 667 422 690 l 333 667 q 339 611 339 644 q 333 556 339 579 q 339 500 339 533 q 333 444 339 468 q 339 389 339 422 q 333 333 339 357 q 339 278 339 311 q 333 222 339 246 q 339 167 339 200 q 333 111 339 135 l 417 111 m 431 1000 q 436 944 436 978 q 431 889 436 913 l 319 889 q 314 944 314 913 q 319 1000 314 978 l 236 1000 q 242 944 242 978 q 236 889 242 913 l 125 889 q 119 944 119 913 q 125 1000 119 978 l 194 1000 q 189 1056 189 1024 q 194 1111 189 1089 l 361 1111 q 367 1056 367 1089 q 361 1000 367 1024 l 431 1000 z "},"Ȉ":{"ha":556,"x_min":106,"x_max":422,"o":"m 417 111 q 422 56 422 89 q 417 0 422 24 l 139 0 q 133 56 133 24 q 139 111 133 89 l 222 111 q 217 167 217 135 q 222 222 217 200 q 217 278 217 246 q 222 333 217 311 q 217 389 217 357 q 222 444 217 422 q 217 500 217 468 q 222 556 217 533 q 217 611 217 579 q 222 667 217 644 l 139 667 q 133 722 133 690 q 139 778 133 756 l 417 778 q 422 722 422 756 q 417 667 422 690 l 333 667 q 339 611 339 644 q 333 556 339 579 q 339 500 339 533 q 333 444 339 468 q 339 389 339 422 q 333 333 339 357 q 339 278 339 311 q 333 222 339 246 q 339 167 339 200 q 333 111 339 135 l 417 111 m 236 1000 q 242 944 242 978 q 236 889 242 913 l 153 889 q 147 944 147 913 q 153 1000 147 978 l 111 1000 q 106 1056 106 1024 q 111 1111 106 1089 l 194 1111 q 200 1056 200 1089 q 194 1000 200 1024 l 236 1000 m 403 1000 q 408 944 408 978 q 403 889 408 913 l 319 889 q 314 944 314 913 q 319 1000 314 978 l 278 1000 q 272 1056 272 1024 q 278 1111 272 1089 l 361 1111 q 367 1056 367 1089 q 361 1000 367 1024 l 403 1000 z "},"Ï":{"ha":556,"x_min":106,"x_max":450,"o":"m 228 944 q 222 889 228 913 l 111 889 q 106 944 106 913 q 111 1000 106 978 l 222 1000 q 228 944 228 978 m 444 1000 q 450 944 450 978 q 444 889 450 913 l 333 889 q 328 944 328 913 q 333 1000 328 978 l 444 1000 m 422 722 q 417 667 422 690 l 333 667 q 339 611 339 644 q 333 556 339 579 q 339 500 339 533 q 333 444 339 468 q 339 389 339 422 q 333 333 339 357 q 339 278 339 311 q 333 222 339 246 q 339 167 339 200 q 333 111 339 135 l 417 111 q 422 56 422 89 q 417 0 422 24 l 139 0 q 133 56 133 24 q 139 111 133 89 l 222 111 q 217 167 217 135 q 222 222 217 200 q 217 278 217 246 q 222 333 217 311 q 217 389 217 357 q 222 444 217 422 q 217 500 217 468 q 222 556 217 533 q 217 611 217 579 q 222 667 217 644 l 139 667 q 133 722 133 690 q 139 778 133 756 l 417 778 q 422 722 422 756 z "},"İ":{"ha":556,"x_min":133,"x_max":422,"o":"m 417 111 q 422 56 422 89 q 417 0 422 24 l 139 0 q 133 56 133 24 q 139 111 133 89 l 222 111 q 217 167 217 135 q 222 222 217 200 q 217 278 217 246 q 222 333 217 311 q 217 389 217 357 q 222 444 217 422 q 217 500 217 468 q 222 556 217 533 q 217 611 217 579 q 222 667 217 644 l 139 667 q 133 722 133 690 q 139 778 133 756 l 417 778 q 422 722 422 756 q 417 667 422 690 l 333 667 q 339 611 339 644 q 333 556 339 579 q 339 500 339 533 q 333 444 339 468 q 339 389 339 422 q 333 333 339 357 q 339 278 339 311 q 333 222 339 246 q 339 167 339 200 q 333 111 339 135 l 417 111 m 333 1000 q 339 944 339 978 q 333 889 339 913 l 222 889 q 217 944 217 913 q 222 1000 217 978 l 333 1000 z "},"Ị":{"ha":556,"x_min":133,"x_max":422,"o":"m 417 111 q 422 56 422 89 q 417 0 422 24 l 139 0 q 133 56 133 24 q 139 111 133 89 l 222 111 q 217 167 217 135 q 222 222 217 200 q 217 278 217 246 q 222 333 217 311 q 217 389 217 357 q 222 444 217 422 q 217 500 217 468 q 222 556 217 533 q 217 611 217 579 q 222 667 217 644 l 139 667 q 133 722 133 690 q 139 778 133 756 l 417 778 q 422 722 422 756 q 417 667 422 690 l 333 667 q 339 611 339 644 q 333 556 339 579 q 339 500 339 533 q 333 444 339 468 q 339 389 339 422 q 333 333 339 357 q 339 278 339 311 q 333 222 339 246 q 339 167 339 200 q 333 111 339 135 l 417 111 m 333 -111 q 339 -167 339 -133 q 333 -222 339 -199 l 222 -222 q 217 -167 217 -199 q 222 -111 217 -133 l 333 -111 z "},"Ì":{"ha":556,"x_min":133,"x_max":422,"o":"m 167 1000 q 161 1056 161 1024 q 167 1111 161 1089 l 278 1111 q 283 1056 283 1089 q 278 1000 283 1024 l 333 1000 q 339 944 339 978 q 333 889 339 913 l 222 889 q 217 944 217 913 q 222 1000 217 978 l 167 1000 m 417 111 q 422 56 422 89 q 417 0 422 24 l 139 0 q 133 56 133 24 q 139 111 133 89 l 222 111 q 217 167 217 135 q 222 222 217 200 q 217 278 217 246 q 222 333 217 311 q 217 389 217 357 q 222 444 217 422 q 217 500 217 468 q 222 556 217 533 q 217 611 217 579 q 222 667 217 644 l 139 667 q 133 722 133 690 q 139 778 133 756 l 417 778 q 422 722 422 756 q 417 667 422 690 l 333 667 q 339 611 339 644 q 333 556 339 579 q 339 500 339 533 q 333 444 339 468 q 339 389 339 422 q 333 333 339 357 q 339 278 339 311 q 333 222 339 246 q 339 167 339 200 q 333 111 339 135 l 417 111 z "},"Ỉ":{"ha":556,"x_min":133,"x_max":422,"o":"m 417 111 q 422 56 422 89 q 417 0 422 24 l 139 0 q 133 56 133 24 q 139 111 133 89 l 222 111 q 217 167 217 135 q 222 222 217 200 q 217 278 217 246 q 222 333 217 311 q 217 389 217 357 q 222 444 217 422 q 217 500 217 468 q 222 556 217 533 q 217 611 217 579 q 222 667 217 644 l 139 667 q 133 722 133 690 q 139 778 133 756 l 417 778 q 422 722 422 756 q 417 667 422 690 l 333 667 q 339 611 339 644 q 333 556 339 579 q 339 500 339 533 q 333 444 339 468 q 339 389 339 422 q 333 333 339 357 q 339 278 339 311 q 333 222 339 246 q 339 167 339 200 q 333 111 339 135 l 417 111 m 339 1056 q 333 1000 339 1024 q 339 944 339 978 q 333 889 339 913 l 278 889 q 272 944 272 913 q 278 1000 272 978 l 222 1000 q 217 1056 217 1024 q 222 1111 217 1089 l 333 1111 q 339 1056 339 1089 z "},"Ȋ":{"ha":556,"x_min":50,"x_max":506,"o":"m 417 111 q 422 56 422 89 q 417 0 422 24 l 139 0 q 133 56 133 24 q 139 111 133 89 l 222 111 q 217 167 217 135 q 222 222 217 200 q 217 278 217 246 q 222 333 217 311 q 217 389 217 357 q 222 444 217 422 q 217 500 217 468 q 222 556 217 533 q 217 611 217 579 q 222 667 217 644 l 139 667 q 133 722 133 690 q 139 778 133 756 l 417 778 q 422 722 422 756 q 417 667 422 690 l 333 667 q 339 611 339 644 q 333 556 339 579 q 339 500 339 533 q 333 444 339 468 q 339 389 339 422 q 333 333 339 357 q 339 278 339 311 q 333 222 339 246 q 339 167 339 200 q 333 111 339 135 l 417 111 m 389 1111 q 394 1056 394 1089 q 389 1000 394 1024 l 167 1000 q 161 1056 161 1024 q 167 1111 161 1089 l 389 1111 m 167 1000 q 172 944 172 978 q 167 889 172 913 l 56 889 q 50 944 50 913 q 56 1000 50 978 l 167 1000 m 500 1000 q 506 944 506 978 q 500 889 506 913 l 389 889 q 383 944 383 913 q 389 1000 383 978 l 500 1000 z "},"Ī":{"ha":556,"x_min":106,"x_max":450,"o":"m 417 111 q 422 56 422 89 q 417 0 422 24 l 139 0 q 133 56 133 24 q 139 111 133 89 l 222 111 q 217 167 217 135 q 222 222 217 200 q 217 278 217 246 q 222 333 217 311 q 217 389 217 357 q 222 444 217 422 q 217 500 217 468 q 222 556 217 533 q 217 611 217 579 q 222 667 217 644 l 139 667 q 133 722 133 690 q 139 778 133 756 l 417 778 q 422 722 422 756 q 417 667 422 690 l 333 667 q 339 611 339 644 q 333 556 339 579 q 339 500 339 533 q 333 444 339 468 q 339 389 339 422 q 333 333 339 357 q 339 278 339 311 q 333 222 339 246 q 339 167 339 200 q 333 111 339 135 l 417 111 m 444 1000 q 450 944 450 978 q 444 889 450 913 l 111 889 q 106 944 106 913 q 111 1000 106 978 l 444 1000 z "},"Į":{"ha":556,"x_min":133,"x_max":422,"o":"m 417 111 q 422 56 422 89 q 417 0 422 24 l 139 0 q 133 56 133 24 q 139 111 133 89 l 222 111 q 217 167 217 135 q 222 222 217 200 q 217 278 217 246 q 222 333 217 311 q 217 389 217 357 q 222 444 217 422 q 217 500 217 468 q 222 556 217 533 q 217 611 217 579 q 222 667 217 644 l 139 667 q 133 722 133 690 q 139 778 133 756 l 417 778 q 422 722 422 756 q 417 667 422 690 l 333 667 q 339 611 339 644 q 333 556 339 579 q 339 500 339 533 q 333 444 339 468 q 339 389 339 422 q 333 333 339 357 q 339 278 339 311 q 333 222 339 246 q 339 167 339 200 q 333 111 339 135 l 417 111 m 389 -111 q 394 -167 394 -133 q 389 -222 394 -199 l 278 -222 q 272 -167 272 -199 q 278 -111 272 -133 l 236 -111 q 231 -56 231 -87 q 236 0 231 -22 l 319 0 q 325 -56 325 -22 q 319 -111 325 -87 l 389 -111 z "},"Ĩ":{"ha":556,"x_min":50,"x_max":506,"o":"m 417 111 q 422 56 422 89 q 417 0 422 24 l 139 0 q 133 56 133 24 q 139 111 133 89 l 222 111 q 217 167 217 135 q 222 222 217 200 q 217 278 217 246 q 222 333 217 311 q 217 389 217 357 q 222 444 217 422 q 217 500 217 468 q 222 556 217 533 q 217 611 217 579 q 222 667 217 644 l 139 667 q 133 722 133 690 q 139 778 133 756 l 417 778 q 422 722 422 756 q 417 667 422 690 l 333 667 q 339 611 339 644 q 333 556 339 579 q 339 500 339 533 q 333 444 339 468 q 339 389 339 422 q 333 333 339 357 q 339 278 339 311 q 333 222 339 246 q 339 167 339 200 q 333 111 339 135 l 417 111 m 311 1056 q 306 1000 311 1024 l 417 1000 q 422 944 422 978 q 417 889 422 913 l 250 889 q 244 944 244 913 q 250 1000 244 978 l 139 1000 q 133 1056 133 1024 q 139 1111 133 1089 l 306 1111 q 311 1056 311 1089 m 506 1056 q 500 1000 506 1024 l 417 1000 q 411 1056 411 1024 q 417 1111 411 1089 l 500 1111 q 506 1056 506 1089 m 50 944 q 56 1000 50 978 l 139 1000 q 144 944 144 978 q 139 889 144 913 l 56 889 q 50 944 50 913 z "},"J":{"ha":556,"x_min":50,"x_max":478,"o":"m 478 722 q 472 667 478 690 l 389 667 q 394 611 394 644 q 389 556 394 579 q 394 500 394 533 q 389 444 394 468 q 394 389 394 422 q 389 333 394 357 q 394 278 394 311 q 389 222 394 246 q 394 167 394 200 q 389 111 394 135 l 333 111 q 339 56 339 89 q 333 0 339 24 l 111 0 q 106 56 106 24 q 111 111 106 89 l 56 111 q 50 167 50 135 q 56 222 50 200 l 167 222 q 172 167 172 200 q 167 111 172 135 l 278 111 q 272 167 272 135 q 278 222 272 200 q 272 278 272 246 q 278 333 272 311 q 272 389 272 357 q 278 444 272 422 q 272 500 272 468 q 278 556 272 533 q 272 611 272 579 q 278 667 272 644 l 194 667 q 189 722 189 690 q 194 778 189 756 l 472 778 q 478 722 478 756 z "},"Ĵ":{"ha":556,"x_min":50,"x_max":492,"o":"m 478 722 q 472 667 478 690 l 389 667 q 394 611 394 644 q 389 556 394 579 q 394 500 394 533 q 389 444 394 468 q 394 389 394 422 q 389 333 394 357 q 394 278 394 311 q 389 222 394 246 q 394 167 394 200 q 389 111 394 135 l 333 111 q 339 56 339 89 q 333 0 339 24 l 111 0 q 106 56 106 24 q 111 111 106 89 l 56 111 q 50 167 50 135 q 56 222 50 200 l 167 222 q 172 167 172 200 q 167 111 172 135 l 278 111 q 272 167 272 135 q 278 222 272 200 q 272 278 272 246 q 278 333 272 311 q 272 389 272 357 q 278 444 272 422 q 272 500 272 468 q 278 556 272 533 q 272 611 272 579 q 278 667 272 644 l 194 667 q 189 722 189 690 q 194 778 189 756 l 472 778 q 478 722 478 756 m 486 1000 q 492 944 492 978 q 486 889 492 913 l 375 889 q 369 944 369 913 q 375 1000 369 978 l 292 1000 q 297 944 297 978 q 292 889 297 913 l 181 889 q 175 944 175 913 q 181 1000 175 978 l 250 1000 q 244 1056 244 1024 q 250 1111 244 1089 l 417 1111 q 422 1056 422 1089 q 417 1000 422 1024 l 486 1000 z "},"K":{"ha":556,"x_min":50,"x_max":506,"o":"m 500 111 q 506 56 506 89 q 500 0 506 24 l 389 0 q 383 56 383 24 q 389 111 383 89 l 347 111 q 342 167 342 135 q 347 222 342 200 l 264 222 q 258 278 258 246 q 264 333 258 311 l 167 333 q 172 278 172 311 q 167 222 172 246 q 172 167 172 200 q 167 111 172 135 q 172 56 172 89 q 167 0 172 24 l 56 0 q 50 56 50 24 q 56 111 50 89 q 50 167 50 135 q 56 222 50 200 q 50 278 50 246 q 56 333 50 311 q 50 389 50 357 q 56 444 50 422 q 50 500 50 468 q 56 556 50 533 q 50 611 50 579 q 56 667 50 644 q 50 722 50 690 q 56 778 50 756 l 167 778 q 172 722 172 756 q 167 667 172 690 q 172 611 172 644 q 167 556 172 579 q 172 500 172 533 q 167 444 172 468 l 264 444 q 258 500 258 468 q 264 556 258 533 l 347 556 q 342 611 342 579 q 347 667 342 644 l 389 667 q 383 722 383 690 q 389 778 383 756 l 500 778 q 506 722 506 756 q 500 667 506 690 l 458 667 q 464 611 464 644 q 458 556 464 579 l 375 556 q 381 500 381 533 q 375 444 381 468 l 306 444 q 311 389 311 422 q 306 333 311 357 l 375 333 q 381 278 381 311 q 375 222 381 246 l 458 222 q 464 167 464 200 q 458 111 464 135 l 500 111 z "},"Ķ":{"ha":556,"x_min":50,"x_max":506,"o":"m 500 111 q 506 56 506 89 q 500 0 506 24 l 389 0 q 383 56 383 24 q 389 111 383 89 l 347 111 q 342 167 342 135 q 347 222 342 200 l 264 222 q 258 278 258 246 q 264 333 258 311 l 167 333 q 172 278 172 311 q 167 222 172 246 q 172 167 172 200 q 167 111 172 135 q 172 56 172 89 q 167 0 172 24 l 56 0 q 50 56 50 24 q 56 111 50 89 q 50 167 50 135 q 56 222 50 200 q 50 278 50 246 q 56 333 50 311 q 50 389 50 357 q 56 444 50 422 q 50 500 50 468 q 56 556 50 533 q 50 611 50 579 q 56 667 50 644 q 50 722 50 690 q 56 778 50 756 l 167 778 q 172 722 172 756 q 167 667 172 690 q 172 611 172 644 q 167 556 172 579 q 172 500 172 533 q 167 444 172 468 l 264 444 q 258 500 258 468 q 264 556 258 533 l 347 556 q 342 611 342 579 q 347 667 342 644 l 389 667 q 383 722 383 690 q 389 778 383 756 l 500 778 q 506 722 506 756 q 500 667 506 690 l 458 667 q 464 611 464 644 q 458 556 464 579 l 375 556 q 381 500 381 533 q 375 444 381 468 l 306 444 q 311 389 311 422 q 306 333 311 357 l 375 333 q 381 278 381 311 q 375 222 381 246 l 458 222 q 464 167 464 200 q 458 111 464 135 l 500 111 m 339 -167 q 333 -222 339 -199 q 339 -278 339 -244 q 333 -333 339 -310 l 278 -333 q 272 -278 272 -310 q 278 -222 272 -244 l 222 -222 q 217 -167 217 -199 q 222 -111 217 -133 l 333 -111 q 339 -167 339 -133 z "},"L":{"ha":556,"x_min":106,"x_max":506,"o":"m 500 111 q 506 56 506 89 q 500 0 506 24 l 111 0 q 106 56 106 24 q 111 111 106 89 q 106 167 106 135 q 111 222 106 200 q 106 278 106 246 q 111 333 106 311 q 106 389 106 357 q 111 444 106 422 q 106 500 106 468 q 111 556 106 533 q 106 611 106 579 q 111 667 106 644 q 106 722 106 690 q 111 778 106 756 l 222 778 q 228 722 228 756 q 222 667 228 690 q 228 611 228 644 q 222 556 228 579 q 228 500 228 533 q 222 444 228 468 q 228 389 228 422 q 222 333 228 357 q 228 278 228 311 q 222 222 228 246 q 228 167 228 200 q 222 111 228 135 l 500 111 z "},"Ǉ":{"ha":556,"x_min":50,"x_max":506,"o":"m 264 111 q 269 56 269 89 q 264 0 269 24 l 56 0 q 50 56 50 24 q 56 111 50 89 q 50 167 50 135 q 56 222 50 200 q 50 278 50 246 q 56 333 50 311 q 50 389 50 357 q 56 444 50 422 q 50 500 50 468 q 56 556 50 533 q 50 611 50 579 q 56 667 50 644 q 50 722 50 690 q 56 778 50 756 l 167 778 q 172 722 172 756 q 167 667 172 690 q 172 611 172 644 q 167 556 172 579 q 172 500 172 533 q 167 444 172 468 q 172 389 172 422 q 167 333 172 357 q 172 278 172 311 q 167 222 172 246 q 172 167 172 200 q 167 111 172 135 l 264 111 m 500 667 q 506 611 506 644 q 500 556 506 579 q 506 500 506 533 q 500 444 506 468 q 506 389 506 422 q 500 333 506 357 q 506 278 506 311 q 500 222 506 246 q 506 167 506 200 q 500 111 506 135 l 444 111 q 450 56 450 89 q 444 0 450 24 l 333 0 q 328 56 328 24 q 333 111 328 89 l 389 111 q 383 167 383 135 q 389 222 383 200 q 383 278 383 246 q 389 333 383 311 q 383 389 383 357 q 389 444 383 422 q 383 500 383 468 q 389 556 383 533 q 383 611 383 579 q 389 667 383 644 q 383 722 383 690 q 389 778 383 756 l 500 778 q 506 722 506 756 q 500 667 506 690 z "},"Ĺ":{"ha":556,"x_min":106,"x_max":506,"o":"m 222 889 q 217 944 217 913 q 222 1000 217 978 l 278 1000 q 272 1056 272 1024 q 278 1111 272 1089 l 389 1111 q 394 1056 394 1089 q 389 1000 394 1024 l 333 1000 q 339 944 339 978 q 333 889 339 913 l 222 889 m 500 111 q 506 56 506 89 q 500 0 506 24 l 111 0 q 106 56 106 24 q 111 111 106 89 q 106 167 106 135 q 111 222 106 200 q 106 278 106 246 q 111 333 106 311 q 106 389 106 357 q 111 444 106 422 q 106 500 106 468 q 111 556 106 533 q 106 611 106 579 q 111 667 106 644 q 106 722 106 690 q 111 778 106 756 l 222 778 q 228 722 228 756 q 222 667 228 690 q 228 611 228 644 q 222 556 228 579 q 228 500 228 533 q 222 444 228 468 q 228 389 228 422 q 222 333 228 357 q 228 278 228 311 q 222 222 228 246 q 228 167 228 200 q 222 111 228 135 l 500 111 z "},"Ľ":{"ha":556,"x_min":106,"x_max":506,"o":"m 500 111 q 506 56 506 89 q 500 0 506 24 l 111 0 q 106 56 106 24 q 111 111 106 89 q 106 167 106 135 q 111 222 106 200 q 106 278 106 246 q 111 333 106 311 q 106 389 106 357 q 111 444 106 422 q 106 500 106 468 q 111 556 106 533 q 106 611 106 579 q 111 667 106 644 q 106 722 106 690 q 111 778 106 756 l 222 778 q 228 722 228 756 q 222 667 228 690 q 228 611 228 644 q 222 556 228 579 q 228 500 228 533 q 222 444 228 468 q 228 389 228 422 q 222 333 228 357 q 228 278 228 311 q 222 222 228 246 q 228 167 228 200 q 222 111 228 135 l 500 111 m 478 722 q 472 667 478 690 q 478 611 478 644 q 472 556 478 579 l 389 556 q 383 611 383 579 q 389 667 383 644 q 383 722 383 690 q 389 778 383 756 l 472 778 q 478 722 478 756 z "},"Ļ":{"ha":556,"x_min":106,"x_max":506,"o":"m 500 111 q 506 56 506 89 q 500 0 506 24 l 111 0 q 106 56 106 24 q 111 111 106 89 q 106 167 106 135 q 111 222 106 200 q 106 278 106 246 q 111 333 106 311 q 106 389 106 357 q 111 444 106 422 q 106 500 106 468 q 111 556 106 533 q 106 611 106 579 q 111 667 106 644 q 106 722 106 690 q 111 778 106 756 l 222 778 q 228 722 228 756 q 222 667 228 690 q 228 611 228 644 q 222 556 228 579 q 228 500 228 533 q 222 444 228 468 q 228 389 228 422 q 222 333 228 357 q 228 278 228 311 q 222 222 228 246 q 228 167 228 200 q 222 111 228 135 l 500 111 m 367 -167 q 361 -222 367 -199 q 367 -278 367 -244 q 361 -333 367 -310 l 306 -333 q 300 -278 300 -310 q 306 -222 300 -244 l 250 -222 q 244 -167 244 -199 q 250 -111 244 -133 l 361 -111 q 367 -167 367 -133 z "},"Ŀ":{"ha":556,"x_min":106,"x_max":506,"o":"m 500 111 q 506 56 506 89 q 500 0 506 24 l 111 0 q 106 56 106 24 q 111 111 106 89 q 106 167 106 135 q 111 222 106 200 q 106 278 106 246 q 111 333 106 311 q 106 389 106 357 q 111 444 106 422 q 106 500 106 468 q 111 556 106 533 q 106 611 106 579 q 111 667 106 644 q 106 722 106 690 q 111 778 106 756 l 222 778 q 228 722 228 756 q 222 667 228 690 q 228 611 228 644 q 222 556 228 579 q 228 500 228 533 q 222 444 228 468 q 228 389 228 422 q 222 333 228 357 q 228 278 228 311 q 222 222 228 246 q 228 167 228 200 q 222 111 228 135 l 500 111 m 333 333 q 328 389 328 357 q 333 444 328 422 l 444 444 q 450 389 450 422 q 444 333 450 357 l 333 333 z "},"ǈ":{"ha":556,"x_min":50,"x_max":506,"o":"m 283 56 q 278 0 283 24 l 56 0 q 50 56 50 24 q 56 111 50 89 q 50 167 50 135 q 56 222 50 200 q 50 278 50 246 q 56 333 50 311 q 50 389 50 357 q 56 444 50 422 q 50 500 50 468 q 56 556 50 533 q 50 611 50 579 q 56 667 50 644 q 50 722 50 690 q 56 778 50 756 l 167 778 q 172 722 172 756 q 167 667 172 690 q 172 611 172 644 q 167 556 172 579 q 172 500 172 533 q 167 444 172 468 q 172 389 172 422 q 167 333 172 357 q 172 278 172 311 q 167 222 172 246 q 172 167 172 200 q 167 111 172 135 l 278 111 q 283 56 283 89 m 389 667 q 383 722 383 690 q 389 778 383 756 l 500 778 q 506 722 506 756 q 500 667 506 690 l 389 667 m 500 556 q 506 500 506 533 q 500 444 506 468 q 506 389 506 422 q 500 333 506 357 q 506 278 506 311 q 500 222 506 246 q 506 167 506 200 q 500 111 506 135 q 506 56 506 89 q 500 0 506 24 l 444 0 q 450 -56 450 -22 q 444 -111 450 -87 l 389 -111 q 394 -167 394 -133 q 389 -222 394 -199 l 222 -222 q 217 -167 217 -199 q 222 -111 217 -133 l 333 -111 q 328 -56 328 -87 q 333 0 328 -22 l 389 0 q 383 56 383 24 q 389 111 383 89 q 383 167 383 135 q 389 222 383 200 q 383 278 383 246 q 389 333 383 311 q 383 389 383 357 q 389 444 383 422 l 333 444 q 328 500 328 468 q 333 556 328 533 l 500 556 z "},"Ł":{"ha":556,"x_min":50,"x_max":506,"o":"m 500 111 q 506 56 506 89 q 500 0 506 24 l 111 0 q 106 56 106 24 q 111 111 106 89 q 106 167 106 135 q 111 222 106 200 l 56 222 q 50 278 50 246 q 56 333 50 311 l 111 333 q 106 389 106 357 q 111 444 106 422 q 106 500 106 468 q 111 556 106 533 q 106 611 106 579 q 111 667 106 644 q 106 722 106 690 q 111 778 106 756 l 222 778 q 228 722 228 756 q 222 667 228 690 q 228 611 228 644 q 222 556 228 579 q 228 500 228 533 q 222 444 228 468 l 278 444 q 283 389 283 422 q 278 333 283 357 l 222 333 q 228 278 228 311 q 222 222 228 246 q 228 167 228 200 q 222 111 228 135 l 500 111 m 367 500 q 361 444 367 468 l 278 444 q 272 500 272 468 q 278 556 272 533 l 361 556 q 367 500 367 533 z "},"M":{"ha":556,"x_min":50,"x_max":506,"o":"m 500 667 q 506 611 506 644 q 500 556 506 579 q 506 500 506 533 q 500 444 506 468 q 506 389 506 422 q 500 333 506 357 q 506 278 506 311 q 500 222 506 246 q 506 167 506 200 q 500 111 506 135 q 506 56 506 89 q 500 0 506 24 l 389 0 q 383 56 383 24 q 389 111 383 89 q 383 167 383 135 q 389 222 383 200 q 383 278 383 246 q 389 333 383 311 q 383 389 383 357 q 389 444 383 422 q 383 500 383 468 q 389 556 383 533 l 347 556 q 353 500 353 533 q 347 444 353 468 q 353 389 353 422 q 347 333 353 357 l 319 333 q 325 278 325 311 q 319 222 325 246 q 325 167 325 200 q 319 111 325 135 l 236 111 q 231 167 231 135 q 236 222 231 200 q 231 278 231 246 q 236 333 231 311 l 208 333 q 203 389 203 357 q 208 444 203 422 q 203 500 203 468 q 208 556 203 533 l 167 556 q 172 500 172 533 q 167 444 172 468 q 172 389 172 422 q 167 333 172 357 q 172 278 172 311 q 167 222 172 246 q 172 167 172 200 q 167 111 172 135 q 172 56 172 89 q 167 0 172 24 l 56 0 q 50 56 50 24 q 56 111 50 89 q 50 167 50 135 q 56 222 50 200 q 50 278 50 246 q 56 333 50 311 q 50 389 50 357 q 56 444 50 422 q 50 500 50 468 q 56 556 50 533 q 50 611 50 579 q 56 667 50 644 q 50 722 50 690 q 56 778 50 756 l 194 778 q 200 722 200 756 q 194 667 200 690 l 236 667 q 242 611 242 644 q 236 556 242 579 l 257 556 q 263 500 263 533 q 257 444 263 468 l 299 444 q 293 500 293 468 q 299 556 293 533 l 319 556 q 314 611 314 579 q 319 667 314 644 l 361 667 q 356 722 356 690 q 361 778 356 756 l 500 778 q 506 722 506 756 q 500 667 506 690 z "},"N":{"ha":556,"x_min":50,"x_max":506,"o":"m 500 667 q 506 611 506 644 q 500 556 506 579 q 506 500 506 533 q 500 444 506 468 q 506 389 506 422 q 500 333 506 357 q 506 278 506 311 q 500 222 506 246 q 506 167 506 200 q 500 111 506 135 q 506 56 506 89 q 500 0 506 24 l 389 0 q 383 56 383 24 q 389 111 383 89 l 319 111 q 314 167 314 135 q 319 222 314 200 l 278 222 q 272 278 272 246 q 278 333 272 311 l 222 333 q 217 389 217 357 q 222 444 217 422 l 167 444 q 172 389 172 422 q 167 333 172 357 q 172 278 172 311 q 167 222 172 246 q 172 167 172 200 q 167 111 172 135 q 172 56 172 89 q 167 0 172 24 l 56 0 q 50 56 50 24 q 56 111 50 89 q 50 167 50 135 q 56 222 50 200 q 50 278 50 246 q 56 333 50 311 q 50 389 50 357 q 56 444 50 422 q 50 500 50 468 q 56 556 50 533 q 50 611 50 579 q 56 667 50 644 q 50 722 50 690 q 56 778 50 756 l 194 778 q 200 722 200 756 q 194 667 200 690 l 236 667 q 242 611 242 644 q 236 556 242 579 l 278 556 q 283 500 283 533 q 278 444 283 468 l 333 444 q 339 389 339 422 q 333 333 339 357 l 389 333 q 383 389 383 357 q 389 444 383 422 q 383 500 383 468 q 389 556 383 533 q 383 611 383 579 q 389 667 383 644 q 383 722 383 690 q 389 778 383 756 l 500 778 q 506 722 506 756 q 500 667 506 690 z "},"Ǌ":{"ha":556,"x_min":50,"x_max":506,"o":"m 319 778 q 325 722 325 756 q 319 667 325 690 q 325 611 325 644 q 319 556 325 579 q 325 500 325 533 q 319 444 325 468 q 325 389 325 422 q 319 333 325 357 q 325 278 325 311 q 319 222 325 246 q 325 167 325 200 q 319 111 325 135 q 325 56 325 89 q 319 0 325 24 l 236 0 q 231 56 231 24 q 236 111 231 89 q 231 167 231 135 q 236 222 231 200 q 231 278 231 246 q 236 333 231 311 l 208 333 q 203 389 203 357 q 208 444 203 422 l 160 444 q 154 500 154 468 q 160 556 154 533 l 125 556 q 131 500 131 533 q 125 444 131 468 l 139 444 q 144 389 144 422 q 139 333 144 357 q 144 278 144 311 q 139 222 144 246 q 144 167 144 200 q 139 111 144 135 q 144 56 144 89 q 139 0 144 24 l 56 0 q 50 56 50 24 q 56 111 50 89 q 50 167 50 135 q 56 222 50 200 q 50 278 50 246 q 56 333 50 311 q 50 389 50 357 q 56 444 50 422 q 50 500 50 468 q 56 556 50 533 q 50 611 50 579 q 56 667 50 644 q 50 722 50 690 q 56 778 50 756 l 139 778 q 144 722 144 756 q 139 667 144 690 l 167 667 q 172 611 172 644 q 167 556 172 579 l 215 556 q 221 500 221 533 q 215 444 221 468 l 250 444 q 244 500 244 468 q 250 556 244 533 l 236 556 q 231 611 231 579 q 236 667 231 644 q 231 722 231 690 q 236 778 231 756 l 319 778 m 500 667 q 506 611 506 644 q 500 556 506 579 q 506 500 506 533 q 500 444 506 468 q 506 389 506 422 q 500 333 506 357 q 506 278 506 311 q 500 222 506 246 q 506 167 506 200 q 500 111 506 135 l 461 111 q 467 56 467 89 q 461 0 467 24 l 378 0 q 372 56 372 24 q 378 111 372 89 l 417 111 q 411 167 411 135 q 417 222 411 200 q 411 278 411 246 q 417 333 411 311 q 411 389 411 357 q 417 444 411 422 q 411 500 411 468 q 417 556 411 533 q 411 611 411 579 q 417 667 411 644 l 389 667 q 383 722 383 690 q 389 778 383 756 l 500 778 q 506 722 506 756 q 500 667 506 690 z "},"Ń":{"ha":556,"x_min":50,"x_max":506,"o":"m 222 889 q 217 944 217 913 q 222 1000 217 978 l 278 1000 q 272 1056 272 1024 q 278 1111 272 1089 l 389 1111 q 394 1056 394 1089 q 389 1000 394 1024 l 333 1000 q 339 944 339 978 q 333 889 339 913 l 222 889 m 500 667 q 506 611 506 644 q 500 556 506 579 q 506 500 506 533 q 500 444 506 468 q 506 389 506 422 q 500 333 506 357 q 506 278 506 311 q 500 222 506 246 q 506 167 506 200 q 500 111 506 135 q 506 56 506 89 q 500 0 506 24 l 389 0 q 383 56 383 24 q 389 111 383 89 l 319 111 q 314 167 314 135 q 319 222 314 200 l 278 222 q 272 278 272 246 q 278 333 272 311 l 222 333 q 217 389 217 357 q 222 444 217 422 l 167 444 q 172 389 172 422 q 167 333 172 357 q 172 278 172 311 q 167 222 172 246 q 172 167 172 200 q 167 111 172 135 q 172 56 172 89 q 167 0 172 24 l 56 0 q 50 56 50 24 q 56 111 50 89 q 50 167 50 135 q 56 222 50 200 q 50 278 50 246 q 56 333 50 311 q 50 389 50 357 q 56 444 50 422 q 50 500 50 468 q 56 556 50 533 q 50 611 50 579 q 56 667 50 644 q 50 722 50 690 q 56 778 50 756 l 194 778 q 200 722 200 756 q 194 667 200 690 l 236 667 q 242 611 242 644 q 236 556 242 579 l 278 556 q 283 500 283 533 q 278 444 283 468 l 333 444 q 339 389 339 422 q 333 333 339 357 l 389 333 q 383 389 383 357 q 389 444 383 422 q 383 500 383 468 q 389 556 383 533 q 383 611 383 579 q 389 667 383 644 q 383 722 383 690 q 389 778 383 756 l 500 778 q 506 722 506 756 q 500 667 506 690 z "},"Ň":{"ha":556,"x_min":50,"x_max":506,"o":"m 500 667 q 506 611 506 644 q 500 556 506 579 q 506 500 506 533 q 500 444 506 468 q 506 389 506 422 q 500 333 506 357 q 506 278 506 311 q 500 222 506 246 q 506 167 506 200 q 500 111 506 135 q 506 56 506 89 q 500 0 506 24 l 389 0 q 383 56 383 24 q 389 111 383 89 l 319 111 q 314 167 314 135 q 319 222 314 200 l 278 222 q 272 278 272 246 q 278 333 272 311 l 222 333 q 217 389 217 357 q 222 444 217 422 l 167 444 q 172 389 172 422 q 167 333 172 357 q 172 278 172 311 q 167 222 172 246 q 172 167 172 200 q 167 111 172 135 q 172 56 172 89 q 167 0 172 24 l 56 0 q 50 56 50 24 q 56 111 50 89 q 50 167 50 135 q 56 222 50 200 q 50 278 50 246 q 56 333 50 311 q 50 389 50 357 q 56 444 50 422 q 50 500 50 468 q 56 556 50 533 q 50 611 50 579 q 56 667 50 644 q 50 722 50 690 q 56 778 50 756 l 194 778 q 200 722 200 756 q 194 667 200 690 l 236 667 q 242 611 242 644 q 236 556 242 579 l 278 556 q 283 500 283 533 q 278 444 283 468 l 333 444 q 339 389 339 422 q 333 333 339 357 l 389 333 q 383 389 383 357 q 389 444 383 422 q 383 500 383 468 q 389 556 383 533 q 383 611 383 579 q 389 667 383 644 q 383 722 383 690 q 389 778 383 756 l 500 778 q 506 722 506 756 q 500 667 506 690 m 436 1056 q 431 1000 436 1024 l 361 1000 q 367 944 367 978 q 361 889 367 913 l 194 889 q 189 944 189 913 q 194 1000 189 978 l 125 1000 q 119 1056 119 1024 q 125 1111 119 1089 l 236 1111 q 242 1056 242 1089 q 236 1000 242 1024 l 319 1000 q 314 1056 314 1024 q 319 1111 314 1089 l 431 1111 q 436 1056 436 1089 z "},"Ņ":{"ha":556,"x_min":50,"x_max":506,"o":"m 500 667 q 506 611 506 644 q 500 556 506 579 q 506 500 506 533 q 500 444 506 468 q 506 389 506 422 q 500 333 506 357 q 506 278 506 311 q 500 222 506 246 q 506 167 506 200 q 500 111 506 135 q 506 56 506 89 q 500 0 506 24 l 389 0 q 383 56 383 24 q 389 111 383 89 l 319 111 q 314 167 314 135 q 319 222 314 200 l 278 222 q 272 278 272 246 q 278 333 272 311 l 222 333 q 217 389 217 357 q 222 444 217 422 l 167 444 q 172 389 172 422 q 167 333 172 357 q 172 278 172 311 q 167 222 172 246 q 172 167 172 200 q 167 111 172 135 q 172 56 172 89 q 167 0 172 24 l 56 0 q 50 56 50 24 q 56 111 50 89 q 50 167 50 135 q 56 222 50 200 q 50 278 50 246 q 56 333 50 311 q 50 389 50 357 q 56 444 50 422 q 50 500 50 468 q 56 556 50 533 q 50 611 50 579 q 56 667 50 644 q 50 722 50 690 q 56 778 50 756 l 194 778 q 200 722 200 756 q 194 667 200 690 l 236 667 q 242 611 242 644 q 236 556 242 579 l 278 556 q 283 500 283 533 q 278 444 283 468 l 333 444 q 339 389 339 422 q 333 333 339 357 l 389 333 q 383 389 383 357 q 389 444 383 422 q 383 500 383 468 q 389 556 383 533 q 383 611 383 579 q 389 667 383 644 q 383 722 383 690 q 389 778 383 756 l 500 778 q 506 722 506 756 q 500 667 506 690 m 339 -167 q 333 -222 339 -199 q 339 -278 339 -244 q 333 -333 339 -310 l 278 -333 q 272 -278 272 -310 q 278 -222 272 -244 l 222 -222 q 217 -167 217 -199 q 222 -111 217 -133 l 333 -111 q 339 -167 339 -133 z "},"Ŋ":{"ha":556,"x_min":50,"x_max":506,"o":"m 500 667 q 506 611 506 644 q 500 556 506 579 q 506 500 506 533 q 500 444 506 468 q 506 389 506 422 q 500 333 506 357 q 506 278 506 311 q 500 222 506 246 q 506 167 506 200 q 500 111 506 135 q 506 56 506 89 q 500 0 506 24 q 506 -56 506 -22 q 500 -111 506 -87 l 444 -111 q 450 -167 450 -133 q 444 -222 450 -199 l 250 -222 q 244 -167 244 -199 q 250 -111 244 -133 l 389 -111 q 383 -56 383 -87 q 389 0 383 -22 q 383 56 383 24 q 389 111 383 89 l 319 111 q 314 167 314 135 q 319 222 314 200 l 278 222 q 272 278 272 246 q 278 333 272 311 l 222 333 q 217 389 217 357 q 222 444 217 422 l 167 444 q 172 389 172 422 q 167 333 172 357 q 172 278 172 311 q 167 222 172 246 q 172 167 172 200 q 167 111 172 135 q 172 56 172 89 q 167 0 172 24 l 56 0 q 50 56 50 24 q 56 111 50 89 q 50 167 50 135 q 56 222 50 200 q 50 278 50 246 q 56 333 50 311 q 50 389 50 357 q 56 444 50 422 q 50 500 50 468 q 56 556 50 533 q 50 611 50 579 q 56 667 50 644 q 50 722 50 690 q 56 778 50 756 l 194 778 q 200 722 200 756 q 194 667 200 690 l 236 667 q 242 611 242 644 q 236 556 242 579 l 278 556 q 283 500 283 533 q 278 444 283 468 l 333 444 q 339 389 339 422 q 333 333 339 357 l 389 333 q 383 389 383 357 q 389 444 383 422 q 383 500 383 468 q 389 556 383 533 q 383 611 383 579 q 389 667 383 644 q 383 722 383 690 q 389 778 383 756 l 500 778 q 506 722 506 756 q 500 667 506 690 z "},"ǋ":{"ha":556,"x_min":50,"x_max":508,"o":"m 325 56 q 319 0 325 24 l 236 0 q 231 56 231 24 q 236 111 231 89 q 231 167 231 135 q 236 222 231 200 q 231 278 231 246 q 236 333 231 311 l 208 333 q 203 389 203 357 q 208 444 203 422 l 160 444 q 154 500 154 468 q 160 556 154 533 l 125 556 q 131 500 131 533 q 125 444 131 468 l 139 444 q 144 389 144 422 q 139 333 144 357 q 144 278 144 311 q 139 222 144 246 q 144 167 144 200 q 139 111 144 135 q 144 56 144 89 q 139 0 144 24 l 56 0 q 50 56 50 24 q 56 111 50 89 q 50 167 50 135 q 56 222 50 200 q 50 278 50 246 q 56 333 50 311 q 50 389 50 357 q 56 444 50 422 q 50 500 50 468 q 56 556 50 533 q 50 611 50 579 q 56 667 50 644 q 50 722 50 690 q 56 778 50 756 l 139 778 q 144 722 144 756 q 139 667 144 690 l 167 667 q 172 611 172 644 q 167 556 172 579 l 215 556 q 221 500 221 533 q 215 444 221 468 l 250 444 q 244 500 244 468 q 250 556 244 533 l 236 556 q 231 611 231 579 q 236 667 231 644 q 231 722 231 690 q 236 778 231 756 l 319 778 q 325 722 325 756 q 319 667 325 690 q 325 611 325 644 q 319 556 325 579 q 325 500 325 533 q 319 444 325 468 q 325 389 325 422 q 319 333 325 357 q 325 278 325 311 q 319 222 325 246 q 325 167 325 200 q 319 111 325 135 q 325 56 325 89 m 419 667 q 414 722 414 690 q 419 778 414 756 l 503 778 q 508 722 508 756 q 503 667 508 690 l 419 667 m 500 556 q 506 500 506 533 q 500 444 506 468 q 506 389 506 422 q 500 333 506 357 q 506 278 506 311 q 500 222 506 246 q 506 167 506 200 q 500 111 506 135 q 506 56 506 89 q 500 0 506 24 l 461 0 q 467 -56 467 -22 q 461 -111 467 -87 l 433 -111 q 439 -167 439 -133 q 433 -222 439 -199 l 322 -222 q 317 -167 317 -199 q 322 -111 317 -133 l 378 -111 q 372 -56 372 -87 q 378 0 372 -22 l 417 0 q 411 56 411 24 q 417 111 411 89 q 411 167 411 135 q 417 222 411 200 q 411 278 411 246 q 417 333 411 311 q 411 389 411 357 q 417 444 411 422 q 411 500 411 468 q 417 556 411 533 l 500 556 z "},"Ñ":{"ha":556,"x_min":50,"x_max":506,"o":"m 500 667 q 506 611 506 644 q 500 556 506 579 q 506 500 506 533 q 500 444 506 468 q 506 389 506 422 q 500 333 506 357 q 506 278 506 311 q 500 222 506 246 q 506 167 506 200 q 500 111 506 135 q 506 56 506 89 q 500 0 506 24 l 389 0 q 383 56 383 24 q 389 111 383 89 l 319 111 q 314 167 314 135 q 319 222 314 200 l 278 222 q 272 278 272 246 q 278 333 272 311 l 222 333 q 217 389 217 357 q 222 444 217 422 l 167 444 q 172 389 172 422 q 167 333 172 357 q 172 278 172 311 q 167 222 172 246 q 172 167 172 200 q 167 111 172 135 q 172 56 172 89 q 167 0 172 24 l 56 0 q 50 56 50 24 q 56 111 50 89 q 50 167 50 135 q 56 222 50 200 q 50 278 50 246 q 56 333 50 311 q 50 389 50 357 q 56 444 50 422 q 50 500 50 468 q 56 556 50 533 q 50 611 50 579 q 56 667 50 644 q 50 722 50 690 q 56 778 50 756 l 194 778 q 200 722 200 756 q 194 667 200 690 l 236 667 q 242 611 242 644 q 236 556 242 579 l 278 556 q 283 500 283 533 q 278 444 283 468 l 333 444 q 339 389 339 422 q 333 333 339 357 l 389 333 q 383 389 383 357 q 389 444 383 422 q 383 500 383 468 q 389 556 383 533 q 383 611 383 579 q 389 667 383 644 q 383 722 383 690 q 389 778 383 756 l 500 778 q 506 722 506 756 q 500 667 506 690 m 311 1056 q 306 1000 311 1024 l 417 1000 q 422 944 422 978 q 417 889 422 913 l 250 889 q 244 944 244 913 q 250 1000 244 978 l 139 1000 q 133 1056 133 1024 q 139 1111 133 1089 l 306 1111 q 311 1056 311 1089 m 506 1056 q 500 1000 506 1024 l 417 1000 q 411 1056 411 1024 q 417 1111 411 1089 l 500 1111 q 506 1056 506 1089 m 50 944 q 56 1000 50 978 l 139 1000 q 144 944 144 978 q 139 889 144 913 l 56 889 q 50 944 50 913 z "},"O":{"ha":556,"x_min":50,"x_max":506,"o":"m 500 444 q 506 389 506 422 q 500 333 506 357 q 506 278 506 311 q 500 222 506 246 l 458 222 q 464 167 464 200 q 458 111 464 135 l 389 111 q 394 56 394 89 q 389 0 394 24 l 167 0 q 161 56 161 24 q 167 111 161 89 l 97 111 q 92 167 92 135 q 97 222 92 200 l 56 222 q 50 278 50 246 q 56 333 50 311 q 50 389 50 357 q 56 444 50 422 q 50 500 50 468 q 56 556 50 533 l 97 556 q 92 611 92 579 q 97 667 92 644 l 167 667 q 161 722 161 690 q 167 778 161 756 l 389 778 q 394 722 394 756 q 389 667 394 690 l 458 667 q 464 611 464 644 q 458 556 464 579 l 500 556 q 506 500 506 533 q 500 444 506 468 m 389 222 q 383 278 383 246 q 389 333 383 311 q 383 389 383 357 q 389 444 383 422 q 383 500 383 468 q 389 556 383 533 l 347 556 q 342 611 342 579 q 347 667 342 644 l 208 667 q 214 611 214 644 q 208 556 214 579 l 167 556 q 172 500 172 533 q 167 444 172 468 q 172 389 172 422 q 167 333 172 357 q 172 278 172 311 q 167 222 172 246 l 208 222 q 214 167 214 200 q 208 111 214 135 l 347 111 q 342 167 342 135 q 347 222 342 200 l 389 222 z "},"Ó":{"ha":556,"x_min":50,"x_max":506,"o":"m 222 889 q 217 944 217 913 q 222 1000 217 978 l 278 1000 q 272 1056 272 1024 q 278 1111 272 1089 l 389 1111 q 394 1056 394 1089 q 389 1000 394 1024 l 333 1000 q 339 944 339 978 q 333 889 339 913 l 222 889 m 500 444 q 506 389 506 422 q 500 333 506 357 q 506 278 506 311 q 500 222 506 246 l 458 222 q 464 167 464 200 q 458 111 464 135 l 389 111 q 394 56 394 89 q 389 0 394 24 l 167 0 q 161 56 161 24 q 167 111 161 89 l 97 111 q 92 167 92 135 q 97 222 92 200 l 56 222 q 50 278 50 246 q 56 333 50 311 q 50 389 50 357 q 56 444 50 422 q 50 500 50 468 q 56 556 50 533 l 97 556 q 92 611 92 579 q 97 667 92 644 l 167 667 q 161 722 161 690 q 167 778 161 756 l 389 778 q 394 722 394 756 q 389 667 394 690 l 458 667 q 464 611 464 644 q 458 556 464 579 l 500 556 q 506 500 506 533 q 500 444 506 468 m 389 222 q 383 278 383 246 q 389 333 383 311 q 383 389 383 357 q 389 444 383 422 q 383 500 383 468 q 389 556 383 533 l 347 556 q 342 611 342 579 q 347 667 342 644 l 208 667 q 214 611 214 644 q 208 556 214 579 l 167 556 q 172 500 172 533 q 167 444 172 468 q 172 389 172 422 q 167 333 172 357 q 172 278 172 311 q 167 222 172 246 l 208 222 q 214 167 214 200 q 208 111 214 135 l 347 111 q 342 167 342 135 q 347 222 342 200 l 389 222 z "},"Ŏ":{"ha":556,"x_min":50,"x_max":506,"o":"m 500 444 q 506 389 506 422 q 500 333 506 357 q 506 278 506 311 q 500 222 506 246 l 458 222 q 464 167 464 200 q 458 111 464 135 l 389 111 q 394 56 394 89 q 389 0 394 24 l 167 0 q 161 56 161 24 q 167 111 161 89 l 97 111 q 92 167 92 135 q 97 222 92 200 l 56 222 q 50 278 50 246 q 56 333 50 311 q 50 389 50 357 q 56 444 50 422 q 50 500 50 468 q 56 556 50 533 l 97 556 q 92 611 92 579 q 97 667 92 644 l 167 667 q 161 722 161 690 q 167 778 161 756 l 389 778 q 394 722 394 756 q 389 667 394 690 l 458 667 q 464 611 464 644 q 458 556 464 579 l 500 556 q 506 500 506 533 q 500 444 506 468 m 389 222 q 383 278 383 246 q 389 333 383 311 q 383 389 383 357 q 389 444 383 422 q 383 500 383 468 q 389 556 383 533 l 347 556 q 342 611 342 579 q 347 667 342 644 l 208 667 q 214 611 214 644 q 208 556 214 579 l 167 556 q 172 500 172 533 q 167 444 172 468 q 172 389 172 422 q 167 333 172 357 q 172 278 172 311 q 167 222 172 246 l 208 222 q 214 167 214 200 q 208 111 214 135 l 347 111 q 342 167 342 135 q 347 222 342 200 l 389 222 m 167 1111 q 172 1056 172 1089 q 167 1000 172 1024 l 56 1000 q 50 1056 50 1024 q 56 1111 50 1089 l 167 1111 m 500 1111 q 506 1056 506 1089 q 500 1000 506 1024 l 389 1000 q 383 1056 383 1024 q 389 1111 383 1089 l 500 1111 m 389 1000 q 394 944 394 978 q 389 889 394 913 l 167 889 q 161 944 161 913 q 167 1000 161 978 l 389 1000 z "},"Ô":{"ha":556,"x_min":50,"x_max":506,"o":"m 500 444 q 506 389 506 422 q 500 333 506 357 q 506 278 506 311 q 500 222 506 246 l 458 222 q 464 167 464 200 q 458 111 464 135 l 389 111 q 394 56 394 89 q 389 0 394 24 l 167 0 q 161 56 161 24 q 167 111 161 89 l 97 111 q 92 167 92 135 q 97 222 92 200 l 56 222 q 50 278 50 246 q 56 333 50 311 q 50 389 50 357 q 56 444 50 422 q 50 500 50 468 q 56 556 50 533 l 97 556 q 92 611 92 579 q 97 667 92 644 l 167 667 q 161 722 161 690 q 167 778 161 756 l 389 778 q 394 722 394 756 q 389 667 394 690 l 458 667 q 464 611 464 644 q 458 556 464 579 l 500 556 q 506 500 506 533 q 500 444 506 468 m 389 222 q 383 278 383 246 q 389 333 383 311 q 383 389 383 357 q 389 444 383 422 q 383 500 383 468 q 389 556 383 533 l 347 556 q 342 611 342 579 q 347 667 342 644 l 208 667 q 214 611 214 644 q 208 556 214 579 l 167 556 q 172 500 172 533 q 167 444 172 468 q 172 389 172 422 q 167 333 172 357 q 172 278 172 311 q 167 222 172 246 l 208 222 q 214 167 214 200 q 208 111 214 135 l 347 111 q 342 167 342 135 q 347 222 342 200 l 389 222 m 431 1000 q 436 944 436 978 q 431 889 436 913 l 319 889 q 314 944 314 913 q 319 1000 314 978 l 236 1000 q 242 944 242 978 q 236 889 242 913 l 125 889 q 119 944 119 913 q 125 1000 119 978 l 194 1000 q 189 1056 189 1024 q 194 1111 189 1089 l 361 1111 q 367 1056 367 1089 q 361 1000 367 1024 l 431 1000 z "},"Ố":{"ha":556,"x_min":50,"x_max":561,"o":"m 561 1278 q 556 1222 561 1246 l 500 1222 q 506 1167 506 1200 q 500 1111 506 1135 l 389 1111 q 383 1167 383 1135 q 389 1222 383 1200 l 444 1222 q 439 1278 439 1246 q 444 1333 439 1311 l 556 1333 q 561 1278 561 1311 m 125 889 q 119 944 119 913 q 125 1000 119 978 l 194 1000 q 189 1056 189 1024 q 194 1111 189 1089 l 361 1111 q 367 1056 367 1089 q 361 1000 367 1024 l 431 1000 q 436 944 436 978 q 431 889 436 913 l 319 889 q 314 944 314 913 q 319 1000 314 978 l 236 1000 q 242 944 242 978 q 236 889 242 913 l 125 889 m 500 556 q 506 500 506 533 q 500 444 506 468 q 506 389 506 422 q 500 333 506 357 q 506 278 506 311 q 500 222 506 246 l 458 222 q 464 167 464 200 q 458 111 464 135 l 389 111 q 394 56 394 89 q 389 0 394 24 l 167 0 q 161 56 161 24 q 167 111 161 89 l 97 111 q 92 167 92 135 q 97 222 92 200 l 56 222 q 50 278 50 246 q 56 333 50 311 q 50 389 50 357 q 56 444 50 422 q 50 500 50 468 q 56 556 50 533 l 97 556 q 92 611 92 579 q 97 667 92 644 l 167 667 q 161 722 161 690 q 167 778 161 756 l 389 778 q 394 722 394 756 q 389 667 394 690 l 458 667 q 464 611 464 644 q 458 556 464 579 l 500 556 m 389 333 q 383 389 383 357 q 389 444 383 422 q 383 500 383 468 q 389 556 383 533 l 347 556 q 342 611 342 579 q 347 667 342 644 l 208 667 q 214 611 214 644 q 208 556 214 579 l 167 556 q 172 500 172 533 q 167 444 172 468 q 172 389 172 422 q 167 333 172 357 q 172 278 172 311 q 167 222 172 246 l 208 222 q 214 167 214 200 q 208 111 214 135 l 347 111 q 342 167 342 135 q 347 222 342 200 l 389 222 q 383 278 383 246 q 389 333 383 311 z "},"Ộ":{"ha":556,"x_min":50,"x_max":506,"o":"m 500 444 q 506 389 506 422 q 500 333 506 357 q 506 278 506 311 q 500 222 506 246 l 458 222 q 464 167 464 200 q 458 111 464 135 l 389 111 q 394 56 394 89 q 389 0 394 24 l 167 0 q 161 56 161 24 q 167 111 161 89 l 97 111 q 92 167 92 135 q 97 222 92 200 l 56 222 q 50 278 50 246 q 56 333 50 311 q 50 389 50 357 q 56 444 50 422 q 50 500 50 468 q 56 556 50 533 l 97 556 q 92 611 92 579 q 97 667 92 644 l 167 667 q 161 722 161 690 q 167 778 161 756 l 389 778 q 394 722 394 756 q 389 667 394 690 l 458 667 q 464 611 464 644 q 458 556 464 579 l 500 556 q 506 500 506 533 q 500 444 506 468 m 389 222 q 383 278 383 246 q 389 333 383 311 q 383 389 383 357 q 389 444 383 422 q 383 500 383 468 q 389 556 383 533 l 347 556 q 342 611 342 579 q 347 667 342 644 l 208 667 q 214 611 214 644 q 208 556 214 579 l 167 556 q 172 500 172 533 q 167 444 172 468 q 172 389 172 422 q 167 333 172 357 q 172 278 172 311 q 167 222 172 246 l 208 222 q 214 167 214 200 q 208 111 214 135 l 347 111 q 342 167 342 135 q 347 222 342 200 l 389 222 m 333 -111 q 339 -167 339 -133 q 333 -222 339 -199 l 222 -222 q 217 -167 217 -199 q 222 -111 217 -133 l 333 -111 m 431 1000 q 436 944 436 978 q 431 889 436 913 l 319 889 q 314 944 314 913 q 319 1000 314 978 l 236 1000 q 242 944 242 978 q 236 889 242 913 l 125 889 q 119 944 119 913 q 125 1000 119 978 l 194 1000 q 189 1056 189 1024 q 194 1111 189 1089 l 361 1111 q 367 1056 367 1089 q 361 1000 367 1024 l 431 1000 z "},"Ồ":{"ha":556,"x_min":-6,"x_max":506,"o":"m 50 1167 q 56 1222 50 1200 l 0 1222 q -6 1278 -6 1246 q 0 1333 -6 1311 l 111 1333 q 117 1278 117 1311 q 111 1222 117 1246 l 167 1222 q 172 1167 172 1200 q 167 1111 172 1135 l 56 1111 q 50 1167 50 1135 m 194 1000 q 189 1056 189 1024 q 194 1111 189 1089 l 361 1111 q 367 1056 367 1089 q 361 1000 367 1024 l 431 1000 q 436 944 436 978 q 431 889 436 913 l 319 889 q 314 944 314 913 q 319 1000 314 978 l 236 1000 q 242 944 242 978 q 236 889 242 913 l 125 889 q 119 944 119 913 q 125 1000 119 978 l 194 1000 m 500 444 q 506 389 506 422 q 500 333 506 357 q 506 278 506 311 q 500 222 506 246 l 458 222 q 464 167 464 200 q 458 111 464 135 l 389 111 q 394 56 394 89 q 389 0 394 24 l 167 0 q 161 56 161 24 q 167 111 161 89 l 97 111 q 92 167 92 135 q 97 222 92 200 l 56 222 q 50 278 50 246 q 56 333 50 311 q 50 389 50 357 q 56 444 50 422 q 50 500 50 468 q 56 556 50 533 l 97 556 q 92 611 92 579 q 97 667 92 644 l 167 667 q 161 722 161 690 q 167 778 161 756 l 389 778 q 394 722 394 756 q 389 667 394 690 l 458 667 q 464 611 464 644 q 458 556 464 579 l 500 556 q 506 500 506 533 q 500 444 506 468 m 389 222 q 383 278 383 246 q 389 333 383 311 q 383 389 383 357 q 389 444 383 422 q 383 500 383 468 q 389 556 383 533 l 347 556 q 342 611 342 579 q 347 667 342 644 l 208 667 q 214 611 214 644 q 208 556 214 579 l 167 556 q 172 500 172 533 q 167 444 172 468 q 172 389 172 422 q 167 333 172 357 q 172 278 172 311 q 167 222 172 246 l 208 222 q 214 167 214 200 q 208 111 214 135 l 347 111 q 342 167 342 135 q 347 222 342 200 l 389 222 z "},"Ổ":{"ha":556,"x_min":50,"x_max":506,"o":"m 500 444 q 506 389 506 422 q 500 333 506 357 q 506 278 506 311 q 500 222 506 246 l 458 222 q 464 167 464 200 q 458 111 464 135 l 389 111 q 394 56 394 89 q 389 0 394 24 l 167 0 q 161 56 161 24 q 167 111 161 89 l 97 111 q 92 167 92 135 q 97 222 92 200 l 56 222 q 50 278 50 246 q 56 333 50 311 q 50 389 50 357 q 56 444 50 422 q 50 500 50 468 q 56 556 50 533 l 97 556 q 92 611 92 579 q 97 667 92 644 l 167 667 q 161 722 161 690 q 167 778 161 756 l 389 778 q 394 722 394 756 q 389 667 394 690 l 458 667 q 464 611 464 644 q 458 556 464 579 l 500 556 q 506 500 506 533 q 500 444 506 468 m 389 222 q 383 278 383 246 q 389 333 383 311 q 383 389 383 357 q 389 444 383 422 q 383 500 383 468 q 389 556 383 533 l 347 556 q 342 611 342 579 q 347 667 342 644 l 208 667 q 214 611 214 644 q 208 556 214 579 l 167 556 q 172 500 172 533 q 167 444 172 468 q 172 389 172 422 q 167 333 172 357 q 172 278 172 311 q 167 222 172 246 l 208 222 q 214 167 214 200 q 208 111 214 135 l 347 111 q 342 167 342 135 q 347 222 342 200 l 389 222 m 506 1278 q 500 1222 506 1246 q 506 1167 506 1200 q 500 1111 506 1135 l 444 1111 q 439 1167 439 1135 q 444 1222 439 1200 l 389 1222 q 383 1278 383 1246 q 389 1333 383 1311 l 500 1333 q 506 1278 506 1311 m 431 1000 q 436 944 436 978 q 431 889 436 913 l 319 889 q 314 944 314 913 q 319 1000 314 978 l 236 1000 q 242 944 242 978 q 236 889 242 913 l 125 889 q 119 944 119 913 q 125 1000 119 978 l 194 1000 q 189 1056 189 1024 q 194 1111 189 1089 l 361 1111 q 367 1056 367 1089 q 361 1000 367 1024 l 431 1000 z "},"Ỗ":{"ha":556,"x_min":50,"x_max":506,"o":"m 500 444 q 506 389 506 422 q 500 333 506 357 q 506 278 506 311 q 500 222 506 246 l 458 222 q 464 167 464 200 q 458 111 464 135 l 389 111 q 394 56 394 89 q 389 0 394 24 l 167 0 q 161 56 161 24 q 167 111 161 89 l 97 111 q 92 167 92 135 q 97 222 92 200 l 56 222 q 50 278 50 246 q 56 333 50 311 q 50 389 50 357 q 56 444 50 422 q 50 500 50 468 q 56 556 50 533 l 97 556 q 92 611 92 579 q 97 667 92 644 l 167 667 q 161 722 161 690 q 167 778 161 756 l 389 778 q 394 722 394 756 q 389 667 394 690 l 458 667 q 464 611 464 644 q 458 556 464 579 l 500 556 q 506 500 506 533 q 500 444 506 468 m 389 222 q 383 278 383 246 q 389 333 383 311 q 383 389 383 357 q 389 444 383 422 q 383 500 383 468 q 389 556 383 533 l 347 556 q 342 611 342 579 q 347 667 342 644 l 208 667 q 214 611 214 644 q 208 556 214 579 l 167 556 q 172 500 172 533 q 167 444 172 468 q 172 389 172 422 q 167 333 172 357 q 172 278 172 311 q 167 222 172 246 l 208 222 q 214 167 214 200 q 208 111 214 135 l 347 111 q 342 167 342 135 q 347 222 342 200 l 389 222 m 431 1000 q 436 944 436 978 q 431 889 436 913 l 319 889 q 314 944 314 913 q 319 1000 314 978 l 236 1000 q 242 944 242 978 q 236 889 242 913 l 125 889 q 119 944 119 913 q 125 1000 119 978 l 194 1000 q 189 1056 189 1024 q 194 1111 189 1089 l 361 1111 q 367 1056 367 1089 q 361 1000 367 1024 l 431 1000 m 311 1389 q 306 1333 311 1357 l 417 1333 q 422 1278 422 1311 q 417 1222 422 1246 l 250 1222 q 244 1278 244 1246 q 250 1333 244 1311 l 139 1333 q 133 1389 133 1357 q 139 1444 133 1422 l 306 1444 q 311 1389 311 1422 m 506 1389 q 500 1333 506 1357 l 417 1333 q 411 1389 411 1357 q 417 1444 411 1422 l 500 1444 q 506 1389 506 1422 m 50 1278 q 56 1333 50 1311 l 139 1333 q 144 1278 144 1311 q 139 1222 144 1246 l 56 1222 q 50 1278 50 1246 z "},"Ȍ":{"ha":556,"x_min":50,"x_max":506,"o":"m 500 444 q 506 389 506 422 q 500 333 506 357 q 506 278 506 311 q 500 222 506 246 l 458 222 q 464 167 464 200 q 458 111 464 135 l 389 111 q 394 56 394 89 q 389 0 394 24 l 167 0 q 161 56 161 24 q 167 111 161 89 l 97 111 q 92 167 92 135 q 97 222 92 200 l 56 222 q 50 278 50 246 q 56 333 50 311 q 50 389 50 357 q 56 444 50 422 q 50 500 50 468 q 56 556 50 533 l 97 556 q 92 611 92 579 q 97 667 92 644 l 167 667 q 161 722 161 690 q 167 778 161 756 l 389 778 q 394 722 394 756 q 389 667 394 690 l 458 667 q 464 611 464 644 q 458 556 464 579 l 500 556 q 506 500 506 533 q 500 444 506 468 m 389 222 q 383 278 383 246 q 389 333 383 311 q 383 389 383 357 q 389 444 383 422 q 383 500 383 468 q 389 556 383 533 l 347 556 q 342 611 342 579 q 347 667 342 644 l 208 667 q 214 611 214 644 q 208 556 214 579 l 167 556 q 172 500 172 533 q 167 444 172 468 q 172 389 172 422 q 167 333 172 357 q 172 278 172 311 q 167 222 172 246 l 208 222 q 214 167 214 200 q 208 111 214 135 l 347 111 q 342 167 342 135 q 347 222 342 200 l 389 222 m 236 1000 q 242 944 242 978 q 236 889 242 913 l 153 889 q 147 944 147 913 q 153 1000 147 978 l 111 1000 q 106 1056 106 1024 q 111 1111 106 1089 l 194 1111 q 200 1056 200 1089 q 194 1000 200 1024 l 236 1000 m 403 1000 q 408 944 408 978 q 403 889 408 913 l 319 889 q 314 944 314 913 q 319 1000 314 978 l 278 1000 q 272 1056 272 1024 q 278 1111 272 1089 l 361 1111 q 367 1056 367 1089 q 361 1000 367 1024 l 403 1000 z "},"Ö":{"ha":556,"x_min":50,"x_max":506,"o":"m 111 889 q 106 944 106 913 q 111 1000 106 978 l 222 1000 q 228 944 228 978 q 222 889 228 913 l 111 889 m 333 889 q 328 944 328 913 q 333 1000 328 978 l 444 1000 q 450 944 450 978 q 444 889 450 913 l 333 889 m 500 444 q 506 389 506 422 q 500 333 506 357 q 506 278 506 311 q 500 222 506 246 l 458 222 q 464 167 464 200 q 458 111 464 135 l 389 111 q 394 56 394 89 q 389 0 394 24 l 167 0 q 161 56 161 24 q 167 111 161 89 l 97 111 q 92 167 92 135 q 97 222 92 200 l 56 222 q 50 278 50 246 q 56 333 50 311 q 50 389 50 357 q 56 444 50 422 q 50 500 50 468 q 56 556 50 533 l 97 556 q 92 611 92 579 q 97 667 92 644 l 167 667 q 161 722 161 690 q 167 778 161 756 l 389 778 q 394 722 394 756 q 389 667 394 690 l 458 667 q 464 611 464 644 q 458 556 464 579 l 500 556 q 506 500 506 533 q 500 444 506 468 m 389 222 q 383 278 383 246 q 389 333 383 311 q 383 389 383 357 q 389 444 383 422 q 383 500 383 468 q 389 556 383 533 l 347 556 q 342 611 342 579 q 347 667 342 644 l 208 667 q 214 611 214 644 q 208 556 214 579 l 167 556 q 172 500 172 533 q 167 444 172 468 q 172 389 172 422 q 167 333 172 357 q 172 278 172 311 q 167 222 172 246 l 208 222 q 214 167 214 200 q 208 111 214 135 l 347 111 q 342 167 342 135 q 347 222 342 200 l 389 222 z "},"Ȫ":{"ha":556,"x_min":50,"x_max":506,"o":"m 111 1111 q 106 1167 106 1135 q 111 1222 106 1200 l 444 1222 q 450 1167 450 1200 q 444 1111 450 1135 l 111 1111 m 111 889 q 106 944 106 913 q 111 1000 106 978 l 222 1000 q 228 944 228 978 q 222 889 228 913 l 111 889 m 444 1000 q 450 944 450 978 q 444 889 450 913 l 333 889 q 328 944 328 913 q 333 1000 328 978 l 444 1000 m 500 444 q 506 389 506 422 q 500 333 506 357 q 506 278 506 311 q 500 222 506 246 l 458 222 q 464 167 464 200 q 458 111 464 135 l 389 111 q 394 56 394 89 q 389 0 394 24 l 167 0 q 161 56 161 24 q 167 111 161 89 l 97 111 q 92 167 92 135 q 97 222 92 200 l 56 222 q 50 278 50 246 q 56 333 50 311 q 50 389 50 357 q 56 444 50 422 q 50 500 50 468 q 56 556 50 533 l 97 556 q 92 611 92 579 q 97 667 92 644 l 167 667 q 161 722 161 690 q 167 778 161 756 l 389 778 q 394 722 394 756 q 389 667 394 690 l 458 667 q 464 611 464 644 q 458 556 464 579 l 500 556 q 506 500 506 533 q 500 444 506 468 m 389 222 q 383 278 383 246 q 389 333 383 311 q 383 389 383 357 q 389 444 383 422 q 383 500 383 468 q 389 556 383 533 l 347 556 q 342 611 342 579 q 347 667 342 644 l 208 667 q 214 611 214 644 q 208 556 214 579 l 167 556 q 172 500 172 533 q 167 444 172 468 q 172 389 172 422 q 167 333 172 357 q 172 278 172 311 q 167 222 172 246 l 208 222 q 214 167 214 200 q 208 111 214 135 l 347 111 q 342 167 342 135 q 347 222 342 200 l 389 222 z "},"Ȱ":{"ha":556,"x_min":50,"x_max":506,"o":"m 500 444 q 506 389 506 422 q 500 333 506 357 q 506 278 506 311 q 500 222 506 246 l 458 222 q 464 167 464 200 q 458 111 464 135 l 389 111 q 394 56 394 89 q 389 0 394 24 l 167 0 q 161 56 161 24 q 167 111 161 89 l 97 111 q 92 167 92 135 q 97 222 92 200 l 56 222 q 50 278 50 246 q 56 333 50 311 q 50 389 50 357 q 56 444 50 422 q 50 500 50 468 q 56 556 50 533 l 97 556 q 92 611 92 579 q 97 667 92 644 l 167 667 q 161 722 161 690 q 167 778 161 756 l 389 778 q 394 722 394 756 q 389 667 394 690 l 458 667 q 464 611 464 644 q 458 556 464 579 l 500 556 q 506 500 506 533 q 500 444 506 468 m 389 222 q 383 278 383 246 q 389 333 383 311 q 383 389 383 357 q 389 444 383 422 q 383 500 383 468 q 389 556 383 533 l 347 556 q 342 611 342 579 q 347 667 342 644 l 208 667 q 214 611 214 644 q 208 556 214 579 l 167 556 q 172 500 172 533 q 167 444 172 468 q 172 389 172 422 q 167 333 172 357 q 172 278 172 311 q 167 222 172 246 l 208 222 q 214 167 214 200 q 208 111 214 135 l 347 111 q 342 167 342 135 q 347 222 342 200 l 389 222 m 333 1000 q 339 944 339 978 q 333 889 339 913 l 222 889 q 217 944 217 913 q 222 1000 217 978 l 333 1000 m 444 1222 q 450 1167 450 1200 q 444 1111 450 1135 l 111 1111 q 106 1167 106 1135 q 111 1222 106 1200 l 444 1222 z "},"Ọ":{"ha":556,"x_min":50,"x_max":506,"o":"m 500 444 q 506 389 506 422 q 500 333 506 357 q 506 278 506 311 q 500 222 506 246 l 458 222 q 464 167 464 200 q 458 111 464 135 l 389 111 q 394 56 394 89 q 389 0 394 24 l 167 0 q 161 56 161 24 q 167 111 161 89 l 97 111 q 92 167 92 135 q 97 222 92 200 l 56 222 q 50 278 50 246 q 56 333 50 311 q 50 389 50 357 q 56 444 50 422 q 50 500 50 468 q 56 556 50 533 l 97 556 q 92 611 92 579 q 97 667 92 644 l 167 667 q 161 722 161 690 q 167 778 161 756 l 389 778 q 394 722 394 756 q 389 667 394 690 l 458 667 q 464 611 464 644 q 458 556 464 579 l 500 556 q 506 500 506 533 q 500 444 506 468 m 389 222 q 383 278 383 246 q 389 333 383 311 q 383 389 383 357 q 389 444 383 422 q 383 500 383 468 q 389 556 383 533 l 347 556 q 342 611 342 579 q 347 667 342 644 l 208 667 q 214 611 214 644 q 208 556 214 579 l 167 556 q 172 500 172 533 q 167 444 172 468 q 172 389 172 422 q 167 333 172 357 q 172 278 172 311 q 167 222 172 246 l 208 222 q 214 167 214 200 q 208 111 214 135 l 347 111 q 342 167 342 135 q 347 222 342 200 l 389 222 m 333 -111 q 339 -167 339 -133 q 333 -222 339 -199 l 222 -222 q 217 -167 217 -199 q 222 -111 217 -133 l 333 -111 z "},"Ò":{"ha":556,"x_min":50,"x_max":506,"o":"m 167 1000 q 161 1056 161 1024 q 167 1111 161 1089 l 278 1111 q 283 1056 283 1089 q 278 1000 283 1024 l 333 1000 q 339 944 339 978 q 333 889 339 913 l 222 889 q 217 944 217 913 q 222 1000 217 978 l 167 1000 m 500 444 q 506 389 506 422 q 500 333 506 357 q 506 278 506 311 q 500 222 506 246 l 458 222 q 464 167 464 200 q 458 111 464 135 l 389 111 q 394 56 394 89 q 389 0 394 24 l 167 0 q 161 56 161 24 q 167 111 161 89 l 97 111 q 92 167 92 135 q 97 222 92 200 l 56 222 q 50 278 50 246 q 56 333 50 311 q 50 389 50 357 q 56 444 50 422 q 50 500 50 468 q 56 556 50 533 l 97 556 q 92 611 92 579 q 97 667 92 644 l 167 667 q 161 722 161 690 q 167 778 161 756 l 389 778 q 394 722 394 756 q 389 667 394 690 l 458 667 q 464 611 464 644 q 458 556 464 579 l 500 556 q 506 500 506 533 q 500 444 506 468 m 389 222 q 383 278 383 246 q 389 333 383 311 q 383 389 383 357 q 389 444 383 422 q 383 500 383 468 q 389 556 383 533 l 347 556 q 342 611 342 579 q 347 667 342 644 l 208 667 q 214 611 214 644 q 208 556 214 579 l 167 556 q 172 500 172 533 q 167 444 172 468 q 172 389 172 422 q 167 333 172 357 q 172 278 172 311 q 167 222 172 246 l 208 222 q 214 167 214 200 q 208 111 214 135 l 347 111 q 342 167 342 135 q 347 222 342 200 l 389 222 z "},"Ỏ":{"ha":556,"x_min":50,"x_max":506,"o":"m 500 444 q 506 389 506 422 q 500 333 506 357 q 506 278 506 311 q 500 222 506 246 l 458 222 q 464 167 464 200 q 458 111 464 135 l 389 111 q 394 56 394 89 q 389 0 394 24 l 167 0 q 161 56 161 24 q 167 111 161 89 l 97 111 q 92 167 92 135 q 97 222 92 200 l 56 222 q 50 278 50 246 q 56 333 50 311 q 50 389 50 357 q 56 444 50 422 q 50 500 50 468 q 56 556 50 533 l 97 556 q 92 611 92 579 q 97 667 92 644 l 167 667 q 161 722 161 690 q 167 778 161 756 l 389 778 q 394 722 394 756 q 389 667 394 690 l 458 667 q 464 611 464 644 q 458 556 464 579 l 500 556 q 506 500 506 533 q 500 444 506 468 m 389 222 q 383 278 383 246 q 389 333 383 311 q 383 389 383 357 q 389 444 383 422 q 383 500 383 468 q 389 556 383 533 l 347 556 q 342 611 342 579 q 347 667 342 644 l 208 667 q 214 611 214 644 q 208 556 214 579 l 167 556 q 172 500 172 533 q 167 444 172 468 q 172 389 172 422 q 167 333 172 357 q 172 278 172 311 q 167 222 172 246 l 208 222 q 214 167 214 200 q 208 111 214 135 l 347 111 q 342 167 342 135 q 347 222 342 200 l 389 222 m 339 1056 q 333 1000 339 1024 q 339 944 339 978 q 333 889 339 913 l 278 889 q 272 944 272 913 q 278 1000 272 978 l 222 1000 q 217 1056 217 1024 q 222 1111 217 1089 l 333 1111 q 339 1056 339 1089 z "},"Ơ":{"ha":556,"x_min":50,"x_max":506,"o":"m 500 444 q 506 389 506 422 q 500 333 506 357 q 506 278 506 311 q 500 222 506 246 l 458 222 q 464 167 464 200 q 458 111 464 135 l 389 111 q 394 56 394 89 q 389 0 394 24 l 167 0 q 161 56 161 24 q 167 111 161 89 l 97 111 q 92 167 92 135 q 97 222 92 200 l 56 222 q 50 278 50 246 q 56 333 50 311 q 50 389 50 357 q 56 444 50 422 q 50 500 50 468 q 56 556 50 533 l 97 556 q 92 611 92 579 q 97 667 92 644 l 167 667 q 161 722 161 690 q 167 778 161 756 l 389 778 q 394 722 394 756 q 389 667 394 690 l 458 667 q 464 611 464 644 q 458 556 464 579 l 500 556 q 506 500 506 533 q 500 444 506 468 m 389 222 q 383 278 383 246 q 389 333 383 311 q 383 389 383 357 q 389 444 383 422 q 383 500 383 468 q 389 556 383 533 l 347 556 q 342 611 342 579 q 347 667 342 644 l 208 667 q 214 611 214 644 q 208 556 214 579 l 167 556 q 172 500 172 533 q 167 444 172 468 q 172 389 172 422 q 167 333 172 357 q 172 278 172 311 q 167 222 172 246 l 208 222 q 214 167 214 200 q 208 111 214 135 l 347 111 q 342 167 342 135 q 347 222 342 200 l 389 222 m 500 889 q 506 833 506 867 q 500 778 506 801 l 389 778 q 383 833 383 801 q 389 889 383 867 l 500 889 z "},"Ớ":{"ha":556,"x_min":50,"x_max":506,"o":"m 222 889 q 217 944 217 913 q 222 1000 217 978 l 278 1000 q 272 1056 272 1024 q 278 1111 272 1089 l 389 1111 q 394 1056 394 1089 q 389 1000 394 1024 l 333 1000 q 339 944 339 978 q 333 889 339 913 l 222 889 m 506 833 q 500 778 506 801 l 389 778 q 383 833 383 801 q 389 889 383 867 l 500 889 q 506 833 506 867 m 500 556 q 506 500 506 533 q 500 444 506 468 q 506 389 506 422 q 500 333 506 357 q 506 278 506 311 q 500 222 506 246 l 458 222 q 464 167 464 200 q 458 111 464 135 l 389 111 q 394 56 394 89 q 389 0 394 24 l 167 0 q 161 56 161 24 q 167 111 161 89 l 97 111 q 92 167 92 135 q 97 222 92 200 l 56 222 q 50 278 50 246 q 56 333 50 311 q 50 389 50 357 q 56 444 50 422 q 50 500 50 468 q 56 556 50 533 l 97 556 q 92 611 92 579 q 97 667 92 644 l 167 667 q 161 722 161 690 q 167 778 161 756 l 389 778 q 394 722 394 756 q 389 667 394 690 l 458 667 q 464 611 464 644 q 458 556 464 579 l 500 556 m 389 333 q 383 389 383 357 q 389 444 383 422 q 383 500 383 468 q 389 556 383 533 l 347 556 q 342 611 342 579 q 347 667 342 644 l 208 667 q 214 611 214 644 q 208 556 214 579 l 167 556 q 172 500 172 533 q 167 444 172 468 q 172 389 172 422 q 167 333 172 357 q 172 278 172 311 q 167 222 172 246 l 208 222 q 214 167 214 200 q 208 111 214 135 l 347 111 q 342 167 342 135 q 347 222 342 200 l 389 222 q 383 278 383 246 q 389 333 383 311 z "},"Ợ":{"ha":556,"x_min":50,"x_max":506,"o":"m 500 444 q 506 389 506 422 q 500 333 506 357 q 506 278 506 311 q 500 222 506 246 l 458 222 q 464 167 464 200 q 458 111 464 135 l 389 111 q 394 56 394 89 q 389 0 394 24 l 167 0 q 161 56 161 24 q 167 111 161 89 l 97 111 q 92 167 92 135 q 97 222 92 200 l 56 222 q 50 278 50 246 q 56 333 50 311 q 50 389 50 357 q 56 444 50 422 q 50 500 50 468 q 56 556 50 533 l 97 556 q 92 611 92 579 q 97 667 92 644 l 167 667 q 161 722 161 690 q 167 778 161 756 l 389 778 q 394 722 394 756 q 389 667 394 690 l 458 667 q 464 611 464 644 q 458 556 464 579 l 500 556 q 506 500 506 533 q 500 444 506 468 m 389 222 q 383 278 383 246 q 389 333 383 311 q 383 389 383 357 q 389 444 383 422 q 383 500 383 468 q 389 556 383 533 l 347 556 q 342 611 342 579 q 347 667 342 644 l 208 667 q 214 611 214 644 q 208 556 214 579 l 167 556 q 172 500 172 533 q 167 444 172 468 q 172 389 172 422 q 167 333 172 357 q 172 278 172 311 q 167 222 172 246 l 208 222 q 214 167 214 200 q 208 111 214 135 l 347 111 q 342 167 342 135 q 347 222 342 200 l 389 222 m 500 889 q 506 833 506 867 q 500 778 506 801 l 389 778 q 383 833 383 801 q 389 889 383 867 l 500 889 m 333 -111 q 339 -167 339 -133 q 333 -222 339 -199 l 222 -222 q 217 -167 217 -199 q 222 -111 217 -133 l 333 -111 z "},"Ờ":{"ha":556,"x_min":50,"x_max":506,"o":"m 167 1000 q 161 1056 161 1024 q 167 1111 161 1089 l 278 1111 q 283 1056 283 1089 q 278 1000 283 1024 l 333 1000 q 339 944 339 978 q 333 889 339 913 l 222 889 q 217 944 217 913 q 222 1000 217 978 l 167 1000 m 506 833 q 500 778 506 801 l 389 778 q 383 833 383 801 q 389 889 383 867 l 500 889 q 506 833 506 867 m 500 556 q 506 500 506 533 q 500 444 506 468 q 506 389 506 422 q 500 333 506 357 q 506 278 506 311 q 500 222 506 246 l 458 222 q 464 167 464 200 q 458 111 464 135 l 389 111 q 394 56 394 89 q 389 0 394 24 l 167 0 q 161 56 161 24 q 167 111 161 89 l 97 111 q 92 167 92 135 q 97 222 92 200 l 56 222 q 50 278 50 246 q 56 333 50 311 q 50 389 50 357 q 56 444 50 422 q 50 500 50 468 q 56 556 50 533 l 97 556 q 92 611 92 579 q 97 667 92 644 l 167 667 q 161 722 161 690 q 167 778 161 756 l 389 778 q 394 722 394 756 q 389 667 394 690 l 458 667 q 464 611 464 644 q 458 556 464 579 l 500 556 m 389 333 q 383 389 383 357 q 389 444 383 422 q 383 500 383 468 q 389 556 383 533 l 347 556 q 342 611 342 579 q 347 667 342 644 l 208 667 q 214 611 214 644 q 208 556 214 579 l 167 556 q 172 500 172 533 q 167 444 172 468 q 172 389 172 422 q 167 333 172 357 q 172 278 172 311 q 167 222 172 246 l 208 222 q 214 167 214 200 q 208 111 214 135 l 347 111 q 342 167 342 135 q 347 222 342 200 l 389 222 q 383 278 383 246 q 389 333 383 311 z "},"Ở":{"ha":556,"x_min":50,"x_max":506,"o":"m 500 444 q 506 389 506 422 q 500 333 506 357 q 506 278 506 311 q 500 222 506 246 l 458 222 q 464 167 464 200 q 458 111 464 135 l 389 111 q 394 56 394 89 q 389 0 394 24 l 167 0 q 161 56 161 24 q 167 111 161 89 l 97 111 q 92 167 92 135 q 97 222 92 200 l 56 222 q 50 278 50 246 q 56 333 50 311 q 50 389 50 357 q 56 444 50 422 q 50 500 50 468 q 56 556 50 533 l 97 556 q 92 611 92 579 q 97 667 92 644 l 167 667 q 161 722 161 690 q 167 778 161 756 l 389 778 q 394 722 394 756 q 389 667 394 690 l 458 667 q 464 611 464 644 q 458 556 464 579 l 500 556 q 506 500 506 533 q 500 444 506 468 m 389 222 q 383 278 383 246 q 389 333 383 311 q 383 389 383 357 q 389 444 383 422 q 383 500 383 468 q 389 556 383 533 l 347 556 q 342 611 342 579 q 347 667 342 644 l 208 667 q 214 611 214 644 q 208 556 214 579 l 167 556 q 172 500 172 533 q 167 444 172 468 q 172 389 172 422 q 167 333 172 357 q 172 278 172 311 q 167 222 172 246 l 208 222 q 214 167 214 200 q 208 111 214 135 l 347 111 q 342 167 342 135 q 347 222 342 200 l 389 222 m 500 889 q 506 833 506 867 q 500 778 506 801 l 389 778 q 383 833 383 801 q 389 889 383 867 l 500 889 m 339 1056 q 333 1000 339 1024 q 339 944 339 978 q 333 889 339 913 l 278 889 q 272 944 272 913 q 278 1000 272 978 l 222 1000 q 217 1056 217 1024 q 222 1111 217 1089 l 333 1111 q 339 1056 339 1089 z "},"Ỡ":{"ha":556,"x_min":50,"x_max":506,"o":"m 500 444 q 506 389 506 422 q 500 333 506 357 q 506 278 506 311 q 500 222 506 246 l 458 222 q 464 167 464 200 q 458 111 464 135 l 389 111 q 394 56 394 89 q 389 0 394 24 l 167 0 q 161 56 161 24 q 167 111 161 89 l 97 111 q 92 167 92 135 q 97 222 92 200 l 56 222 q 50 278 50 246 q 56 333 50 311 q 50 389 50 357 q 56 444 50 422 q 50 500 50 468 q 56 556 50 533 l 97 556 q 92 611 92 579 q 97 667 92 644 l 167 667 q 161 722 161 690 q 167 778 161 756 l 389 778 q 394 722 394 756 q 389 667 394 690 l 458 667 q 464 611 464 644 q 458 556 464 579 l 500 556 q 506 500 506 533 q 500 444 506 468 m 389 222 q 383 278 383 246 q 389 333 383 311 q 383 389 383 357 q 389 444 383 422 q 383 500 383 468 q 389 556 383 533 l 347 556 q 342 611 342 579 q 347 667 342 644 l 208 667 q 214 611 214 644 q 208 556 214 579 l 167 556 q 172 500 172 533 q 167 444 172 468 q 172 389 172 422 q 167 333 172 357 q 172 278 172 311 q 167 222 172 246 l 208 222 q 214 167 214 200 q 208 111 214 135 l 347 111 q 342 167 342 135 q 347 222 342 200 l 389 222 m 500 889 q 506 833 506 867 q 500 778 506 801 l 389 778 q 383 833 383 801 q 389 889 383 867 l 500 889 m 311 1167 q 306 1111 311 1135 l 417 1111 q 422 1056 422 1089 q 417 1000 422 1024 l 250 1000 q 244 1056 244 1024 q 250 1111 244 1089 l 139 1111 q 133 1167 133 1135 q 139 1222 133 1200 l 306 1222 q 311 1167 311 1200 m 506 1167 q 500 1111 506 1135 l 417 1111 q 411 1167 411 1135 q 417 1222 411 1200 l 500 1222 q 506 1167 506 1200 m 50 1056 q 56 1111 50 1089 l 139 1111 q 144 1056 144 1089 q 139 1000 144 1024 l 56 1000 q 50 1056 50 1024 z "},"Ő":{"ha":556,"x_min":50,"x_max":506,"o":"m 500 444 q 506 389 506 422 q 500 333 506 357 q 506 278 506 311 q 500 222 506 246 l 458 222 q 464 167 464 200 q 458 111 464 135 l 389 111 q 394 56 394 89 q 389 0 394 24 l 167 0 q 161 56 161 24 q 167 111 161 89 l 97 111 q 92 167 92 135 q 97 222 92 200 l 56 222 q 50 278 50 246 q 56 333 50 311 q 50 389 50 357 q 56 444 50 422 q 50 500 50 468 q 56 556 50 533 l 97 556 q 92 611 92 579 q 97 667 92 644 l 167 667 q 161 722 161 690 q 167 778 161 756 l 389 778 q 394 722 394 756 q 389 667 394 690 l 458 667 q 464 611 464 644 q 458 556 464 579 l 500 556 q 506 500 506 533 q 500 444 506 468 m 389 222 q 383 278 383 246 q 389 333 383 311 q 383 389 383 357 q 389 444 383 422 q 383 500 383 468 q 389 556 383 533 l 347 556 q 342 611 342 579 q 347 667 342 644 l 208 667 q 214 611 214 644 q 208 556 214 579 l 167 556 q 172 500 172 533 q 167 444 172 468 q 172 389 172 422 q 167 333 172 357 q 172 278 172 311 q 167 222 172 246 l 208 222 q 214 167 214 200 q 208 111 214 135 l 347 111 q 342 167 342 135 q 347 222 342 200 l 389 222 m 278 1111 q 283 1056 283 1089 q 278 1000 283 1024 l 236 1000 q 242 944 242 978 q 236 889 242 913 l 153 889 q 147 944 147 913 q 153 1000 147 978 l 194 1000 q 189 1056 189 1024 q 194 1111 189 1089 l 278 1111 m 450 1056 q 444 1000 450 1024 l 403 1000 q 408 944 408 978 q 403 889 408 913 l 319 889 q 314 944 314 913 q 319 1000 314 978 l 361 1000 q 356 1056 356 1024 q 361 1111 356 1089 l 444 1111 q 450 1056 450 1089 z "},"Ȏ":{"ha":556,"x_min":50,"x_max":506,"o":"m 500 444 q 506 389 506 422 q 500 333 506 357 q 506 278 506 311 q 500 222 506 246 l 458 222 q 464 167 464 200 q 458 111 464 135 l 389 111 q 394 56 394 89 q 389 0 394 24 l 167 0 q 161 56 161 24 q 167 111 161 89 l 97 111 q 92 167 92 135 q 97 222 92 200 l 56 222 q 50 278 50 246 q 56 333 50 311 q 50 389 50 357 q 56 444 50 422 q 50 500 50 468 q 56 556 50 533 l 97 556 q 92 611 92 579 q 97 667 92 644 l 167 667 q 161 722 161 690 q 167 778 161 756 l 389 778 q 394 722 394 756 q 389 667 394 690 l 458 667 q 464 611 464 644 q 458 556 464 579 l 500 556 q 506 500 506 533 q 500 444 506 468 m 389 222 q 383 278 383 246 q 389 333 383 311 q 383 389 383 357 q 389 444 383 422 q 383 500 383 468 q 389 556 383 533 l 347 556 q 342 611 342 579 q 347 667 342 644 l 208 667 q 214 611 214 644 q 208 556 214 579 l 167 556 q 172 500 172 533 q 167 444 172 468 q 172 389 172 422 q 167 333 172 357 q 172 278 172 311 q 167 222 172 246 l 208 222 q 214 167 214 200 q 208 111 214 135 l 347 111 q 342 167 342 135 q 347 222 342 200 l 389 222 m 389 1111 q 394 1056 394 1089 q 389 1000 394 1024 l 167 1000 q 161 1056 161 1024 q 167 1111 161 1089 l 389 1111 m 167 1000 q 172 944 172 978 q 167 889 172 913 l 56 889 q 50 944 50 913 q 56 1000 50 978 l 167 1000 m 500 1000 q 506 944 506 978 q 500 889 506 913 l 389 889 q 383 944 383 913 q 389 1000 383 978 l 500 1000 z "},"Ō":{"ha":556,"x_min":50,"x_max":506,"o":"m 500 444 q 506 389 506 422 q 500 333 506 357 q 506 278 506 311 q 500 222 506 246 l 458 222 q 464 167 464 200 q 458 111 464 135 l 389 111 q 394 56 394 89 q 389 0 394 24 l 167 0 q 161 56 161 24 q 167 111 161 89 l 97 111 q 92 167 92 135 q 97 222 92 200 l 56 222 q 50 278 50 246 q 56 333 50 311 q 50 389 50 357 q 56 444 50 422 q 50 500 50 468 q 56 556 50 533 l 97 556 q 92 611 92 579 q 97 667 92 644 l 167 667 q 161 722 161 690 q 167 778 161 756 l 389 778 q 394 722 394 756 q 389 667 394 690 l 458 667 q 464 611 464 644 q 458 556 464 579 l 500 556 q 506 500 506 533 q 500 444 506 468 m 389 222 q 383 278 383 246 q 389 333 383 311 q 383 389 383 357 q 389 444 383 422 q 383 500 383 468 q 389 556 383 533 l 347 556 q 342 611 342 579 q 347 667 342 644 l 208 667 q 214 611 214 644 q 208 556 214 579 l 167 556 q 172 500 172 533 q 167 444 172 468 q 172 389 172 422 q 167 333 172 357 q 172 278 172 311 q 167 222 172 246 l 208 222 q 214 167 214 200 q 208 111 214 135 l 347 111 q 342 167 342 135 q 347 222 342 200 l 389 222 m 444 1000 q 450 944 450 978 q 444 889 450 913 l 111 889 q 106 944 106 913 q 111 1000 106 978 l 444 1000 z "},"Ǫ":{"ha":556,"x_min":50,"x_max":506,"o":"m 500 444 q 506 389 506 422 q 500 333 506 357 q 506 278 506 311 q 500 222 506 246 l 458 222 q 464 167 464 200 q 458 111 464 135 l 389 111 q 394 56 394 89 q 389 0 394 24 l 167 0 q 161 56 161 24 q 167 111 161 89 l 97 111 q 92 167 92 135 q 97 222 92 200 l 56 222 q 50 278 50 246 q 56 333 50 311 q 50 389 50 357 q 56 444 50 422 q 50 500 50 468 q 56 556 50 533 l 97 556 q 92 611 92 579 q 97 667 92 644 l 167 667 q 161 722 161 690 q 167 778 161 756 l 389 778 q 394 722 394 756 q 389 667 394 690 l 458 667 q 464 611 464 644 q 458 556 464 579 l 500 556 q 506 500 506 533 q 500 444 506 468 m 389 222 q 383 278 383 246 q 389 333 383 311 q 383 389 383 357 q 389 444 383 422 q 383 500 383 468 q 389 556 383 533 l 347 556 q 342 611 342 579 q 347 667 342 644 l 208 667 q 214 611 214 644 q 208 556 214 579 l 167 556 q 172 500 172 533 q 167 444 172 468 q 172 389 172 422 q 167 333 172 357 q 172 278 172 311 q 167 222 172 246 l 208 222 q 214 167 214 200 q 208 111 214 135 l 347 111 q 342 167 342 135 q 347 222 342 200 l 389 222 m 389 -111 q 394 -167 394 -133 q 389 -222 394 -199 l 278 -222 q 272 -167 272 -199 q 278 -111 272 -133 l 236 -111 q 231 -56 231 -87 q 236 0 231 -22 l 319 0 q 325 -56 325 -22 q 319 -111 325 -87 l 389 -111 z "},"Ø":{"ha":556,"x_min":50,"x_max":506,"o":"m 500 667 q 506 611 506 644 q 500 556 506 579 q 506 500 506 533 q 500 444 506 468 q 506 389 506 422 q 500 333 506 357 q 506 278 506 311 q 500 222 506 246 l 458 222 q 464 167 464 200 q 458 111 464 135 l 389 111 q 394 56 394 89 q 389 0 394 24 l 167 0 q 172 -56 172 -22 q 167 -111 172 -87 l 56 -111 q 50 -56 50 -87 q 56 0 50 -22 l 97 0 q 92 56 92 24 q 97 111 92 89 l 56 111 q 50 167 50 135 q 56 222 50 200 q 50 278 50 246 q 56 333 50 311 q 50 389 50 357 q 56 444 50 422 q 50 500 50 468 q 56 556 50 533 l 97 556 q 92 611 92 579 q 97 667 92 644 l 167 667 q 161 722 161 690 q 167 778 161 756 l 389 778 q 383 833 383 801 q 389 889 383 867 l 500 889 q 506 833 506 867 q 500 778 506 801 l 458 778 q 464 722 464 756 q 458 667 464 690 l 500 667 m 167 333 q 172 278 172 311 q 167 222 172 246 l 215 222 q 210 278 210 246 q 215 333 210 311 l 243 333 q 238 389 238 357 q 243 444 238 422 l 271 444 q 265 500 265 468 q 271 556 265 533 l 319 556 q 314 611 314 579 q 319 667 314 644 l 208 667 q 214 611 214 644 q 208 556 214 579 l 167 556 q 172 500 172 533 q 167 444 172 468 q 172 389 172 422 q 167 333 172 357 m 389 444 q 383 500 383 468 q 389 556 383 533 l 340 556 q 346 500 346 533 q 340 444 346 468 l 313 444 q 318 389 318 422 q 313 333 318 357 l 285 333 q 290 278 290 311 q 285 222 290 246 l 236 222 q 242 167 242 200 q 236 111 242 135 l 347 111 q 342 167 342 135 q 347 222 342 200 l 389 222 q 383 278 383 246 q 389 333 383 311 q 383 389 383 357 q 389 444 383 422 z "},"Ǿ":{"ha":556,"x_min":50,"x_max":506,"o":"m 222 889 q 217 944 217 913 q 222 1000 217 978 l 278 1000 q 272 1056 272 1024 q 278 1111 272 1089 l 389 1111 q 394 1056 394 1089 q 389 1000 394 1024 l 333 1000 q 339 944 339 978 q 333 889 339 913 l 222 889 m 500 667 q 506 611 506 644 q 500 556 506 579 q 506 500 506 533 q 500 444 506 468 q 506 389 506 422 q 500 333 506 357 q 506 278 506 311 q 500 222 506 246 l 458 222 q 464 167 464 200 q 458 111 464 135 l 389 111 q 394 56 394 89 q 389 0 394 24 l 167 0 q 172 -56 172 -22 q 167 -111 172 -87 l 56 -111 q 50 -56 50 -87 q 56 0 50 -22 l 97 0 q 92 56 92 24 q 97 111 92 89 l 56 111 q 50 167 50 135 q 56 222 50 200 q 50 278 50 246 q 56 333 50 311 q 50 389 50 357 q 56 444 50 422 q 50 500 50 468 q 56 556 50 533 l 97 556 q 92 611 92 579 q 97 667 92 644 l 167 667 q 161 722 161 690 q 167 778 161 756 l 389 778 q 383 833 383 801 q 389 889 383 867 l 500 889 q 506 833 506 867 q 500 778 506 801 l 458 778 q 464 722 464 756 q 458 667 464 690 l 500 667 m 167 333 q 172 278 172 311 q 167 222 172 246 l 215 222 q 210 278 210 246 q 215 333 210 311 l 243 333 q 238 389 238 357 q 243 444 238 422 l 271 444 q 265 500 265 468 q 271 556 265 533 l 319 556 q 314 611 314 579 q 319 667 314 644 l 208 667 q 214 611 214 644 q 208 556 214 579 l 167 556 q 172 500 172 533 q 167 444 172 468 q 172 389 172 422 q 167 333 172 357 m 389 444 q 383 500 383 468 q 389 556 383 533 l 340 556 q 346 500 346 533 q 340 444 346 468 l 313 444 q 318 389 318 422 q 313 333 318 357 l 285 333 q 290 278 290 311 q 285 222 290 246 l 236 222 q 242 167 242 200 q 236 111 242 135 l 347 111 q 342 167 342 135 q 347 222 342 200 l 389 222 q 383 278 383 246 q 389 333 383 311 q 383 389 383 357 q 389 444 383 422 z "},"Õ":{"ha":556,"x_min":50,"x_max":506,"o":"m 500 444 q 506 389 506 422 q 500 333 506 357 q 506 278 506 311 q 500 222 506 246 l 458 222 q 464 167 464 200 q 458 111 464 135 l 389 111 q 394 56 394 89 q 389 0 394 24 l 167 0 q 161 56 161 24 q 167 111 161 89 l 97 111 q 92 167 92 135 q 97 222 92 200 l 56 222 q 50 278 50 246 q 56 333 50 311 q 50 389 50 357 q 56 444 50 422 q 50 500 50 468 q 56 556 50 533 l 97 556 q 92 611 92 579 q 97 667 92 644 l 167 667 q 161 722 161 690 q 167 778 161 756 l 389 778 q 394 722 394 756 q 389 667 394 690 l 458 667 q 464 611 464 644 q 458 556 464 579 l 500 556 q 506 500 506 533 q 500 444 506 468 m 389 222 q 383 278 383 246 q 389 333 383 311 q 383 389 383 357 q 389 444 383 422 q 383 500 383 468 q 389 556 383 533 l 347 556 q 342 611 342 579 q 347 667 342 644 l 208 667 q 214 611 214 644 q 208 556 214 579 l 167 556 q 172 500 172 533 q 167 444 172 468 q 172 389 172 422 q 167 333 172 357 q 172 278 172 311 q 167 222 172 246 l 208 222 q 214 167 214 200 q 208 111 214 135 l 347 111 q 342 167 342 135 q 347 222 342 200 l 389 222 m 311 1056 q 306 1000 311 1024 l 417 1000 q 422 944 422 978 q 417 889 422 913 l 250 889 q 244 944 244 913 q 250 1000 244 978 l 139 1000 q 133 1056 133 1024 q 139 1111 133 1089 l 306 1111 q 311 1056 311 1089 m 506 1056 q 500 1000 506 1024 l 417 1000 q 411 1056 411 1024 q 417 1111 411 1089 l 500 1111 q 506 1056 506 1089 m 50 944 q 56 1000 50 978 l 139 1000 q 144 944 144 978 q 139 889 144 913 l 56 889 q 50 944 50 913 z "},"Ȭ":{"ha":556,"x_min":50,"x_max":506,"o":"m 500 444 q 506 389 506 422 q 500 333 506 357 q 506 278 506 311 q 500 222 506 246 l 458 222 q 464 167 464 200 q 458 111 464 135 l 389 111 q 394 56 394 89 q 389 0 394 24 l 167 0 q 161 56 161 24 q 167 111 161 89 l 97 111 q 92 167 92 135 q 97 222 92 200 l 56 222 q 50 278 50 246 q 56 333 50 311 q 50 389 50 357 q 56 444 50 422 q 50 500 50 468 q 56 556 50 533 l 97 556 q 92 611 92 579 q 97 667 92 644 l 167 667 q 161 722 161 690 q 167 778 161 756 l 389 778 q 394 722 394 756 q 389 667 394 690 l 458 667 q 464 611 464 644 q 458 556 464 579 l 500 556 q 506 500 506 533 q 500 444 506 468 m 389 222 q 383 278 383 246 q 389 333 383 311 q 383 389 383 357 q 389 444 383 422 q 383 500 383 468 q 389 556 383 533 l 347 556 q 342 611 342 579 q 347 667 342 644 l 208 667 q 214 611 214 644 q 208 556 214 579 l 167 556 q 172 500 172 533 q 167 444 172 468 q 172 389 172 422 q 167 333 172 357 q 172 278 172 311 q 167 222 172 246 l 208 222 q 214 167 214 200 q 208 111 214 135 l 347 111 q 342 167 342 135 q 347 222 342 200 l 389 222 m 311 1056 q 306 1000 311 1024 l 417 1000 q 422 944 422 978 q 417 889 422 913 l 250 889 q 244 944 244 913 q 250 1000 244 978 l 139 1000 q 133 1056 133 1024 q 139 1111 133 1089 l 306 1111 q 311 1056 311 1089 m 506 1056 q 500 1000 506 1024 l 417 1000 q 411 1056 411 1024 q 417 1111 411 1089 l 500 1111 q 506 1056 506 1089 m 50 944 q 56 1000 50 978 l 139 1000 q 144 944 144 978 q 139 889 144 913 l 56 889 q 50 944 50 913 m 444 1333 q 450 1278 450 1311 q 444 1222 450 1246 l 111 1222 q 106 1278 106 1246 q 111 1333 106 1311 l 444 1333 z "},"Œ":{"ha":556,"x_min":50,"x_max":506,"o":"m 506 389 q 500 333 506 357 l 389 333 q 394 278 394 311 q 389 222 394 246 q 394 167 394 200 q 389 111 394 135 l 500 111 q 506 56 506 89 q 500 0 506 24 l 167 0 q 161 56 161 24 q 167 111 161 89 l 97 111 q 92 167 92 135 q 97 222 92 200 l 56 222 q 50 278 50 246 q 56 333 50 311 q 50 389 50 357 q 56 444 50 422 q 50 500 50 468 q 56 556 50 533 l 97 556 q 92 611 92 579 q 97 667 92 644 l 167 667 q 161 722 161 690 q 167 778 161 756 l 500 778 q 506 722 506 756 q 500 667 506 690 l 389 667 q 394 611 394 644 q 389 556 394 579 q 394 500 394 533 q 389 444 394 468 l 500 444 q 506 389 506 422 m 278 222 q 272 278 272 246 q 278 333 272 311 q 272 389 272 357 q 278 444 272 422 q 272 500 272 468 q 278 556 272 533 q 272 611 272 579 q 278 667 272 644 l 208 667 q 214 611 214 644 q 208 556 214 579 l 167 556 q 172 500 172 533 q 167 444 172 468 q 172 389 172 422 q 167 333 172 357 q 172 278 172 311 q 167 222 172 246 l 208 222 q 214 167 214 200 q 208 111 214 135 l 278 111 q 272 167 272 135 q 278 222 272 200 z "},"P":{"ha":556,"x_min":50,"x_max":506,"o":"m 506 611 q 500 556 506 579 q 506 500 506 533 q 500 444 506 468 l 444 444 q 450 389 450 422 q 444 333 450 357 l 167 333 q 172 278 172 311 q 167 222 172 246 q 172 167 172 200 q 167 111 172 135 q 172 56 172 89 q 167 0 172 24 l 56 0 q 50 56 50 24 q 56 111 50 89 q 50 167 50 135 q 56 222 50 200 q 50 278 50 246 q 56 333 50 311 q 50 389 50 357 q 56 444 50 422 q 50 500 50 468 q 56 556 50 533 q 50 611 50 579 q 56 667 50 644 q 50 722 50 690 q 56 778 50 756 l 444 778 q 450 722 450 756 q 444 667 450 690 l 500 667 q 506 611 506 644 m 389 444 q 383 500 383 468 q 389 556 383 533 q 383 611 383 579 q 389 667 383 644 l 167 667 q 172 611 172 644 q 167 556 172 579 q 172 500 172 533 q 167 444 172 468 l 389 444 z "},"Þ":{"ha":556,"x_min":50,"x_max":506,"o":"m 506 389 q 500 333 506 357 l 458 333 q 464 278 464 311 q 458 222 464 246 l 389 222 q 394 167 394 200 q 389 111 394 135 l 222 111 q 228 56 228 89 q 222 0 228 24 l 56 0 q 50 56 50 24 q 56 111 50 89 l 111 111 q 106 167 106 135 q 111 222 106 200 q 106 278 106 246 q 111 333 106 311 q 106 389 106 357 q 111 444 106 422 q 106 500 106 468 q 111 556 106 533 q 106 611 106 579 q 111 667 106 644 l 56 667 q 50 722 50 690 q 56 778 50 756 l 222 778 q 228 722 228 756 q 222 667 228 690 l 389 667 q 394 611 394 644 q 389 556 394 579 l 458 556 q 464 500 464 533 q 458 444 464 468 l 500 444 q 506 389 506 422 m 389 333 q 383 389 383 357 q 389 444 383 422 l 347 444 q 342 500 342 468 q 347 556 342 533 l 222 556 q 228 500 228 533 q 222 444 228 468 q 228 389 228 422 q 222 333 228 357 q 228 278 228 311 q 222 222 228 246 l 347 222 q 342 278 342 246 q 347 333 342 311 l 389 333 z "},"Q":{"ha":556,"x_min":50,"x_max":506,"o":"m 500 444 q 506 389 506 422 q 500 333 506 357 q 506 278 506 311 q 500 222 506 246 l 458 222 q 464 167 464 200 q 458 111 464 135 l 389 111 q 394 56 394 89 q 389 0 394 24 l 444 0 q 450 -56 450 -22 q 444 -111 450 -87 l 500 -111 q 506 -167 506 -133 q 500 -222 506 -199 l 389 -222 q 383 -167 383 -199 q 389 -111 383 -133 l 333 -111 q 328 -56 328 -87 q 333 0 328 -22 l 167 0 q 161 56 161 24 q 167 111 161 89 l 97 111 q 92 167 92 135 q 97 222 92 200 l 56 222 q 50 278 50 246 q 56 333 50 311 q 50 389 50 357 q 56 444 50 422 q 50 500 50 468 q 56 556 50 533 l 97 556 q 92 611 92 579 q 97 667 92 644 l 167 667 q 161 722 161 690 q 167 778 161 756 l 389 778 q 394 722 394 756 q 389 667 394 690 l 458 667 q 464 611 464 644 q 458 556 464 579 l 500 556 q 506 500 506 533 q 500 444 506 468 m 389 222 q 383 278 383 246 q 389 333 383 311 q 383 389 383 357 q 389 444 383 422 q 383 500 383 468 q 389 556 383 533 l 347 556 q 342 611 342 579 q 347 667 342 644 l 208 667 q 214 611 214 644 q 208 556 214 579 l 167 556 q 172 500 172 533 q 167 444 172 468 q 172 389 172 422 q 167 333 172 357 q 172 278 172 311 q 167 222 172 246 l 208 222 q 214 167 214 200 q 208 111 214 135 l 347 111 q 342 167 342 135 q 347 222 342 200 l 389 222 z "},"R":{"ha":556,"x_min":50,"x_max":506,"o":"m 500 111 q 506 56 506 89 q 500 0 506 24 l 389 0 q 383 56 383 24 q 389 111 383 89 l 347 111 q 342 167 342 135 q 347 222 342 200 l 306 222 q 300 278 300 246 q 306 333 300 311 l 167 333 q 172 278 172 311 q 167 222 172 246 q 172 167 172 200 q 167 111 172 135 q 172 56 172 89 q 167 0 172 24 l 56 0 q 50 56 50 24 q 56 111 50 89 q 50 167 50 135 q 56 222 50 200 q 50 278 50 246 q 56 333 50 311 q 50 389 50 357 q 56 444 50 422 q 50 500 50 468 q 56 556 50 533 q 50 611 50 579 q 56 667 50 644 q 50 722 50 690 q 56 778 50 756 l 444 778 q 450 722 450 756 q 444 667 450 690 l 500 667 q 506 611 506 644 q 500 556 506 579 l 472 556 q 478 500 478 533 q 472 444 478 468 l 389 444 q 394 389 394 422 q 389 333 394 357 l 417 333 q 422 278 422 311 q 417 222 422 246 l 458 222 q 464 167 464 200 q 458 111 464 135 l 500 111 m 361 444 q 356 500 356 468 q 361 556 356 533 q 356 611 356 579 q 361 667 356 644 l 167 667 q 172 611 172 644 q 167 556 172 579 q 172 500 172 533 q 167 444 172 468 l 361 444 z "},"Ŕ":{"ha":556,"x_min":50,"x_max":506,"o":"m 222 889 q 217 944 217 913 q 222 1000 217 978 l 278 1000 q 272 1056 272 1024 q 278 1111 272 1089 l 389 1111 q 394 1056 394 1089 q 389 1000 394 1024 l 333 1000 q 339 944 339 978 q 333 889 339 913 l 222 889 m 500 111 q 506 56 506 89 q 500 0 506 24 l 389 0 q 383 56 383 24 q 389 111 383 89 l 347 111 q 342 167 342 135 q 347 222 342 200 l 306 222 q 300 278 300 246 q 306 333 300 311 l 167 333 q 172 278 172 311 q 167 222 172 246 q 172 167 172 200 q 167 111 172 135 q 172 56 172 89 q 167 0 172 24 l 56 0 q 50 56 50 24 q 56 111 50 89 q 50 167 50 135 q 56 222 50 200 q 50 278 50 246 q 56 333 50 311 q 50 389 50 357 q 56 444 50 422 q 50 500 50 468 q 56 556 50 533 q 50 611 50 579 q 56 667 50 644 q 50 722 50 690 q 56 778 50 756 l 444 778 q 450 722 450 756 q 444 667 450 690 l 500 667 q 506 611 506 644 q 500 556 506 579 l 472 556 q 478 500 478 533 q 472 444 478 468 l 389 444 q 394 389 394 422 q 389 333 394 357 l 417 333 q 422 278 422 311 q 417 222 422 246 l 458 222 q 464 167 464 200 q 458 111 464 135 l 500 111 m 361 444 q 356 500 356 468 q 361 556 356 533 q 356 611 356 579 q 361 667 356 644 l 167 667 q 172 611 172 644 q 167 556 172 579 q 172 500 172 533 q 167 444 172 468 l 361 444 z "},"Ř":{"ha":556,"x_min":50,"x_max":506,"o":"m 500 111 q 506 56 506 89 q 500 0 506 24 l 389 0 q 383 56 383 24 q 389 111 383 89 l 347 111 q 342 167 342 135 q 347 222 342 200 l 306 222 q 300 278 300 246 q 306 333 300 311 l 167 333 q 172 278 172 311 q 167 222 172 246 q 172 167 172 200 q 167 111 172 135 q 172 56 172 89 q 167 0 172 24 l 56 0 q 50 56 50 24 q 56 111 50 89 q 50 167 50 135 q 56 222 50 200 q 50 278 50 246 q 56 333 50 311 q 50 389 50 357 q 56 444 50 422 q 50 500 50 468 q 56 556 50 533 q 50 611 50 579 q 56 667 50 644 q 50 722 50 690 q 56 778 50 756 l 444 778 q 450 722 450 756 q 444 667 450 690 l 500 667 q 506 611 506 644 q 500 556 506 579 l 472 556 q 478 500 478 533 q 472 444 478 468 l 389 444 q 394 389 394 422 q 389 333 394 357 l 417 333 q 422 278 422 311 q 417 222 422 246 l 458 222 q 464 167 464 200 q 458 111 464 135 l 500 111 m 361 444 q 356 500 356 468 q 361 556 356 533 q 356 611 356 579 q 361 667 356 644 l 167 667 q 172 611 172 644 q 167 556 172 579 q 172 500 172 533 q 167 444 172 468 l 361 444 m 436 1056 q 431 1000 436 1024 l 361 1000 q 367 944 367 978 q 361 889 367 913 l 194 889 q 189 944 189 913 q 194 1000 189 978 l 125 1000 q 119 1056 119 1024 q 125 1111 119 1089 l 236 1111 q 242 1056 242 1089 q 236 1000 242 1024 l 319 1000 q 314 1056 314 1024 q 319 1111 314 1089 l 431 1111 q 436 1056 436 1089 z "},"Ŗ":{"ha":556,"x_min":50,"x_max":506,"o":"m 500 111 q 506 56 506 89 q 500 0 506 24 l 389 0 q 383 56 383 24 q 389 111 383 89 l 347 111 q 342 167 342 135 q 347 222 342 200 l 306 222 q 300 278 300 246 q 306 333 300 311 l 167 333 q 172 278 172 311 q 167 222 172 246 q 172 167 172 200 q 167 111 172 135 q 172 56 172 89 q 167 0 172 24 l 56 0 q 50 56 50 24 q 56 111 50 89 q 50 167 50 135 q 56 222 50 200 q 50 278 50 246 q 56 333 50 311 q 50 389 50 357 q 56 444 50 422 q 50 500 50 468 q 56 556 50 533 q 50 611 50 579 q 56 667 50 644 q 50 722 50 690 q 56 778 50 756 l 444 778 q 450 722 450 756 q 444 667 450 690 l 500 667 q 506 611 506 644 q 500 556 506 579 l 472 556 q 478 500 478 533 q 472 444 478 468 l 389 444 q 394 389 394 422 q 389 333 394 357 l 417 333 q 422 278 422 311 q 417 222 422 246 l 458 222 q 464 167 464 200 q 458 111 464 135 l 500 111 m 361 444 q 356 500 356 468 q 361 556 356 533 q 356 611 356 579 q 361 667 356 644 l 167 667 q 172 611 172 644 q 167 556 172 579 q 172 500 172 533 q 167 444 172 468 l 361 444 m 339 -167 q 333 -222 339 -199 q 339 -278 339 -244 q 333 -333 339 -310 l 278 -333 q 272 -278 272 -310 q 278 -222 272 -244 l 222 -222 q 217 -167 217 -199 q 222 -111 217 -133 l 333 -111 q 339 -167 339 -133 z "},"Ȑ":{"ha":556,"x_min":50,"x_max":506,"o":"m 500 111 q 506 56 506 89 q 500 0 506 24 l 389 0 q 383 56 383 24 q 389 111 383 89 l 347 111 q 342 167 342 135 q 347 222 342 200 l 306 222 q 300 278 300 246 q 306 333 300 311 l 167 333 q 172 278 172 311 q 167 222 172 246 q 172 167 172 200 q 167 111 172 135 q 172 56 172 89 q 167 0 172 24 l 56 0 q 50 56 50 24 q 56 111 50 89 q 50 167 50 135 q 56 222 50 200 q 50 278 50 246 q 56 333 50 311 q 50 389 50 357 q 56 444 50 422 q 50 500 50 468 q 56 556 50 533 q 50 611 50 579 q 56 667 50 644 q 50 722 50 690 q 56 778 50 756 l 444 778 q 450 722 450 756 q 444 667 450 690 l 500 667 q 506 611 506 644 q 500 556 506 579 l 472 556 q 478 500 478 533 q 472 444 478 468 l 389 444 q 394 389 394 422 q 389 333 394 357 l 417 333 q 422 278 422 311 q 417 222 422 246 l 458 222 q 464 167 464 200 q 458 111 464 135 l 500 111 m 361 444 q 356 500 356 468 q 361 556 356 533 q 356 611 356 579 q 361 667 356 644 l 167 667 q 172 611 172 644 q 167 556 172 579 q 172 500 172 533 q 167 444 172 468 l 361 444 m 236 1000 q 242 944 242 978 q 236 889 242 913 l 153 889 q 147 944 147 913 q 153 1000 147 978 l 111 1000 q 106 1056 106 1024 q 111 1111 106 1089 l 194 1111 q 200 1056 200 1089 q 194 1000 200 1024 l 236 1000 m 403 1000 q 408 944 408 978 q 403 889 408 913 l 319 889 q 314 944 314 913 q 319 1000 314 978 l 278 1000 q 272 1056 272 1024 q 278 1111 272 1089 l 361 1111 q 367 1056 367 1089 q 361 1000 367 1024 l 403 1000 z "},"Ȓ":{"ha":556,"x_min":50,"x_max":506,"o":"m 500 111 q 506 56 506 89 q 500 0 506 24 l 389 0 q 383 56 383 24 q 389 111 383 89 l 347 111 q 342 167 342 135 q 347 222 342 200 l 306 222 q 300 278 300 246 q 306 333 300 311 l 167 333 q 172 278 172 311 q 167 222 172 246 q 172 167 172 200 q 167 111 172 135 q 172 56 172 89 q 167 0 172 24 l 56 0 q 50 56 50 24 q 56 111 50 89 q 50 167 50 135 q 56 222 50 200 q 50 278 50 246 q 56 333 50 311 q 50 389 50 357 q 56 444 50 422 q 50 500 50 468 q 56 556 50 533 q 50 611 50 579 q 56 667 50 644 q 50 722 50 690 q 56 778 50 756 l 444 778 q 450 722 450 756 q 444 667 450 690 l 500 667 q 506 611 506 644 q 500 556 506 579 l 472 556 q 478 500 478 533 q 472 444 478 468 l 389 444 q 394 389 394 422 q 389 333 394 357 l 417 333 q 422 278 422 311 q 417 222 422 246 l 458 222 q 464 167 464 200 q 458 111 464 135 l 500 111 m 361 444 q 356 500 356 468 q 361 556 356 533 q 356 611 356 579 q 361 667 356 644 l 167 667 q 172 611 172 644 q 167 556 172 579 q 172 500 172 533 q 167 444 172 468 l 361 444 m 389 1111 q 394 1056 394 1089 q 389 1000 394 1024 l 167 1000 q 161 1056 161 1024 q 167 1111 161 1089 l 389 1111 m 167 1000 q 172 944 172 978 q 167 889 172 913 l 56 889 q 50 944 50 913 q 56 1000 50 978 l 167 1000 m 500 1000 q 506 944 506 978 q 500 889 506 913 l 389 889 q 383 944 383 913 q 389 1000 383 978 l 500 1000 z "},"S":{"ha":556,"x_min":50,"x_max":506,"o":"m 500 333 q 506 278 506 311 q 500 222 506 246 q 506 167 506 200 q 500 111 506 135 l 444 111 q 450 56 450 89 q 444 0 450 24 l 111 0 q 106 56 106 24 q 111 111 106 89 l 56 111 q 50 167 50 135 q 56 222 50 200 l 167 222 q 172 167 172 200 q 167 111 172 135 l 389 111 q 383 167 383 135 q 389 222 383 200 q 383 278 383 246 q 389 333 383 311 l 111 333 q 106 389 106 357 q 111 444 106 422 l 56 444 q 50 500 50 468 q 56 556 50 533 q 50 611 50 579 q 56 667 50 644 l 111 667 q 106 722 106 690 q 111 778 106 756 l 444 778 q 450 722 450 756 q 444 667 450 690 l 500 667 q 506 611 506 644 q 500 556 506 579 l 389 556 q 383 611 383 579 q 389 667 383 644 l 167 667 q 172 611 172 644 q 167 556 172 579 q 172 500 172 533 q 167 444 172 468 l 444 444 q 450 389 450 422 q 444 333 450 357 l 500 333 z "},"Ś":{"ha":556,"x_min":50,"x_max":506,"o":"m 222 889 q 217 944 217 913 q 222 1000 217 978 l 278 1000 q 272 1056 272 1024 q 278 1111 272 1089 l 389 1111 q 394 1056 394 1089 q 389 1000 394 1024 l 333 1000 q 339 944 339 978 q 333 889 339 913 l 222 889 m 500 333 q 506 278 506 311 q 500 222 506 246 q 506 167 506 200 q 500 111 506 135 l 444 111 q 450 56 450 89 q 444 0 450 24 l 111 0 q 106 56 106 24 q 111 111 106 89 l 56 111 q 50 167 50 135 q 56 222 50 200 l 167 222 q 172 167 172 200 q 167 111 172 135 l 389 111 q 383 167 383 135 q 389 222 383 200 q 383 278 383 246 q 389 333 383 311 l 111 333 q 106 389 106 357 q 111 444 106 422 l 56 444 q 50 500 50 468 q 56 556 50 533 q 50 611 50 579 q 56 667 50 644 l 111 667 q 106 722 106 690 q 111 778 106 756 l 444 778 q 450 722 450 756 q 444 667 450 690 l 500 667 q 506 611 506 644 q 500 556 506 579 l 389 556 q 383 611 383 579 q 389 667 383 644 l 167 667 q 172 611 172 644 q 167 556 172 579 q 172 500 172 533 q 167 444 172 468 l 444 444 q 450 389 450 422 q 444 333 450 357 l 500 333 z "},"Š":{"ha":556,"x_min":50,"x_max":506,"o":"m 500 333 q 506 278 506 311 q 500 222 506 246 q 506 167 506 200 q 500 111 506 135 l 444 111 q 450 56 450 89 q 444 0 450 24 l 111 0 q 106 56 106 24 q 111 111 106 89 l 56 111 q 50 167 50 135 q 56 222 50 200 l 167 222 q 172 167 172 200 q 167 111 172 135 l 389 111 q 383 167 383 135 q 389 222 383 200 q 383 278 383 246 q 389 333 383 311 l 111 333 q 106 389 106 357 q 111 444 106 422 l 56 444 q 50 500 50 468 q 56 556 50 533 q 50 611 50 579 q 56 667 50 644 l 111 667 q 106 722 106 690 q 111 778 106 756 l 444 778 q 450 722 450 756 q 444 667 450 690 l 500 667 q 506 611 506 644 q 500 556 506 579 l 389 556 q 383 611 383 579 q 389 667 383 644 l 167 667 q 172 611 172 644 q 167 556 172 579 q 172 500 172 533 q 167 444 172 468 l 444 444 q 450 389 450 422 q 444 333 450 357 l 500 333 m 436 1056 q 431 1000 436 1024 l 361 1000 q 367 944 367 978 q 361 889 367 913 l 194 889 q 189 944 189 913 q 194 1000 189 978 l 125 1000 q 119 1056 119 1024 q 125 1111 119 1089 l 236 1111 q 242 1056 242 1089 q 236 1000 242 1024 l 319 1000 q 314 1056 314 1024 q 319 1111 314 1089 l 431 1111 q 436 1056 436 1089 z "},"Ş":{"ha":556,"x_min":50,"x_max":506,"o":"m 500 333 q 506 278 506 311 q 500 222 506 246 q 506 167 506 200 q 500 111 506 135 l 444 111 q 450 56 450 89 q 444 0 450 24 l 111 0 q 106 56 106 24 q 111 111 106 89 l 56 111 q 50 167 50 135 q 56 222 50 200 l 167 222 q 172 167 172 200 q 167 111 172 135 l 389 111 q 383 167 383 135 q 389 222 383 200 q 383 278 383 246 q 389 333 383 311 l 111 333 q 106 389 106 357 q 111 444 106 422 l 56 444 q 50 500 50 468 q 56 556 50 533 q 50 611 50 579 q 56 667 50 644 l 111 667 q 106 722 106 690 q 111 778 106 756 l 444 778 q 450 722 450 756 q 444 667 450 690 l 500 667 q 506 611 506 644 q 500 556 506 579 l 389 556 q 383 611 383 579 q 389 667 383 644 l 167 667 q 172 611 172 644 q 167 556 172 579 q 172 500 172 533 q 167 444 172 468 l 444 444 q 450 389 450 422 q 444 333 450 357 l 500 333 m 367 -56 q 361 -111 367 -87 l 319 -111 q 325 -167 325 -133 q 319 -222 325 -199 l 208 -222 q 203 -167 203 -199 q 208 -111 203 -133 l 278 -111 q 272 -56 272 -87 q 278 0 272 -22 l 361 0 q 367 -56 367 -22 z "},"Ŝ":{"ha":556,"x_min":50,"x_max":506,"o":"m 500 333 q 506 278 506 311 q 500 222 506 246 q 506 167 506 200 q 500 111 506 135 l 444 111 q 450 56 450 89 q 444 0 450 24 l 111 0 q 106 56 106 24 q 111 111 106 89 l 56 111 q 50 167 50 135 q 56 222 50 200 l 167 222 q 172 167 172 200 q 167 111 172 135 l 389 111 q 383 167 383 135 q 389 222 383 200 q 383 278 383 246 q 389 333 383 311 l 111 333 q 106 389 106 357 q 111 444 106 422 l 56 444 q 50 500 50 468 q 56 556 50 533 q 50 611 50 579 q 56 667 50 644 l 111 667 q 106 722 106 690 q 111 778 106 756 l 444 778 q 450 722 450 756 q 444 667 450 690 l 500 667 q 506 611 506 644 q 500 556 506 579 l 389 556 q 383 611 383 579 q 389 667 383 644 l 167 667 q 172 611 172 644 q 167 556 172 579 q 172 500 172 533 q 167 444 172 468 l 444 444 q 450 389 450 422 q 444 333 450 357 l 500 333 m 431 1000 q 436 944 436 978 q 431 889 436 913 l 319 889 q 314 944 314 913 q 319 1000 314 978 l 236 1000 q 242 944 242 978 q 236 889 242 913 l 125 889 q 119 944 119 913 q 125 1000 119 978 l 194 1000 q 189 1056 189 1024 q 194 1111 189 1089 l 361 1111 q 367 1056 367 1089 q 361 1000 367 1024 l 431 1000 z "},"Ș":{"ha":556,"x_min":50,"x_max":506,"o":"m 500 333 q 506 278 506 311 q 500 222 506 246 q 506 167 506 200 q 500 111 506 135 l 444 111 q 450 56 450 89 q 444 0 450 24 l 111 0 q 106 56 106 24 q 111 111 106 89 l 56 111 q 50 167 50 135 q 56 222 50 200 l 167 222 q 172 167 172 200 q 167 111 172 135 l 389 111 q 383 167 383 135 q 389 222 383 200 q 383 278 383 246 q 389 333 383 311 l 111 333 q 106 389 106 357 q 111 444 106 422 l 56 444 q 50 500 50 468 q 56 556 50 533 q 50 611 50 579 q 56 667 50 644 l 111 667 q 106 722 106 690 q 111 778 106 756 l 444 778 q 450 722 450 756 q 444 667 450 690 l 500 667 q 506 611 506 644 q 500 556 506 579 l 389 556 q 383 611 383 579 q 389 667 383 644 l 167 667 q 172 611 172 644 q 167 556 172 579 q 172 500 172 533 q 167 444 172 468 l 444 444 q 450 389 450 422 q 444 333 450 357 l 500 333 m 339 -167 q 333 -222 339 -199 q 339 -278 339 -244 q 333 -333 339 -310 l 278 -333 q 272 -278 272 -310 q 278 -222 272 -244 l 222 -222 q 217 -167 217 -199 q 222 -111 217 -133 l 333 -111 q 339 -167 339 -133 z "},"ẞ":{"ha":556,"x_min":50,"x_max":506,"o":"m 506 500 q 500 444 506 468 l 444 444 q 450 389 450 422 q 444 333 450 357 l 500 333 q 506 278 506 311 q 500 222 506 246 q 506 167 506 200 q 500 111 506 135 l 444 111 q 450 56 450 89 q 444 0 450 24 l 278 0 q 272 56 272 24 q 278 111 272 89 l 222 111 q 217 167 217 135 q 222 222 217 200 l 333 222 q 339 167 339 200 q 333 111 339 135 l 389 111 q 383 167 383 135 q 389 222 383 200 q 383 278 383 246 q 389 333 383 311 l 278 333 q 272 389 272 357 q 278 444 272 422 l 389 444 q 383 500 383 468 q 389 556 383 533 q 383 611 383 579 q 389 667 383 644 l 167 667 q 172 611 172 644 q 167 556 172 579 q 172 500 172 533 q 167 444 172 468 q 172 389 172 422 q 167 333 172 357 q 172 278 172 311 q 167 222 172 246 q 172 167 172 200 q 167 111 172 135 q 172 56 172 89 q 167 0 172 24 l 56 0 q 50 56 50 24 q 56 111 50 89 q 50 167 50 135 q 56 222 50 200 q 50 278 50 246 q 56 333 50 311 q 50 389 50 357 q 56 444 50 422 q 50 500 50 468 q 56 556 50 533 q 50 611 50 579 q 56 667 50 644 q 50 722 50 690 q 56 778 50 756 l 444 778 q 450 722 450 756 q 444 667 450 690 l 500 667 q 506 611 506 644 q 500 556 506 579 q 506 500 506 533 z "},"Ə":{"ha":556,"x_min":50,"x_max":506,"o":"m 500 444 q 506 389 506 422 q 500 333 506 357 q 506 278 506 311 q 500 222 506 246 l 458 222 q 464 167 464 200 q 458 111 464 135 l 389 111 q 394 56 394 89 q 389 0 394 24 l 167 0 q 161 56 161 24 q 167 111 161 89 l 97 111 q 92 167 92 135 q 97 222 92 200 l 56 222 q 50 278 50 246 q 56 333 50 311 q 50 389 50 357 q 56 444 50 422 l 389 444 q 383 500 383 468 q 389 556 383 533 l 347 556 q 342 611 342 579 q 347 667 342 644 l 167 667 q 172 611 172 644 q 167 556 172 579 l 56 556 q 50 611 50 579 q 56 667 50 644 l 111 667 q 106 722 106 690 q 111 778 106 756 l 389 778 q 394 722 394 756 q 389 667 394 690 l 458 667 q 464 611 464 644 q 458 556 464 579 l 500 556 q 506 500 506 533 q 500 444 506 468 m 389 222 q 383 278 383 246 q 389 333 383 311 l 167 333 q 172 278 172 311 q 167 222 172 246 l 208 222 q 214 167 214 200 q 208 111 214 135 l 347 111 q 342 167 342 135 q 347 222 342 200 l 389 222 z "},"T":{"ha":556,"x_min":50,"x_max":506,"o":"m 506 722 q 500 667 506 690 l 333 667 q 339 611 339 644 q 333 556 339 579 q 339 500 339 533 q 333 444 339 468 q 339 389 339 422 q 333 333 339 357 q 339 278 339 311 q 333 222 339 246 q 339 167 339 200 q 333 111 339 135 q 339 56 339 89 q 333 0 339 24 l 222 0 q 217 56 217 24 q 222 111 217 89 q 217 167 217 135 q 222 222 217 200 q 217 278 217 246 q 222 333 217 311 q 217 389 217 357 q 222 444 217 422 q 217 500 217 468 q 222 556 217 533 q 217 611 217 579 q 222 667 217 644 l 56 667 q 50 722 50 690 q 56 778 50 756 l 500 778 q 506 722 506 756 z "},"Ŧ":{"ha":556,"x_min":50,"x_max":506,"o":"m 506 722 q 500 667 506 690 l 333 667 q 339 611 339 644 q 333 556 339 579 q 339 500 339 533 q 333 444 339 468 l 444 444 q 450 389 450 422 q 444 333 450 357 l 333 333 q 339 278 339 311 q 333 222 339 246 q 339 167 339 200 q 333 111 339 135 q 339 56 339 89 q 333 0 339 24 l 222 0 q 217 56 217 24 q 222 111 217 89 q 217 167 217 135 q 222 222 217 200 q 217 278 217 246 q 222 333 217 311 l 111 333 q 106 389 106 357 q 111 444 106 422 l 222 444 q 217 500 217 468 q 222 556 217 533 q 217 611 217 579 q 222 667 217 644 l 56 667 q 50 722 50 690 q 56 778 50 756 l 500 778 q 506 722 506 756 z "},"Ť":{"ha":556,"x_min":50,"x_max":506,"o":"m 506 722 q 500 667 506 690 l 333 667 q 339 611 339 644 q 333 556 339 579 q 339 500 339 533 q 333 444 339 468 q 339 389 339 422 q 333 333 339 357 q 339 278 339 311 q 333 222 339 246 q 339 167 339 200 q 333 111 339 135 q 339 56 339 89 q 333 0 339 24 l 222 0 q 217 56 217 24 q 222 111 217 89 q 217 167 217 135 q 222 222 217 200 q 217 278 217 246 q 222 333 217 311 q 217 389 217 357 q 222 444 217 422 q 217 500 217 468 q 222 556 217 533 q 217 611 217 579 q 222 667 217 644 l 56 667 q 50 722 50 690 q 56 778 50 756 l 500 778 q 506 722 506 756 m 436 1056 q 431 1000 436 1024 l 361 1000 q 367 944 367 978 q 361 889 367 913 l 194 889 q 189 944 189 913 q 194 1000 189 978 l 125 1000 q 119 1056 119 1024 q 125 1111 119 1089 l 236 1111 q 242 1056 242 1089 q 236 1000 242 1024 l 319 1000 q 314 1056 314 1024 q 319 1111 314 1089 l 431 1111 q 436 1056 436 1089 z "},"Ţ":{"ha":556,"x_min":50,"x_max":506,"o":"m 506 722 q 500 667 506 690 l 333 667 q 339 611 339 644 q 333 556 339 579 q 339 500 339 533 q 333 444 339 468 q 339 389 339 422 q 333 333 339 357 q 339 278 339 311 q 333 222 339 246 q 339 167 339 200 q 333 111 339 135 q 339 56 339 89 q 333 0 339 24 l 222 0 q 217 56 217 24 q 222 111 217 89 q 217 167 217 135 q 222 222 217 200 q 217 278 217 246 q 222 333 217 311 q 217 389 217 357 q 222 444 217 422 q 217 500 217 468 q 222 556 217 533 q 217 611 217 579 q 222 667 217 644 l 56 667 q 50 722 50 690 q 56 778 50 756 l 500 778 q 506 722 506 756 m 367 -56 q 361 -111 367 -87 l 319 -111 q 325 -167 325 -133 q 319 -222 325 -199 l 208 -222 q 203 -167 203 -199 q 208 -111 203 -133 l 278 -111 q 272 -56 272 -87 q 278 0 272 -22 l 361 0 q 367 -56 367 -22 z "},"Ț":{"ha":556,"x_min":50,"x_max":506,"o":"m 506 722 q 500 667 506 690 l 333 667 q 339 611 339 644 q 333 556 339 579 q 339 500 339 533 q 333 444 339 468 q 339 389 339 422 q 333 333 339 357 q 339 278 339 311 q 333 222 339 246 q 339 167 339 200 q 333 111 339 135 q 339 56 339 89 q 333 0 339 24 l 222 0 q 217 56 217 24 q 222 111 217 89 q 217 167 217 135 q 222 222 217 200 q 217 278 217 246 q 222 333 217 311 q 217 389 217 357 q 222 444 217 422 q 217 500 217 468 q 222 556 217 533 q 217 611 217 579 q 222 667 217 644 l 56 667 q 50 722 50 690 q 56 778 50 756 l 500 778 q 506 722 506 756 m 339 -167 q 333 -222 339 -199 q 339 -278 339 -244 q 333 -333 339 -310 l 278 -333 q 272 -278 272 -310 q 278 -222 272 -244 l 222 -222 q 217 -167 217 -199 q 222 -111 217 -133 l 333 -111 q 339 -167 339 -133 z "},"U":{"ha":556,"x_min":50,"x_max":506,"o":"m 500 667 q 506 611 506 644 q 500 556 506 579 q 506 500 506 533 q 500 444 506 468 q 506 389 506 422 q 500 333 506 357 q 506 278 506 311 q 500 222 506 246 q 506 167 506 200 q 500 111 506 135 l 444 111 q 450 56 450 89 q 444 0 450 24 l 111 0 q 106 56 106 24 q 111 111 106 89 l 56 111 q 50 167 50 135 q 56 222 50 200 q 50 278 50 246 q 56 333 50 311 q 50 389 50 357 q 56 444 50 422 q 50 500 50 468 q 56 556 50 533 q 50 611 50 579 q 56 667 50 644 q 50 722 50 690 q 56 778 50 756 l 167 778 q 172 722 172 756 q 167 667 172 690 q 172 611 172 644 q 167 556 172 579 q 172 500 172 533 q 167 444 172 468 q 172 389 172 422 q 167 333 172 357 q 172 278 172 311 q 167 222 172 246 q 172 167 172 200 q 167 111 172 135 l 389 111 q 383 167 383 135 q 389 222 383 200 q 383 278 383 246 q 389 333 383 311 q 383 389 383 357 q 389 444 383 422 q 383 500 383 468 q 389 556 383 533 q 383 611 383 579 q 389 667 383 644 q 383 722 383 690 q 389 778 383 756 l 500 778 q 506 722 506 756 q 500 667 506 690 z "},"Ú":{"ha":556,"x_min":50,"x_max":506,"o":"m 222 889 q 217 944 217 913 q 222 1000 217 978 l 278 1000 q 272 1056 272 1024 q 278 1111 272 1089 l 389 1111 q 394 1056 394 1089 q 389 1000 394 1024 l 333 1000 q 339 944 339 978 q 333 889 339 913 l 222 889 m 500 667 q 506 611 506 644 q 500 556 506 579 q 506 500 506 533 q 500 444 506 468 q 506 389 506 422 q 500 333 506 357 q 506 278 506 311 q 500 222 506 246 q 506 167 506 200 q 500 111 506 135 l 444 111 q 450 56 450 89 q 444 0 450 24 l 111 0 q 106 56 106 24 q 111 111 106 89 l 56 111 q 50 167 50 135 q 56 222 50 200 q 50 278 50 246 q 56 333 50 311 q 50 389 50 357 q 56 444 50 422 q 50 500 50 468 q 56 556 50 533 q 50 611 50 579 q 56 667 50 644 q 50 722 50 690 q 56 778 50 756 l 167 778 q 172 722 172 756 q 167 667 172 690 q 172 611 172 644 q 167 556 172 579 q 172 500 172 533 q 167 444 172 468 q 172 389 172 422 q 167 333 172 357 q 172 278 172 311 q 167 222 172 246 q 172 167 172 200 q 167 111 172 135 l 389 111 q 383 167 383 135 q 389 222 383 200 q 383 278 383 246 q 389 333 383 311 q 383 389 383 357 q 389 444 383 422 q 383 500 383 468 q 389 556 383 533 q 383 611 383 579 q 389 667 383 644 q 383 722 383 690 q 389 778 383 756 l 500 778 q 506 722 506 756 q 500 667 506 690 z "},"Ŭ":{"ha":556,"x_min":50,"x_max":506,"o":"m 500 667 q 506 611 506 644 q 500 556 506 579 q 506 500 506 533 q 500 444 506 468 q 506 389 506 422 q 500 333 506 357 q 506 278 506 311 q 500 222 506 246 q 506 167 506 200 q 500 111 506 135 l 444 111 q 450 56 450 89 q 444 0 450 24 l 111 0 q 106 56 106 24 q 111 111 106 89 l 56 111 q 50 167 50 135 q 56 222 50 200 q 50 278 50 246 q 56 333 50 311 q 50 389 50 357 q 56 444 50 422 q 50 500 50 468 q 56 556 50 533 q 50 611 50 579 q 56 667 50 644 q 50 722 50 690 q 56 778 50 756 l 167 778 q 172 722 172 756 q 167 667 172 690 q 172 611 172 644 q 167 556 172 579 q 172 500 172 533 q 167 444 172 468 q 172 389 172 422 q 167 333 172 357 q 172 278 172 311 q 167 222 172 246 q 172 167 172 200 q 167 111 172 135 l 389 111 q 383 167 383 135 q 389 222 383 200 q 383 278 383 246 q 389 333 383 311 q 383 389 383 357 q 389 444 383 422 q 383 500 383 468 q 389 556 383 533 q 383 611 383 579 q 389 667 383 644 q 383 722 383 690 q 389 778 383 756 l 500 778 q 506 722 506 756 q 500 667 506 690 m 167 1111 q 172 1056 172 1089 q 167 1000 172 1024 l 56 1000 q 50 1056 50 1024 q 56 1111 50 1089 l 167 1111 m 500 1111 q 506 1056 506 1089 q 500 1000 506 1024 l 389 1000 q 383 1056 383 1024 q 389 1111 383 1089 l 500 1111 m 389 1000 q 394 944 394 978 q 389 889 394 913 l 167 889 q 161 944 161 913 q 167 1000 161 978 l 389 1000 z "},"Û":{"ha":556,"x_min":50,"x_max":506,"o":"m 500 667 q 506 611 506 644 q 500 556 506 579 q 506 500 506 533 q 500 444 506 468 q 506 389 506 422 q 500 333 506 357 q 506 278 506 311 q 500 222 506 246 q 506 167 506 200 q 500 111 506 135 l 444 111 q 450 56 450 89 q 444 0 450 24 l 111 0 q 106 56 106 24 q 111 111 106 89 l 56 111 q 50 167 50 135 q 56 222 50 200 q 50 278 50 246 q 56 333 50 311 q 50 389 50 357 q 56 444 50 422 q 50 500 50 468 q 56 556 50 533 q 50 611 50 579 q 56 667 50 644 q 50 722 50 690 q 56 778 50 756 l 167 778 q 172 722 172 756 q 167 667 172 690 q 172 611 172 644 q 167 556 172 579 q 172 500 172 533 q 167 444 172 468 q 172 389 172 422 q 167 333 172 357 q 172 278 172 311 q 167 222 172 246 q 172 167 172 200 q 167 111 172 135 l 389 111 q 383 167 383 135 q 389 222 383 200 q 383 278 383 246 q 389 333 383 311 q 383 389 383 357 q 389 444 383 422 q 383 500 383 468 q 389 556 383 533 q 383 611 383 579 q 389 667 383 644 q 383 722 383 690 q 389 778 383 756 l 500 778 q 506 722 506 756 q 500 667 506 690 m 431 1000 q 436 944 436 978 q 431 889 436 913 l 319 889 q 314 944 314 913 q 319 1000 314 978 l 236 1000 q 242 944 242 978 q 236 889 242 913 l 125 889 q 119 944 119 913 q 125 1000 119 978 l 194 1000 q 189 1056 189 1024 q 194 1111 189 1089 l 361 1111 q 367 1056 367 1089 q 361 1000 367 1024 l 431 1000 z "},"Ȕ":{"ha":556,"x_min":50,"x_max":506,"o":"m 500 667 q 506 611 506 644 q 500 556 506 579 q 506 500 506 533 q 500 444 506 468 q 506 389 506 422 q 500 333 506 357 q 506 278 506 311 q 500 222 506 246 q 506 167 506 200 q 500 111 506 135 l 444 111 q 450 56 450 89 q 444 0 450 24 l 111 0 q 106 56 106 24 q 111 111 106 89 l 56 111 q 50 167 50 135 q 56 222 50 200 q 50 278 50 246 q 56 333 50 311 q 50 389 50 357 q 56 444 50 422 q 50 500 50 468 q 56 556 50 533 q 50 611 50 579 q 56 667 50 644 q 50 722 50 690 q 56 778 50 756 l 167 778 q 172 722 172 756 q 167 667 172 690 q 172 611 172 644 q 167 556 172 579 q 172 500 172 533 q 167 444 172 468 q 172 389 172 422 q 167 333 172 357 q 172 278 172 311 q 167 222 172 246 q 172 167 172 200 q 167 111 172 135 l 389 111 q 383 167 383 135 q 389 222 383 200 q 383 278 383 246 q 389 333 383 311 q 383 389 383 357 q 389 444 383 422 q 383 500 383 468 q 389 556 383 533 q 383 611 383 579 q 389 667 383 644 q 383 722 383 690 q 389 778 383 756 l 500 778 q 506 722 506 756 q 500 667 506 690 m 236 1000 q 242 944 242 978 q 236 889 242 913 l 153 889 q 147 944 147 913 q 153 1000 147 978 l 111 1000 q 106 1056 106 1024 q 111 1111 106 1089 l 194 1111 q 200 1056 200 1089 q 194 1000 200 1024 l 236 1000 m 403 1000 q 408 944 408 978 q 403 889 408 913 l 319 889 q 314 944 314 913 q 319 1000 314 978 l 278 1000 q 272 1056 272 1024 q 278 1111 272 1089 l 361 1111 q 367 1056 367 1089 q 361 1000 367 1024 l 403 1000 z "},"Ü":{"ha":556,"x_min":50,"x_max":506,"o":"m 111 889 q 106 944 106 913 q 111 1000 106 978 l 222 1000 q 228 944 228 978 q 222 889 228 913 l 111 889 m 333 889 q 328 944 328 913 q 333 1000 328 978 l 444 1000 q 450 944 450 978 q 444 889 450 913 l 333 889 m 500 667 q 506 611 506 644 q 500 556 506 579 q 506 500 506 533 q 500 444 506 468 q 506 389 506 422 q 500 333 506 357 q 506 278 506 311 q 500 222 506 246 q 506 167 506 200 q 500 111 506 135 l 444 111 q 450 56 450 89 q 444 0 450 24 l 111 0 q 106 56 106 24 q 111 111 106 89 l 56 111 q 50 167 50 135 q 56 222 50 200 q 50 278 50 246 q 56 333 50 311 q 50 389 50 357 q 56 444 50 422 q 50 500 50 468 q 56 556 50 533 q 50 611 50 579 q 56 667 50 644 q 50 722 50 690 q 56 778 50 756 l 167 778 q 172 722 172 756 q 167 667 172 690 q 172 611 172 644 q 167 556 172 579 q 172 500 172 533 q 167 444 172 468 q 172 389 172 422 q 167 333 172 357 q 172 278 172 311 q 167 222 172 246 q 172 167 172 200 q 167 111 172 135 l 389 111 q 383 167 383 135 q 389 222 383 200 q 383 278 383 246 q 389 333 383 311 q 383 389 383 357 q 389 444 383 422 q 383 500 383 468 q 389 556 383 533 q 383 611 383 579 q 389 667 383 644 q 383 722 383 690 q 389 778 383 756 l 500 778 q 506 722 506 756 q 500 667 506 690 z "}}}
